<?xml version="1.0" standalone="no"?>
<!DOCTYPE svg PUBLIC "-//W3C//DTD SVG 1.1//EN" "http://www.w3.org/Graphics/SVG/1.1/DTD/svg11.dtd" >
<svg>
<metadata>
Created by FontForge 20090914 at Wed Jun 15 12:18:27 2022
 By www-data
Typeface and data copyright 1996 Microsoft Corporation. All Rights Reserved.
</metadata>
<defs>
<font id="Georgia-Bold" horiz-adv-x="1024" >
  <font-face 
    font-family="Georgia"
    font-weight="700"
    font-stretch="normal"
    units-per-em="2048"
    panose-1="2 4 8 2 5 4 5 2 2 3"
    ascent="1638"
    descent="-410"
    x-height="992"
    cap-height="1419"
    bbox="-390 -444.004 2588 1868"
    underline-thickness="122"
    underline-position="-119"
    unicode-range="U+0020-U+F002"
  />
<missing-glyph horiz-adv-x="2048" 
d="M256 0v1536h1536v-1536h-1536zM384 128h1280v1280h-1280v-1280z" />
    <glyph glyph-name=".notdef" horiz-adv-x="2048" 
d="M256 0v1536h1536v-1536h-1536zM384 128h1280v1280h-1280v-1280z" />
    <glyph glyph-name="space" unicode=" " horiz-adv-x="520" 
 />
    <glyph glyph-name="space" unicode="&#xa0;" horiz-adv-x="520" 
 />
    <glyph glyph-name="exclam" unicode="!" horiz-adv-x="771" 
d="M580 1261c0 -27.333 -4.83203 -63.499 -14.499 -108.499s-21.834 -97.833 -36.501 -158.5c-14 -57.333 -30 -128.833 -48 -214.5s-37 -191.5 -57 -317.5h-77c-20 127.333 -39 233.333 -57 318s-34 155.667 -48 213c-12.667 52.667 -24.334 104.167 -35.001 154.5
s-16 88.166 -16 113.499c0 51.333 19 95.166 57 131.499s83.667 54.5 137 54.5c52.667 0 98.334 -18.167 137.001 -54.5s58 -80.166 58 -131.499zM578.001 156.001c0 -50.667 -19.167 -94.167 -57.5 -130.5s-83.166 -54.5 -134.499 -54.5c-52 0 -97.167 18.167 -135.5 54.5
s-57.5 79.833 -57.5 130.5s19.167 94.5 57.5 131.5s83.5 55.5 135.5 55.5c51.333 0 96.166 -18.5 134.499 -55.5s57.5 -80.833 57.5 -131.5z" />
    <glyph glyph-name="quotedbl" unicode="&#x22;" horiz-adv-x="1044" 
d="M924 1369c0 -36.667 -16.167 -107.834 -48.5 -213.501s-59.833 -216.5 -82.5 -332.5h-69c-23.333 116 -51 226.833 -83 332.5s-48 176.834 -48 213.501c0 42.667 14.333 80 43 112s69.667 48 123 48c52 0 92.5 -16 121.5 -48s43.5 -69.333 43.5 -112zM451 1369
c0 -36.667 -16.167 -107.834 -48.5 -213.501s-59.833 -216.5 -82.5 -332.5h-69c-23.333 116 -51 226.833 -83 332.5s-48 176.834 -48 213.501c0 42.667 14.333 80 43 112s69.667 48 123 48c52 0 92.5 -16 121.5 -48s43.5 -69.333 43.5 -112z" />
    <glyph glyph-name="numbersign" unicode="#" horiz-adv-x="1440" 
d="M1285 748h-262l-78 -257h280v-160h-328l-101 -331h-149l101 331h-230l-101 -331h-149l101 331h-214v160h262l79 257h-281v160h329l104 341h149l-104 -341h230l104 341h149l-104 -341h213v-160zM877 750h-233l-79 -261h232z" />
    <glyph glyph-name="dollar" unicode="$" horiz-adv-x="1312" 
d="M1207 411c0 -124 -47.334 -224.169 -142.001 -300.502s-211.667 -119.166 -351 -128.499v-281h-99v281c-140.667 2.66699 -260.667 34.834 -360 96.501s-149 133.167 -149 214.5c0 47.333 14.333 87.333 43 120s68.334 49 119.001 49c52.667 0 94.5 -13.833 125.5 -41.5
s46.5 -65.167 46.5 -112.5c0 -34 -5.66699 -68.167 -17 -102.5s-20.666 -61.166 -27.999 -80.499c18 -9.33301 47.833 -21.333 89.5 -36s85.167 -22 130.5 -22v449c-9.33301 1.33301 -18.333 2.5 -27 3.5l-30 3.5c-128 12 -229 50.667 -303 116s-111 150.666 -111 255.999
c0 46.667 8.66699 92.334 26 137.001s44 86.334 80 125.001c36.667 40 85.167 73.5 145.5 100.5s133.5 43.167 219.5 48.5v218h99v-218c136.667 -5.33301 247.334 -33.833 332.001 -85.5s127 -115.5 127 -191.5c0 -45.333 -13.833 -83.833 -41.5 -115.5
s-65.834 -47.5 -114.501 -47.5c-50.667 0 -90.667 13.333 -120 40s-44 62.667 -44 108c0 31.333 5.16699 62 15.5 92l27.5 81c-18 9.33301 -43.167 17 -75.5 23s-67.833 9.66699 -106.5 11v-409c10 -0.666992 22.667 -2.33398 38 -5.00098s28.666 -4.66699 39.999 -6
c136.667 -20 240 -63.333 310 -130s105 -153.334 105 -260.001zM614.999 820.998v400c-76 -8 -134.167 -30.333 -174.5 -67s-60.5 -80.667 -60.5 -132c0 -59.333 16.5 -104.333 49.5 -135s80.833 -50.667 143.5 -60c10 -1.33301 17.5 -2.5 22.5 -3.5
s11.5 -1.83301 19.5 -2.5zM972.999 292.998c0 55.333 -16.332 100.167 -48.999 134.5s-84.334 58.166 -155.001 71.499c-7.33301 1.33301 -16 2.66602 -26 3.99902l-29 4v-440c91.333 8.66699 157.333 33.834 198 75.501s61 91.834 61 150.501z" />
    <glyph glyph-name="percent" unicode="%" horiz-adv-x="1801" 
d="M870 1086c0 -111.333 -37.499 -201.5 -112.499 -270.5s-167.167 -103.5 -276.5 -103.5c-110.667 0 -203.334 34.5 -278.001 103.5s-112 159.167 -112 270.5s37.333 201.5 112 270.5s167 103.5 277 103.5s202.5 -34.5 277.5 -103.5s112.5 -159.167 112.5 -270.5z
M605.001 1084c0 92 -9.00098 165.5 -27.001 220.5s-51 82.5 -99 82.5c-43.333 0 -74.666 -25.833 -93.999 -77.5s-29 -123.5 -29 -215.5c0 -96 8.83301 -171.5 26.5 -226.5s51.167 -82.5 100.5 -82.5c42.667 0 73.667 25.833 93 77.5s29 125.5 29 221.5zM1710 339
c0 -111.333 -37.499 -201.5 -112.499 -270.5s-167.167 -103.5 -276.5 -103.5c-110.667 0 -203.334 34.5 -278.001 103.5s-112 159.167 -112 270.5s37.333 201.5 112 270.5s167 103.5 277 103.5s202.5 -34.5 277.5 -103.5s112.5 -159.167 112.5 -270.5zM1445 337
c0 92 -9.00098 165.5 -27.001 220.5s-51 82.5 -99 82.5c-43.333 0 -74.666 -25.833 -93.999 -77.5s-29 -123.5 -29 -215.5c0 -96 8.83301 -171.5 26.5 -226.5s51.167 -82.5 100.5 -82.5c42.667 0 73.667 25.833 93 77.5s29 125.5 29 221.5zM1574 1428l-1183 -1428h-163
l1180 1428h166z" />
    <glyph glyph-name="ampersand" unicode="&#x26;" horiz-adv-x="1637" 
d="M1646 0l-588.001 -0.00292969l-62 70.5c-25.333 29 -47 54.833 -65 77.5c-70.667 -65.333 -141.167 -112.166 -211.5 -140.499s-145.166 -42.5 -224.499 -42.5c-124.667 0 -226.834 33.667 -306.501 101s-119.5 155 -119.5 263c0 54 7.16699 100.333 21.5 139
s37.5 77.334 69.5 116.001c30.667 37.333 68.667 70.833 114 100.5s96.333 57.5 153 83.5c-60 76 -101.833 140.667 -125.5 194s-35.5 108 -35.5 164c0 96 40 175.167 120 237.5s175.667 93.5 287 93.5c104 0 188.333 -24.667 253 -74s97 -114.666 97 -195.999
c0 -70.667 -19.333 -133.834 -58 -189.501s-103 -110.167 -193 -163.5c72.667 -93.333 128.834 -163.5 168.501 -210.5l158.5 -185.5c42 62 73.5 119 94.5 171s31.5 95.667 31.5 131c0 20 -14.833 36.167 -44.5 48.5s-71.5 23.833 -125.5 34.5v76h559v-76
c-60.667 -5.33301 -105.5 -12.666 -134.5 -21.999s-57.5 -28.333 -85.5 -57c-12 -12 -26.833 -33.167 -44.5 -63.5l-50.5 -87.5l-62 -107c-22 -37.333 -48.667 -76.333 -80 -117c61.333 -72 111.833 -125.833 151.5 -161.5s72.167 -60.167 97.5 -73.5
c28.667 -15.333 65 -27.5 109 -36.5s87.667 -14.833 131 -17.5v-80zM870.999 1172c0 58.667 -14.1689 104.834 -42.502 138.501s-65.166 50.5 -110.499 50.5c-43.333 0 -78.333 -13.833 -105 -41.5s-40 -63.834 -40 -108.501c0 -38.667 12.333 -82.5 37 -131.5
s62.667 -108.5 114 -178.5c50.667 35.333 87.834 76.5 111.501 123.5s35.5 96.167 35.5 147.5zM877.997 212.997l-195.5 235.001l-207.5 255c-35.333 -34.667 -60.833 -75.167 -76.5 -121.5s-23.5 -92.833 -23.5 -139.5c0 -88.667 28.333 -161 85 -217s128.667 -84 216 -84
c40.667 0 76 5.16699 106 15.5s62 29.166 96 56.499z" />
    <glyph glyph-name="quotesingle" unicode="'" horiz-adv-x="551" 
d="M441 1369c0 -36.667 -16.167 -107.834 -48.5 -213.501s-59.833 -216.5 -82.5 -332.5h-69c-23.333 116 -51 226.833 -83 332.5s-48 176.834 -48 213.501c0 42.667 14.333 80 43 112s69.667 48 123 48c52 0 92.5 -16 121.5 -48s43.5 -69.333 43.5 -112z" />
    <glyph glyph-name="parenleft" unicode="(" horiz-adv-x="915" 
d="M848 -328c-91.333 12 -180.833 39.001 -268.5 81.001s-165.834 101 -234.501 177c-69.333 76 -125 169.5 -167 280.5s-63 241.5 -63 391.5s21 280.5 63 391.5s97.667 204.5 167 280.5c68.667 75.333 146.834 134.166 234.501 176.499s177.167 69.5 268.5 81.5v-90
c-126 -23.333 -222.667 -104.5 -290 -243.5s-101 -337.833 -101 -596.5s33.667 -457.5 101 -596.5s164 -220.167 290 -243.5v-90z" />
    <glyph glyph-name="parenright" unicode=")" horiz-adv-x="915" 
d="M801 602c0 -150 -21 -280.502 -63 -391.502s-97.667 -204.5 -167 -280.5c-68.667 -75.333 -146.834 -134.166 -234.501 -176.499s-177.167 -69.5 -268.5 -81.5v90c126 23.333 222.667 104.5 290 243.5s101 337.833 101 596.5s-33.667 457.5 -101 596.5
s-164 220.167 -290 243.5v90c91.333 -12 180.833 -39.167 268.5 -81.5s165.834 -101.166 234.501 -176.499c69.333 -76 125 -169.5 167 -280.5s63 -241.5 63 -391.5z" />
    <glyph glyph-name="asterisk" unicode="*" horiz-adv-x="987" 
d="M907 1083c0 -30 -8.49805 -51.8311 -25.498 -65.498s-38.5 -20.5 -64.5 -20.5c-16.667 0 -51.167 7.33301 -103.5 22s-107.833 25.667 -166.5 33c38.667 -50.667 81.334 -98.334 128.001 -143.001s70 -82.667 70 -114c0 -22 -9.66699 -41.167 -29 -57.5
s-39.666 -24.5 -60.999 -24.5c-14.667 0 -28.334 4.16699 -41.001 12.5s-23.667 20.166 -33 35.499c-8 14.667 -18.833 48 -32.5 100s-31.834 105.333 -54.501 160c-22 -52 -40.333 -105.5 -55 -160.5s-25.334 -88.167 -32.001 -99.5
c-10.667 -16.667 -21.5 -28.834 -32.5 -36.501s-24.833 -11.5 -41.5 -11.5c-22 0 -42.5 7.83301 -61.5 23.5s-28.5 35.167 -28.5 58.5c0 31.333 23.333 69.333 70 114s89.334 92.334 128.001 143.001c-56 -6.66699 -111 -17.5 -165 -32.5s-89 -22.5 -105 -22.5
c-26 0 -47.5 6.83301 -64.5 20.5s-25.5 35.5 -25.5 65.5c0 27.333 8.5 48.5 25.5 63.5s38.5 22.5 64.5 22.5c20.667 0 53.834 -6.83301 99.501 -20.5s102.5 -24.5 170.5 -32.5c-44 56 -88 105.167 -132 147.5s-66 78.833 -66 109.5c0 22 9.66699 41.167 29 57.5
s39.666 24.5 60.999 24.5c15.333 0 29.166 -4 41.499 -12s23.166 -19.667 32.499 -35c8 -14.667 19 -48.334 33 -101.001s32 -106 54 -160c22 54.667 40.167 108.334 54.5 161.001s25.166 86 32.499 100c8 14 18.5 25.333 31.5 34s27.167 13 42.5 13
c22 0 42.5 -7.83301 61.5 -23.5s28.5 -35.167 28.5 -58.5c0 -30.667 -20.833 -66.5 -62.5 -107.5s-86.5 -90.833 -134.5 -149.5c66.667 8.66699 123.834 19.667 171.501 33s80.167 20 97.5 20c26 0 47.5 -7.5 64.5 -22.5s25.5 -36.167 25.5 -63.5z" />
    <glyph glyph-name="plus" unicode="+" horiz-adv-x="1440" 
d="M1275 493h-473v-473h-165v473h-473v163h473v473h165v-473h473v-163z" />
    <glyph glyph-name="comma" unicode="," horiz-adv-x="672" 
d="M539 53c0 -81.333 -34 -164.5 -102 -249.5s-149.667 -149.167 -245 -192.5l-44 71c32.667 17.333 63.5 36 92.5 56s54.833 43.333 77.5 70c23.333 28 41.833 56.5 55.5 85.5s22.167 64.5 25.5 106.5h-56c-68 -0 -119.333 15.333 -154 46s-52 73 -52 127
c0 42.667 16.667 81.167 50 115.5s74.333 51.5 123 51.5c74.667 0 131.5 -25.5 170.5 -76.5s58.5 -121.167 58.5 -210.5z" />
    <glyph glyph-name="hyphen" unicode="-" horiz-adv-x="776" 
d="M691 435h-606v221h606v-221z" />
    <glyph glyph-name="hyphen" unicode="&#xad;" horiz-adv-x="776" 
d="M691 435h-606v221h606v-221z" />
    <glyph glyph-name="period" unicode="." horiz-adv-x="672" 
d="M534 166c0 -52.667 -19.5 -98.332 -58.5 -136.999s-85.167 -58 -138.5 -58c-54 0 -100.5 19.167 -139.5 57.5s-58.5 84.166 -58.5 137.499s19.5 99.5 58.5 138.5s85.5 58.5 139.5 58.5c53.333 0 99.5 -19.667 138.5 -59s58.5 -85.333 58.5 -138z" />
    <glyph glyph-name="slash" unicode="/" horiz-adv-x="966" 
d="M898 1523l-691 -1947h-180l689 1947h182z" />
    <glyph glyph-name="zero" unicode="0" horiz-adv-x="1436" 
d="M1184 1106c50.667 -62.667 88.1631 -134.332 112.496 -214.999s36.5 -165.334 36.5 -254.001c0 -105.333 -15 -199.833 -45 -283.5s-71.667 -153.5 -125 -209.5c-55.333 -59.333 -119.666 -104 -192.999 -134s-157.666 -45 -252.999 -45
c-100.667 0 -189.5 17.667 -266.5 53s-141.167 83 -192.5 143c-50.667 60 -89.167 130.667 -115.5 212s-39.5 169.333 -39.5 264c0 94 12.5 180.333 37.5 259s63.5 150 115.5 214c50.667 62 115 110.833 193 146.5s167.667 53.5 269 53.5
c104.667 0 195.834 -18.5 273.501 -55.5s141.834 -86.5 192.501 -148.5zM901.996 211.002c19.333 52.667 33.1689 113.669 41.502 183.002s12.5 150.333 12.5 243c0 83.333 -3.83301 160.833 -11.5 232.5s-20.5 133.5 -38.5 185.5
c-18.667 52.667 -43.334 93.667 -74.001 123s-68.334 44 -113.001 44c-45.333 0 -83.333 -14.333 -114 -43s-55.667 -69.334 -75 -122.001c-18 -51.333 -30.833 -113.333 -38.5 -186s-11.5 -150.667 -11.5 -234c0 -87.333 3.5 -164 10.5 -230s19.833 -127 38.5 -183
c17.333 -52.667 41.5 -94.334 72.5 -125.001s69.5 -46 115.5 -46c42.667 0 79.667 14 111 42s56 66.667 74 116z" />
    <glyph glyph-name="one" unicode="1" horiz-adv-x="1003" 
d="M946 0l-824.999 0.00195312v76c20 1.33301 51.833 4.66602 95.5 9.99902s73.5 10.666 89.5 15.999c20 6.66699 35.667 18 47 34s17 38 17 66v835h-253v95h55c58 0 108 6.33301 150 19s77.333 28 106 46c28.667 18.667 52.167 38 70.5 58s32.833 37.667 43.5 53h176
c-2 -43.333 -4 -94 -6 -152s-3 -110 -3 -156v-787c0 -24 5.16699 -44.833 15.5 -62.5s25.166 -31.167 44.499 -40.5c17.333 -8 46.333 -15.333 87 -22s70.667 -10.667 90 -12v-76z" />
    <glyph glyph-name="two" unicode="2" horiz-adv-x="1283" 
d="M1194 0h-1084v181c51.333 54 120.833 113 208.5 177s157.167 117 208.5 159c23.333 18.667 51 44.167 83 76.5s57 63.166 75 92.499c23.333 37.333 41.5 75.833 54.5 115.5s19.5 87.5 19.5 143.5c0 84.667 -20 151.334 -60 200.001s-93 73 -159 73
c-20.667 0 -40.167 -1.5 -58.5 -4.5s-37.5 -8.5 -57.5 -16.5c10 -30 19.667 -61 29 -93s14 -67.667 14 -107c0 -47.333 -17 -85 -51 -113s-77.333 -42 -130 -42c-50 0 -89.833 16.333 -119.5 49s-44.5 72.334 -44.5 119.001c0 81.333 47.333 151.666 142 210.999
s210 89 346 89c157.333 0 284.5 -32 381.5 -96s145.5 -156 145.5 -276c0 -74.667 -14.167 -139 -42.5 -193s-64.833 -100 -109.5 -138c-43.333 -36 -93.166 -68.167 -149.499 -96.5s-106.166 -51.5 -149.499 -69.5l-172 -73.5l-187 -82.5v-11h867v-274z" />
    <glyph glyph-name="three" unicode="3" horiz-adv-x="1279" 
d="M1036 537c40 -26.667 73.3301 -62.166 99.9971 -106.499s40 -98.833 40 -163.5c0 -124.667 -59.667 -228.334 -179 -311.001s-273 -124 -461 -124c-134.667 0 -249 28.833 -343 86.5s-141 128.5 -141 212.5c0 47.333 15.167 87.333 45.5 120s70.833 49 121.5 49
c52.667 0 95.834 -14.167 129.501 -42.5s50.5 -66.166 50.5 -113.499c0 -32.667 -5.83301 -69.167 -17.5 -109.5s-20.834 -70.166 -27.501 -89.499c14.667 -6.66699 33.667 -11.834 57 -15.501s50.666 -5.5 81.999 -5.5c38.667 0 76.5 6.33301 113.5 19
s69.167 33.334 96.5 62.001c28.667 30 50.834 65.167 66.501 105.5s23.5 93.833 23.5 160.5c0 38 -3.5 74 -10.5 108s-19.833 63.667 -38.5 89s-44.167 45.166 -76.5 59.499s-73.5 21.5 -123.5 21.5h-127v121h90c84 0 144.833 24.833 182.5 74.5s56.5 125.5 56.5 227.5
c0 82 -18.167 143.5 -54.5 184.5s-88.833 61.5 -157.5 61.5c-26 0 -48.667 -1.5 -68 -4.5s-39 -8.5 -59 -16.5c7.33301 -22.667 16.333 -54.334 27 -95.001s16 -75.334 16 -104.001c0 -47.333 -16.333 -85 -49 -113s-75.334 -42 -128.001 -42
c-50 0 -89.833 16.333 -119.5 49s-44.5 72.334 -44.5 119.001c0 82.667 47.833 153.167 143.5 211.5s215.834 87.5 360.501 87.5c100 0 182.833 -11.667 248.5 -35s117.5 -52 155.5 -86c36.667 -34 62.334 -70 77.001 -108s22 -72.333 22 -103c0 -29.333 -6 -62.5 -18 -99.5
s-30.333 -69.5 -55 -97.5c-29.333 -34 -67.666 -63.333 -114.999 -88s-102.666 -43.667 -165.999 -57v-16c43.333 -2.66699 90 -10.667 140 -24s94.667 -33 134 -59z" />
    <glyph glyph-name="four" unicode="4" horiz-adv-x="1330" 
d="M1261 211h-215v-379h-335v379h-662v184l718 909h279v-882h215v-211zM711 422v643l-509 -643h509z" />
    <glyph glyph-name="five" unicode="5" horiz-adv-x="1227" 
d="M964 675c50.667 -32.667 92.8301 -77.3359 126.497 -134.003s50.5 -126.667 50.5 -210c0 -146.667 -56.833 -266.5 -170.5 -359.5s-258.834 -139.5 -435.501 -139.5c-136.667 0 -250.667 29.333 -342 88s-137 128 -137 208c0 47.333 15.167 87.333 45.5 120
s70.833 49 121.5 49c52.667 0 95.834 -14.167 129.501 -42.5s50.5 -66.166 50.5 -113.499c0 -33.333 -5.66699 -69.666 -17 -108.999s-20.666 -69.333 -27.999 -90c16 -6 34.667 -10.5 56 -13.5s41.333 -4.5 60 -4.5c38 0 75.333 8.5 112 25.5s68 41.833 94 74.5
c30 37.333 52.667 81.5 68 132.5s23 108.833 23 173.5c0 94 -25.167 171.167 -75.5 231.5s-115.5 90.5 -195.5 90.5c-62 0 -114 -12.5 -156 -37.5s-79.667 -57.833 -113 -98.5l-78 26l97 736h845v-276h-773l-41 -330c36 22.667 82.333 44.334 139 65.001
s123.334 31 200.001 31c59.333 0 117.833 -6.5 175.5 -19.5s113.834 -37.5 168.501 -73.5z" />
    <glyph glyph-name="six" unicode="6" horiz-adv-x="1327" 
d="M1243 463c0 -141.333 -53.1689 -259.667 -159.502 -355s-242.166 -143 -407.499 -143c-172.667 0 -311.334 54.167 -416.001 162.5s-157 253.833 -157 436.5c0 244 82.333 445.667 247 605s388.334 255.666 671.001 288.999l23 -99l-106 -18
c-80.667 -22 -148.167 -52.167 -202.5 -90.5s-99.166 -82.166 -134.499 -131.499c-34 -47.333 -60.667 -100.833 -80 -160.5s-34 -118.5 -44 -176.5c58 52 115.5 87 172.5 105s118.167 27 183.5 27c114.667 0 211.667 -41.833 291 -125.5s119 -192.167 119 -325.5z
M872.998 435.999c0 105.333 -18.5 189 -55.5 251s-86.5 93 -148.5 93c-41.333 0 -77.166 -7 -107.499 -21s-60.833 -43.333 -91.5 -88c0 -3.33301 -0.166992 -9.16602 -0.5 -17.499s-0.833008 -19.166 -1.5 -32.499c-0.666992 -14.667 -1.16699 -28.334 -1.5 -41.001
s-0.5 -23.334 -0.5 -32.001c0 -160 19.5 -282.5 58.5 -367.5s89.167 -127.5 150.5 -127.5c59.333 0 107.166 33.333 143.499 100s54.5 161 54.5 283z" />
    <glyph glyph-name="seven" unicode="7" horiz-adv-x="1135" 
d="M1144 1159l-728 -1327h-150l674 1177h-458c-58 0 -103.333 -0.333008 -136 -1s-62.667 -7.33398 -90 -20.001c-22 -10.667 -40.833 -34 -56.5 -70s-28.167 -80.333 -37.5 -133h-73v493h1055v-119z" />
    <glyph glyph-name="eight" unicode="8" horiz-adv-x="1385" 
d="M1281 397c0 -122.667 -54.832 -225.663 -164.499 -308.996s-258.834 -125 -447.501 -125c-168.667 0 -305 35.667 -409 107s-156 162.666 -156 273.999c0 86 27.833 156.833 83.5 212.5s143.5 97.5 263.5 125.5c-96 43.333 -168.5 98 -217.5 164s-73.5 139.667 -73.5 221
c0 111.333 53.167 204.666 159.5 279.999s237.833 113 394.5 113c152 0 275.167 -33.333 369.5 -100s141.5 -149.334 141.5 -248.001c0 -76 -25.667 -139.833 -77 -191.5s-128 -92.834 -230 -123.501c128 -46 220.5 -102.5 277.5 -169.5s85.5 -143.833 85.5 -230.5z
M891.001 1114c0 77.333 -17.1699 139.836 -51.5029 187.503s-82.166 71.5 -143.499 71.5c-58 0 -106 -20.333 -144 -61s-57 -92.667 -57 -156c0 -44 8.33301 -80.833 25 -110.5s40.334 -55.5 71.001 -77.5c28 -20.667 67.5 -43.334 118.5 -68.001l136.5 -67
c14.667 33.333 25.834 74.166 33.501 122.499s11.5 101.166 11.5 158.499zM944.998 296.007c0 46.667 -9.99902 85.332 -29.999 115.999s-48.667 58.334 -86 83.001c-37.333 24 -84.833 48.667 -142.5 74s-112.5 51 -164.5 77c-22 -26 -41.333 -65 -58 -117
s-25 -107 -25 -165c0 -98 23.667 -174.667 71 -230s109.666 -83 186.999 -83s138 22.667 182 68s66 104.333 66 177z" />
    <glyph glyph-name="nine" unicode="9" horiz-adv-x="1327" 
d="M1224 709c0 -242.667 -81.999 -441.17 -245.999 -595.503s-388 -250.166 -672 -287.499l-23 99l106 18c82 23.333 150 53.333 204 90s98.333 79.334 133 128.001c36 50 63.333 103 82 159s32.667 113.667 42 173c-58.667 -51.333 -115.5 -85.166 -170.5 -101.499
s-116.833 -24.5 -185.5 -24.5c-57.333 0 -111 11.167 -161 33.5s-93.333 53.5 -130 93.5c-37.333 40 -66.5 88.167 -87.5 144.5s-31.5 117.5 -31.5 183.5c0 140.667 54 257.167 162 349.5s243 138.5 405 138.5c175.333 0 314.666 -54.333 417.999 -163
s155 -254.667 155 -438zM859.001 653.997c0 9.33301 0.331055 20.6689 0.998047 34.002s1 26.333 1 39c0 160 -19.167 282.5 -57.5 367.5s-88.166 127.5 -149.499 127.5c-59.333 0 -107.5 -32.333 -144.5 -97s-55.5 -158 -55.5 -280c0 -106.667 18.833 -191.667 56.5 -255
s87.167 -95 148.5 -95c38.667 0 74.334 7.66699 107.001 23s63 44 91 86c0 3.33301 0.333008 9.16602 1 17.499s1 19.166 1 32.499z" />
    <glyph glyph-name="colon" unicode=":" horiz-adv-x="752" 
d="M574 799c0 -52.667 -19.5 -98.332 -58.5 -136.999s-85.167 -58 -138.5 -58c-54 0 -100.5 19.167 -139.5 57.5s-58.5 84.166 -58.5 137.499s19.5 99.5 58.5 138.5s85.5 58.5 139.5 58.5c53.333 0 99.5 -19.667 138.5 -59s58.5 -85.333 58.5 -138zM574 166.002
c0 -52.667 -19.5 -98.332 -58.5 -136.999s-85.167 -58 -138.5 -58c-54 0 -100.5 19.167 -139.5 57.5s-58.5 84.166 -58.5 137.499s19.5 99.5 58.5 138.5s85.5 58.5 139.5 58.5c53.333 0 99.5 -19.667 138.5 -59s58.5 -85.333 58.5 -138z" />
    <glyph glyph-name="semicolon" unicode=";" horiz-adv-x="752" 
d="M574 799c0 -52.667 -19.5 -98.332 -58.5 -136.999s-85.167 -58 -138.5 -58c-54 0 -100.5 19.167 -139.5 57.5s-58.5 84.166 -58.5 137.499s19.5 99.5 58.5 138.5s85.5 58.5 139.5 58.5c53.333 0 99.5 -19.667 138.5 -59s58.5 -85.333 58.5 -138zM579 53.002
c0 -81.333 -34 -164.5 -102 -249.5s-149.667 -149.167 -245 -192.5l-44 71c32.667 17.333 63.5 36 92.5 56s54.833 43.333 77.5 70c23.333 28 41.833 56.5 55.5 85.5s22.167 64.5 25.5 106.5h-56c-68 0 -119.333 15.333 -154 46s-52 73 -52 127
c0 42.667 16.667 81.167 50 115.5s74.333 51.5 123 51.5c74.667 0 131.5 -25.5 170.5 -76.5s58.5 -121.167 58.5 -210.5z" />
    <glyph glyph-name="less" unicode="&#x3c;" horiz-adv-x="1440" 
d="M1209 6l-1000 500v139l1000 500v-188l-786 -382l786 -381v-188z" />
    <glyph glyph-name="equal" unicode="=" horiz-adv-x="1440" 
d="M1255 700h-1070v163h1070v-163zM1255 286h-1070v163h1070v-163z" />
    <glyph glyph-name="greater" unicode="&#x3e;" horiz-adv-x="1440" 
d="M1231 506l-1000 -500v188l786 381l-786 382v188l1000 -500v-139z" />
    <glyph glyph-name="question" unicode="?" horiz-adv-x="1123" 
d="M1016 1037c0 -134 -46.001 -242.666 -138.001 -325.999s-214.667 -131 -368 -143l-6 -136h-89v389c96.667 8 172.334 38.5 227.001 91.5s82 125.167 82 216.5c0 72.667 -19.167 130.834 -57.5 174.501s-89.833 65.5 -154.5 65.5c-27.333 0 -51.666 -2.83301 -72.999 -8.5
s-42 -14.5 -62 -26.5c6.66699 -21.333 14.5 -48.833 23.5 -82.5s13.5 -64.834 13.5 -93.501c0 -46.667 -15.167 -82.834 -45.5 -108.501s-72.5 -38.5 -126.5 -38.5c-50.667 0 -90.5 16 -119.5 48s-43.5 71.333 -43.5 118c0 76.667 43.667 141.667 131 195
s192.666 80 315.999 80c146 0 264.167 -38 354.5 -114s135.5 -176.333 135.5 -301zM655.999 156.001c0 -50.667 -19.167 -94.167 -57.5 -130.5s-83.166 -54.5 -134.499 -54.5c-52 0 -97.167 18.167 -135.5 54.5s-57.5 79.833 -57.5 130.5s19.167 94.5 57.5 131.5
s83.5 55.5 135.5 55.5c51.333 0 96.166 -18.5 134.499 -55.5s57.5 -80.833 57.5 -131.5z" />
    <glyph glyph-name="at" unicode="@" horiz-adv-x="1980" 
d="M1658 1173c58 -61.333 101.162 -131.502 129.495 -210.502s42.5 -160.833 42.5 -245.5c0 -168 -47.5 -310.333 -142.5 -427s-213.167 -175 -354.5 -175c-73.333 0 -133.666 12.5 -180.999 37.5s-77.666 56.833 -90.999 95.5h-5l-48.5 -50.5
c-17 -17 -35.167 -31.167 -54.5 -42.5c-21.333 -12 -41.333 -20.833 -60 -26.5s-43.667 -8.5 -75 -8.5c-82 0 -145.833 25.833 -191.5 77.5s-68.5 119.834 -68.5 204.501c0 64 13.5 129.833 40.5 197.5s63.833 129.5 110.5 185.5c45.333 54 100 98.5 164 133.5
s130.333 52.5 199 52.5c46 0 80.833 -8.16699 104.5 -24.5s41.167 -41.166 52.5 -74.499h2l32 87h257l-201 -555c-5.33301 -13.333 -10.166 -32 -14.499 -56s-6.5 -42.333 -6.5 -55c0 -27.333 6 -48.833 18 -64.5s31 -23.5 57 -23.5c104.667 0 188.667 48.167 252 144.5
s95 222.5 95 378.5c0 78 -13 150 -39 216s-64.667 123.667 -116 173s-115.666 88.166 -192.999 116.499s-165.666 42.5 -264.999 42.5c-95.333 0 -187.5 -17.833 -276.5 -53.5s-169.833 -88.167 -242.5 -157.5c-71.333 -67.333 -128.833 -149.833 -172.5 -247.5
s-65.5 -206.834 -65.5 -327.501c0 -118 17.333 -221.833 52 -311.5s82.334 -164.5 143.001 -224.5c61.333 -60.667 133.333 -106.334 216 -137.001s174 -46 274 -46c114 0 215 14.833 303 44.5s166.667 71.5 236 125.5l39 -62c-76 -60.667 -161.5 -109.5 -256.5 -146.5
s-204.5 -55.5 -328.5 -55.5c-104.667 0 -210 16.833 -316 50.5s-199.333 83.5 -280 149.5c-82 66 -148.167 149.333 -198.5 250s-75.5 217.334 -75.5 350.001c0 116.667 22.667 228.834 68 336.501s109.666 203.5 192.999 287.5c82 82.667 183.167 149.334 303.5 200.001
s251.5 76 393.5 76c125.333 0 232.5 -18.5 321.5 -55.5s162.5 -86.5 220.5 -148.5zM1189 759.998c-0.666992 36.667 -9.83203 66.667 -27.499 90s-43.834 35 -78.501 35c-33.333 0 -65.5 -15 -96.5 -45s-58.833 -69.333 -83.5 -118c-24 -48 -43.167 -102.833 -57.5 -164.5
s-21.5 -122.167 -21.5 -181.5c0 -45.333 6.5 -80 19.5 -104s33.833 -36 62.5 -36c25.333 0 48 6.5 68 19.5s40.667 34.167 62 63.5z" />
    <glyph glyph-name="A" unicode="A" horiz-adv-x="1553" 
d="M1609 0l-773 0.000976562v78c36 2.66699 78.333 9.16699 127 19.5s73 23.166 73 38.499c0 5.33301 -0.5 11.333 -1.5 18s-3.83301 15.667 -8.5 27l-121 294h-490c-11.333 -27.333 -23.833 -59.333 -37.5 -96l-35.5 -98c-12.667 -37.333 -20.167 -64.333 -22.5 -81
s-3.5 -28.334 -3.5 -35.001c0 -21.333 16.167 -39.5 48.5 -54.5s86.166 -25.833 161.499 -32.5v-78h-582v78c22 1.33301 46.833 4.83301 74.5 10.5s49.5 13.5 65.5 23.5c27.333 16 50.5 35.667 69.5 59s34.833 51 47.5 83l232.5 563l257.5 622h200l307 -762l189 -464
c8.66699 -20 19.667 -38.167 33 -54.5s32.333 -31.833 57 -46.5c18.667 -10.667 40.334 -18.667 65.001 -24s47 -8.66602 67 -9.99902v-78zM864 574.001l-206 514l-203 -514h409z" />
    <glyph glyph-name="B" unicode="B" horiz-adv-x="1551" 
d="M1322 651c42.667 -29.333 77.333 -66.166 104 -110.499s40 -96.5 40 -156.5c0 -72 -15.167 -132.833 -45.5 -182.5s-73.833 -88.834 -130.5 -117.501c-60 -30.667 -129.167 -52.334 -207.5 -65.001s-170.5 -19 -276.5 -19h-737v78c20.667 2 46.667 5 78 9
s53.333 8.66699 66 14c24.667 10 41.5 23.167 50.5 39.5s13.5 37.5 13.5 63.5v1000c0 24 -3.66699 44 -11 60s-25 30 -53 42c-20.667 8.66699 -44.667 15.834 -72 21.501s-51.333 10.167 -72 13.5v78h771c194 0 334 -26.667 420 -80s129 -132 129 -236
c0 -48 -9.66699 -90.167 -29 -126.5s-47 -67.833 -83 -94.5c-32.667 -24.667 -71.667 -46 -117 -64s-94 -33 -146 -45v-19c52 -5.33301 106 -16.833 162 -34.5s104.667 -40.5 146 -68.5zM999.999 1078c0 78.667 -22.167 140 -66.5 184s-110.833 66 -199.5 66
c-12.667 0 -29.167 -0.5 -49.5 -1.5l-52.5 -2.5v-526h52c108 0 187.667 25.167 239 75.5s77 118.5 77 204.5zM1070 397c0 98.667 -29.333 174.333 -88 227s-143 79 -253 79c-12.667 0 -29.5 -0.5 -50.5 -1.5s-36.5 -1.83301 -46.5 -2.5v-519
c6 -24.667 24.667 -45.5 56 -62.5s69.333 -25.5 114 -25.5c79.333 0 143.833 26.667 193.5 80s74.5 128.333 74.5 225z" />
    <glyph glyph-name="C" unicode="C" horiz-adv-x="1465" 
d="M813 -38c-104 0 -201.333 16.833 -292 50.5s-169.667 82.5 -237 146.5c-66 62.667 -118 140.167 -156 232.5s-57 193.833 -57 304.5c0 110 19.167 211.833 57.5 305.5s92.166 174.834 161.499 243.501c68 67.333 149.667 119.5 245 156.5s197.333 55.5 306 55.5
c78.667 0 150.334 -9.5 215.001 -28.5s119.334 -40.5 164.001 -64.5l62 55h87l9 -518h-88c-50 158 -110 274 -180 348s-155.333 111 -256 111c-125.333 0 -220.666 -55.167 -285.999 -165.5s-98 -265.166 -98 -464.499c0 -112.667 11.167 -208.834 33.5 -288.501
s51.5 -143.834 87.5 -192.501c38.667 -50.667 84.334 -87.834 137.001 -111.501s111 -35.5 175 -35.5c93.333 0 176.5 25.333 249.5 76s139.5 127.334 199.5 230.001l86 -52c-28.667 -58.667 -61.334 -111.167 -98.001 -157.5s-79 -86.166 -127 -119.499
c-52.667 -36.667 -110.834 -65.334 -174.501 -86.001s-138.834 -31 -225.501 -31z" />
    <glyph glyph-name="D" unicode="D" horiz-adv-x="1708" 
d="M1347 1273c86.667 -56.667 156.666 -132.165 209.999 -226.498s80 -209.833 80 -346.5c0 -120 -23.833 -224.5 -71.5 -313.5s-110.834 -161.833 -189.501 -218.5c-80 -56.667 -170.833 -98.834 -272.5 -126.501s-208.167 -41.5 -319.5 -41.5h-715v78
c21.333 0.666992 48 2.66699 80 6s53.333 7.33301 64 12c24 10 40.667 23.5 50 40.5s14 37.5 14 61.5v1006c0 22.667 -4.33301 43.167 -13 61.5s-25.667 33.166 -51 44.499s-52.166 19 -80.499 23s-50.166 6.66699 -65.499 8v78h755c80.667 0 167 -10.333 259 -31
s180.667 -59 266 -115zM1143 256.002c32.667 53.333 56.5039 116.833 71.5039 190.5s22.5 158.5 22.5 254.5c0 94 -10 179.667 -30 257s-49.333 143.333 -88 198s-86.834 97 -144.501 127s-123.167 45 -196.5 45c-23.333 0 -49.833 -0.5 -79.5 -1.5
s-51.834 -1.83301 -66.501 -2.5v-1077c0 -24 3.16699 -45.167 9.5 -63.5s17.166 -34.5 32.499 -48.5s34.166 -24.833 56.499 -32.5s51.5 -11.5 87.5 -11.5c75.333 0 140 14 194 42s97.667 69 131 123z" />
    <glyph glyph-name="E" unicode="E" horiz-adv-x="1477" 
d="M1327 1057l-76.0029 -0.00292969c-19.333 54 -52.666 108.667 -99.999 164s-94.333 88 -141 98c-20 4.66699 -47.833 7.5 -83.5 8.5s-65.167 1.5 -88.5 1.5h-206v-548h146c36.667 0 70 4.33301 100 13s57.333 25.334 82 50.001c15.333 15.333 30.833 42.333 46.5 81
s25.834 72.334 30.501 101.001h76v-592h-76c-4 28 -14.167 63.167 -30.5 105.5s-31.833 71.5 -46.5 87.5c-22 24 -48 40.5 -78 49.5s-64.667 13.5 -104 13.5h-146v-409c0 -42.667 3.16699 -76.5 9.5 -101.5s18.166 -44.167 35.499 -57.5c16.667 -12.667 39.5 -21 68.5 -25
s68.5 -6 118.5 -6c23.333 0 51.333 0.333008 84 1s61.334 2.66699 86.001 6c28 3.33301 54.167 8.33301 78.5 15s42.5 16.334 54.5 29.001c32 32.667 68 82.5 108 149.5s66.333 117.167 79 150.5h73l-27 -442h-1331v78c18.667 1.33301 44 4 76 8s54.667 8.66699 68 14
c25.333 10.667 42.333 24.167 51 40.5s13 37.166 13 62.499v1001c0 24 -3.66699 43.833 -11 59.5s-25 29.834 -53 42.501c-17.333 8 -41.666 15.333 -72.999 22s-55 11 -71 13v78h1258v-362z" />
    <glyph glyph-name="F" unicode="F" horiz-adv-x="1375" 
d="M1344 1040l-77.001 0.00195312c-19.333 55.333 -53.5 114.166 -102.5 176.499s-95.5 96.5 -139.5 102.5c-20 2.66699 -46.667 5 -80 7s-64 3 -92 3h-221v-557h141c40 0 74.667 4.5 104 13.5s55.333 25.167 78 48.5c16.667 16.667 32.834 44.5 48.501 83.5
s25.167 72.5 28.5 100.5h76v-597h-76c-2.66699 30 -13 66.5 -31 109.5s-33.333 71.5 -46 85.5c-19.333 21.333 -44 37.166 -74 47.499s-66 15.5 -108 15.5h-141v-470c0 -24 4.5 -44.5 13.5 -61.5s26.167 -30.833 51.5 -41.5c14.667 -6 34.834 -11.5 60.501 -16.5
s51.167 -8.83301 76.5 -11.5v-78h-765v78c19.333 2 45 4.83301 77 8.5s54.333 8.16699 67 13.5c24 9.33301 40.667 22.333 50 39s14 38 14 64v1001c0 22.667 -4.16699 42.5 -12.5 59.5s-25.5 31.167 -51.5 42.5c-18.667 8 -43.334 15.333 -74.001 22s-54 11 -70 13v78h1275
v-379z" />
    <glyph glyph-name="G" unicode="G" horiz-adv-x="1653" 
d="M1649 577c-20.667 -2 -39.0029 -4.33203 -55.0029 -6.99902s-36 -8 -60 -16c-27.333 -8.66699 -45.333 -23 -54 -43s-13 -41 -13 -63v-165c0 -33.333 0.333008 -60.166 1 -80.499s1.66699 -45.5 3 -75.5c-66.667 -40 -165.167 -77.667 -295.5 -113
s-250.166 -53 -359.499 -53c-102.667 0 -199 15.667 -289 47s-169 78.333 -237 141c-68 62 -121.5 139 -160.5 231s-58.5 197.333 -58.5 316c0 110.667 18.333 213 55 307s89.667 175 159 243c68 67.333 150.833 119.333 248.5 156s205.834 55 324.501 55
c80.667 0 155.334 -9.83301 224.001 -29.5s125.334 -40.834 170.001 -63.501l62 55h87l9 -518h-88c-50.667 155.333 -111.334 270.666 -182.001 345.999s-160 113 -268 113c-128 0 -226.833 -56 -296.5 -168s-104.5 -266.333 -104.5 -463c0 -208.667 34.167 -372 102.5 -490
s165.166 -177 290.499 -177c58.667 0 110.834 8.83301 156.501 26.5s81.167 38.167 106.5 61.5v288c0 24 -4.33301 44.167 -13 60.5s-26 30.5 -52 42.5c-20 9.33301 -45 17 -75 23s-55 10.333 -75 13v78h737v-78z" />
    <glyph glyph-name="H" unicode="H" horiz-adv-x="1870" 
d="M1801 0l-767 -0.00292969v78l73 6c32 2.66699 54 6.66699 66 12c24.667 10 41.667 23.167 51 39.5s14 37.166 14 62.499v489h-606v-478c0 -22.667 4.83301 -43 14.5 -61s26.167 -32 49.5 -42c12.667 -5.33301 34.334 -11 65.001 -17s55.667 -9.66699 75 -11v-78h-767v78
c16.667 0.666992 41.167 2.83398 73.5 6.50098s55.833 8.16699 70.5 13.5c24 8.66699 40.667 21.834 50 39.501s14 38.5 14 62.5v1004c0 23.333 -4.16699 43 -12.5 59s-25.5 30 -51.5 42c-19.333 8.66699 -44.666 16.5 -75.999 23.5s-54 11.167 -68 12.5v78h767v-78
c-20.667 -1.33301 -45.334 -4.66602 -74.001 -9.99902s-50.667 -10.333 -66 -15c-26 -8.66699 -43.167 -22.5 -51.5 -41.5s-12.5 -39.167 -12.5 -60.5v-424h606v414c0 23.333 -4.33301 43 -13 59s-26 30 -52 42c-17.333 8 -40.5 15.5 -69.5 22.5s-52.167 11.5 -69.5 13.5v78
h767v-78c-21.333 -1.33301 -45.333 -4.16602 -72 -8.49902s-50.667 -9.83301 -72 -16.5c-25.333 -8.66699 -42.333 -22.334 -51 -41.001s-13 -39 -13 -61v-1005c0 -24 4.33301 -44.333 13 -61s25.667 -30.667 51 -42c16 -6.66699 39.167 -12.667 69.5 -18
s55.166 -8.66602 74.499 -9.99902v-78z" />
    <glyph glyph-name="I" unicode="I" horiz-adv-x="913" 
d="M850 0l-787 0.000976562v78l79.5 6c35 2.66699 59.167 6.66699 72.5 12c24.667 10 41.5 23.167 50.5 39.5s13.5 37.166 13.5 62.499v1006c0 22.667 -4.33301 42.667 -13 60s-25.667 31.333 -51 42c-16 6.66699 -39.667 13.5 -71 20.5s-58.333 11.833 -81 14.5v78h787v-78
c-20 -2 -45 -4.83301 -75 -8.5s-55.333 -8.83398 -76 -15.501c-26 -8.66699 -43.333 -22.167 -52 -40.5s-13 -39.166 -13 -62.499v-1005c0 -24 4.5 -44.5 13.5 -61.5s26.167 -30.833 51.5 -41.5c14 -6 37.167 -11.833 69.5 -17.5s59.5 -9.16699 81.5 -10.5v-78z" />
    <glyph glyph-name="J" unicode="J" horiz-adv-x="1219" 
d="M1166 1341c-26.667 -3.33301 -49.334 -6.66797 -68.001 -10.001s-39.667 -8 -63 -14c-27.333 -7.33301 -44.833 -20.333 -52.5 -39s-11.5 -40 -11.5 -64v-782c0 -72 -14.5 -138 -43.5 -198s-68.833 -110.333 -119.5 -151c-51.333 -40 -108.666 -70.167 -171.999 -90.5
s-131 -30.5 -203 -30.5c-124.667 0 -225.167 30 -301.5 90s-114.5 142.333 -114.5 247c0 62 17.5 113.333 52.5 154s83.167 61 144.5 61c58 0 104.167 -17 138.5 -51s51.5 -76 51.5 -126c0 -42.667 -14.833 -82.167 -44.5 -118.5s-63.5 -69.833 -101.5 -100.5v-13
c6 -13.333 19 -24.666 39 -33.999s40.333 -14 61 -14c80 0 142.833 28.667 188.5 86s68.5 144 68.5 260v801c0 24 -3.66699 44 -11 60s-25 30 -53 42c-20 8.66699 -44.167 16 -72.5 22s-51.833 10.333 -70.5 13v78h758v-78z" />
    <glyph glyph-name="K" unicode="K" horiz-adv-x="1673" 
d="M1736 0l-561.998 0.000976562c-84.667 130 -161 238.667 -229 326l-261 329h-52v-446c0 -24 4.33301 -44.333 13 -61s26 -30.667 52 -42c12 -5.33301 29.833 -10.666 53.5 -15.999s47.167 -9.33301 70.5 -12v-78h-754v78c18 1.33301 43.5 3.33301 76.5 6
s56.167 6.66699 69.5 12c24 9.33301 40.667 22.333 50 39s14 37.667 14 63v1006c0 23.333 -4 43 -12 59s-25.333 30.333 -52 43c-20.667 9.33301 -45.667 17 -75 23s-53 10 -71 12v78h779v-78c-20.667 -2 -45.5 -4.83301 -74.5 -8.5s-53.833 -8.83398 -74.5 -15.501
c-26 -8.66699 -43.333 -22.334 -52 -41.001s-13 -39.334 -13 -62.001v-478h42l182 171c69.333 66.667 123 121.334 161 164.001c53.333 59.333 92.5 106.333 117.5 141s37.5 64.667 37.5 90c0 11.333 -12 20 -36 26s-60.667 10.333 -110 13v78h617v-78
c-74.667 -8 -137.334 -21.5 -188.001 -40.5s-101 -50.833 -151 -95.5c-71.333 -64 -130.166 -119.5 -176.499 -166.5l-178.5 -180.5l231 -286.5l269 -330.5c22.667 -27.333 48.667 -53.5 78 -78.5s61.666 -45.167 96.999 -60.5c16.667 -7.33301 35.667 -13 57 -17
s39.666 -6.33301 54.999 -7v-78z" />
    <glyph glyph-name="L" unicode="L" horiz-adv-x="1404" 
d="M1404 455l-27.998 -455h-1307v78c23.333 2 50.666 5.16699 81.999 9.5s52 8.5 62 12.5c24 9.33301 40.667 22.333 50 39s14 38 14 64v1001c0 24 -3.66699 43.833 -11 59.5s-25 29.834 -53 42.501c-20.667 9.33301 -45.5 16.833 -74.5 22.5s-52.167 9.83398 -69.5 12.501
v78h779v-78c-21.333 -2 -46.5 -4.83301 -75.5 -8.5s-54.167 -8.83398 -75.5 -15.501c-26 -8.66699 -43.333 -22.167 -52 -40.5s-13 -39.166 -13 -62.499v-933c0 -44 3 -78.667 9 -104s17.667 -44 35 -56c17.333 -12.667 41.5 -20.834 72.5 -24.501s73.833 -5.5 128.5 -5.5
c53.333 0 105.166 3.16699 155.499 9.5s86.5 20.166 108.5 41.499c34 34 68.833 81.833 104.5 143.5s64.167 118.167 85.5 169.5h73z" />
    <glyph glyph-name="M" unicode="M" horiz-adv-x="2096" 
d="M2019 0l-769.003 0.00195312v78c22.667 2 50.5 5.33301 83.5 10s55.5 9.66699 67.5 15c24.667 10 42.334 23.667 53.001 41s16 39.333 16 66v1060l-488 -1247h-126c-6 22 -20.833 65.667 -44.5 131l-57.5 157l-359 975v-863c0 -82.667 5.5 -145.5 16.5 -188.5
s28.833 -74.5 53.5 -94.5c16.667 -14 46.5 -27.333 89.5 -40s73.167 -20 90.5 -22v-78h-610v78c16.667 2 43.834 6.5 81.501 13.5s68.5 19.167 92.5 36.5c26.667 18.667 44.667 50.167 54 94.5s14 107.5 14 189.5v703c0 42.667 -5.33301 78.167 -16 106.5
s-26.667 50.833 -48 67.5c-26.667 20.667 -54 34 -82 40s-56.333 10 -85 12v78h653l350 -937l295 761c10 28 19.667 61.333 29 100s14.333 64 15 76h629v-78c-21.333 -1.33301 -43.666 -4 -66.999 -8s-45.666 -9.33301 -66.999 -16
c-26 -8.66699 -43.167 -22.334 -51.5 -41.001s-12.5 -39.334 -12.5 -62.001v-1005c0 -24 4.16699 -44.167 12.5 -60.5s25.5 -30.5 51.5 -42.5c13.333 -6 35.166 -11.667 65.499 -17s53.833 -9 70.5 -11v-78z" />
    <glyph glyph-name="N" unicode="N" horiz-adv-x="1719" 
d="M1699 1341c-18.667 -2 -45.334 -5.66602 -80.001 -10.999s-66 -18.333 -94 -39c-24.667 -18 -42.167 -48.833 -52.5 -92.5s-15.5 -107.834 -15.5 -192.501v-1014h-178l-884 1097v-666c0 -82.667 5.5 -145.5 16.5 -188.5s28.833 -74.5 53.5 -94.5
c18 -14.667 46.667 -27.667 86 -39s70.666 -19 93.999 -23v-78h-610v78c26 2 55.833 6.83301 89.5 14.5s61.834 19.5 84.501 35.5c26 19.333 43.833 48.5 53.5 87.5s14.5 104.5 14.5 196.5v672c0 33.333 -5.16699 64.833 -15.5 94.5s-26.5 55.167 -48.5 76.5
c-23.333 22.667 -50.166 40.5 -80.499 53.5s-64.833 23.167 -103.5 30.5v80h534l776 -960v537c0 85.333 -5.66699 148.833 -17 190.5s-29.333 72.5 -54 92.5c-19.333 15.333 -48 28.5 -86 39.5s-68.667 18.5 -92 22.5v78h609v-78z" />
    <glyph glyph-name="O" unicode="O" horiz-adv-x="1679" 
d="M1380 1261c70 -64 125.501 -141.334 166.501 -232.001s61.5 -194 61.5 -310c0 -103.333 -17.333 -201.666 -52 -294.999s-84.667 -173.666 -150 -240.999c-68.667 -70 -149.334 -124.5 -242.001 -163.5s-203 -58.5 -331 -58.5c-103.333 0 -201 17 -293 51
s-173 83.333 -243 148c-69.333 63.333 -124.333 140.333 -165 231s-61 191.667 -61 303c0 116 19.833 221.167 59.5 315.5s94.167 175.166 163.5 242.499c68.667 66 150.167 116.833 244.5 152.5s194.833 53.5 301.5 53.5c106 0 205.5 -17.333 298.5 -52
s173.5 -83 241.5 -145zM1123 245.999c30 60.667 51.668 129.332 65.001 205.999s20 163.334 20 260.001c0 82 -5.83301 161.833 -17.5 239.5s-31.5 146.834 -59.5 207.501c-28.667 60.667 -66.667 109.334 -114 146.001s-106.333 55 -177 55
c-120.667 0 -212.334 -57.167 -275.001 -171.5s-94 -275.833 -94 -484.5c0 -88.667 6.83301 -172.334 20.5 -251.001s35.167 -147.334 64.5 -206.001c30 -59.333 68 -105.5 114 -138.5s102.667 -49.5 170 -49.5c66 0 122.667 16.667 170 50s85 79 113 137z" />
    <glyph glyph-name="P" unicode="P" horiz-adv-x="1436" 
d="M1399 1064c0 -80 -16.5 -148.831 -49.5 -206.498s-78.5 -104.5 -136.5 -140.5c-60 -37.333 -128.5 -64.333 -205.5 -81s-163.5 -25 -259.5 -25h-116v-399c0 -24 4.5 -44.833 13.5 -62.5s26.167 -31.834 51.5 -42.501c13.333 -5.33301 35 -11 65 -17s55.333 -10 76 -12
v-78h-769v78c19.333 2 45 4.83301 77 8.5s54.333 8.16699 67 13.5c26 10.667 43.167 23.667 51.5 39s12.5 36.666 12.5 63.999v1001c0 23.333 -4 43.5 -12 60.5s-25.333 31.167 -52 42.5c-18.667 8 -43.5 15.167 -74.5 21.5s-54.167 10.5 -69.5 12.5v78h783
c183.333 0 320.333 -29.167 411 -87.5s136 -147.5 136 -267.5zM1009 1013c0 106.667 -21.5 185.833 -64.5 237.5s-119.5 77.5 -229.5 77.5h-83v-623h42c109.333 0 192.5 25.167 249.5 75.5s85.5 127.833 85.5 232.5z" />
    <glyph glyph-name="Q" unicode="Q" horiz-adv-x="1679" 
d="M1380 1261c70 -64 125.501 -141.328 166.501 -231.995s61.5 -194 61.5 -310c0 -164.667 -41.167 -309.334 -123.5 -434.001s-198.833 -214.334 -349.5 -269.001c2 -79.333 26 -148 72 -206s100.333 -87 163 -87c38.667 0 72.5 2.33301 101.5 7s55.167 10 78.5 16v-88
c-38 -16 -94.333 -32.167 -169 -48.5s-153 -24.5 -235 -24.5c-112 0 -204.167 33.5 -276.5 100.5s-112.833 160.5 -121.5 280.5c-94.667 9.33301 -182.667 32.666 -264 69.999s-153 87.666 -215 150.999c-60.667 62.667 -108.834 137 -144.501 223s-53.5 180.667 -53.5 284
c0 116 19.833 221.167 59.5 315.5s94.167 175.166 163.5 242.499c68.667 66 150.167 116.833 244.5 152.5s194.833 53.5 301.5 53.5c106 0 205.5 -17.333 298.5 -52s173.5 -83 241.5 -145zM1123 246.005c30 60.667 51.668 129.332 65.001 205.999s20 163.334 20 260.001
c0 82 -5.83301 161.833 -17.5 239.5s-31.5 146.834 -59.5 207.501c-28.667 60.667 -66.667 109.334 -114 146.001s-106.333 55 -177 55c-120.667 0 -212.334 -57.167 -275.001 -171.5s-94 -275.833 -94 -484.5c0 -88.667 6.83301 -172.334 20.5 -251.001
s35.167 -147.334 64.5 -206.001c30 -59.333 68 -105.5 114 -138.5s102.667 -49.5 170 -49.5c66 0 122.667 16.667 170 50s85 79 113 137z" />
    <glyph glyph-name="R" unicode="R" horiz-adv-x="1633" 
d="M1698 0l-544.001 0.00195312c-94 144 -172.167 258.667 -234.5 344s-139.833 184 -232.5 296h-55v-431c0 -24 4.5 -44.333 13.5 -61s26.167 -30.667 51.5 -42c12.667 -5.33301 32.5 -10.833 59.5 -16.5s50.167 -9.5 69.5 -11.5v-78h-757v78
c19.333 2 44.833 4.83301 76.5 8.5s54.167 8.16699 67.5 13.5c25.333 10.667 42.333 24.167 51 40.5s13 37.166 13 62.499v1001c0 24 -3.66699 44 -11 60s-25 30 -53 42c-21.333 8.66699 -46.5 16 -75.5 22s-51.833 10.333 -68.5 13v78h796
c178 0 313.167 -27.833 405.5 -83.5s138.5 -139.834 138.5 -252.501c0 -99.333 -28.5 -179.166 -85.5 -239.499s-143.833 -107.5 -260.5 -141.5l158.5 -204l188.5 -237c20.667 -26 48.834 -57.833 84.501 -95.5s67.167 -60.834 94.5 -69.501
c15.333 -4.66699 34.833 -8.66699 58.5 -12s40.5 -5.33301 50.5 -6v-78zM1017 1055c0 94.667 -26.5 163.834 -79.5 207.501s-128.5 65.5 -226.5 65.5h-79v-594h76c98 0 174 25.667 228 77s81 132.666 81 243.999z" />
    <glyph glyph-name="S" unicode="S" horiz-adv-x="1329" 
d="M664 -38c-86.667 0 -167.5 10.668 -242.5 32.001s-138.5 46.666 -190.5 75.999l-69 -70h-85l-13 513h86c19.333 -48.667 44 -100 74 -154s64.667 -102.333 104 -145c40.667 -44.667 86.167 -81 136.5 -109s109.166 -42 176.499 -42c90.667 0 160.167 22.167 208.5 66.5
s72.5 100.166 72.5 167.499c0 55.333 -20.5 101.833 -61.5 139.5s-104.5 70.167 -190.5 97.5l-154.5 50c-47 15.333 -91.167 31 -132.5 47c-95.333 38 -166.166 92.333 -212.499 163s-69.5 149.667 -69.5 237c0 55.333 12 108.5 36 159.5s59 96.833 105 137.5
c44 38 100.333 69 169 93s143.334 36 224.001 36c78.667 0 152.334 -10.833 221.001 -32.5s122.667 -43.5 162 -65.5l61 60h87l8 -484h-86c-20 52 -43.5 105.167 -70.5 159.5s-55.5 99.5 -85.5 135.5c-32.667 38.667 -70.334 69.5 -113.001 92.5s-92.667 34.5 -150 34.5
c-72 0 -130.833 -20.333 -176.5 -61s-68.5 -91 -68.5 -151c0 -56.667 19.833 -103 59.5 -139s101.5 -67.667 185.5 -95l151 -50c51.333 -16.667 97 -32.667 137 -48c96.667 -37.333 170.167 -88.833 220.5 -154.5s75.5 -147.167 75.5 -244.5
c0 -61.333 -14.333 -120.666 -43 -177.999s-67.334 -105 -116.001 -143c-53.333 -42 -115 -74.333 -185 -97s-151.667 -34 -245 -34z" />
    <glyph glyph-name="T" unicode="T" horiz-adv-x="1401" 
d="M1388 1013h-76.9971c-20.667 60.667 -53.834 125.667 -99.501 195s-87.834 106.666 -126.501 111.999c-21.333 2.66699 -47.666 5 -78.999 7s-58.333 3 -81 3h-47v-1113c0 -24 4.33301 -45.167 13 -63.5s25.667 -32.833 51 -43.5c15.333 -6 39.166 -12.167 71.499 -18.5
s59.833 -10.833 82.5 -13.5v-78h-791v78l81.5 8.5c35 3.66699 58.833 8.16699 71.5 13.5c26 10.667 43.333 25 52 43s13 39.333 13 64v1123h-47c-22.667 0 -49.667 -1 -81 -3s-57.666 -4.33301 -78.999 -7c-38.667 -5.33301 -80.834 -42.666 -126.501 -111.999
s-78.834 -134.333 -99.501 -195h-77v406h1375v-406z" />
    <glyph glyph-name="U" unicode="U" horiz-adv-x="1707" 
d="M1703 1341c-19.333 -2 -47.1699 -6.49805 -83.5029 -13.498s-66.833 -19.167 -91.5 -36.5c-25.333 -16.667 -43.166 -46.667 -53.499 -90s-15.5 -108.333 -15.5 -195v-528c0 -155.333 -52.667 -280.333 -158 -375s-244.666 -142 -417.999 -142
c-202 0 -358.333 45.667 -469 137s-166 218.666 -166 381.999v726c0 23.333 -4.5 43.333 -13.5 60s-26.167 31.667 -51.5 45c-17.333 8.66699 -38.666 15.667 -63.999 21s-46 9 -62 11v76h744v-76c-21.333 -1.33301 -43 -3.83301 -65 -7.5s-44.333 -9.16699 -67 -16.5
c-25.333 -8 -42.333 -21.333 -51 -40s-13 -39.667 -13 -63v-716c0 -140.667 31 -243 93 -307s152 -96 270 -96c116 0 207 35.333 273 106s99 174.667 99 312v481c0 85.333 -5.83301 149.166 -17.5 191.499s-29.5 72.833 -53.5 91.5c-17.333 14.667 -47.5 28 -90.5 40
s-73.167 19.333 -90.5 22v78h615v-78z" />
    <glyph glyph-name="V" unicode="V" horiz-adv-x="1561" 
d="M1602 1339c-22 -2 -43 -5.99805 -63 -11.998s-40.667 -15.333 -62 -28c-28.667 -16.667 -50.834 -34.5 -66.501 -53.5s-31.167 -45.167 -46.5 -78.5l-87 -201.5l-128 -301.5l-138.5 -333l-142.5 -347h-201l-285 697l-204 492c-15.333 33.333 -30.166 58.5 -44.499 75.5
s-37.166 34.5 -68.499 52.5c-22.667 12.667 -42.667 21.5 -60 26.5s-40.333 9.5 -69 13.5v78h769v-76c-72 -8.66699 -120.833 -17.834 -146.5 -27.501s-38.5 -21.834 -38.5 -36.501c0 -7.33301 1.16699 -15.166 3.5 -23.499s5.83301 -19.5 10.5 -33.5
c21.333 -58.667 60 -154.5 116 -287.5l249 -608.5l168 421l118 304c16.667 42.667 30.5 82.5 41.5 119.5s16.5 64.833 16.5 83.5c0 21.333 -15.333 39.166 -46 53.499s-87.334 24.833 -170.001 31.5v80h575v-80z" />
    <glyph glyph-name="W" unicode="W" horiz-adv-x="2307" 
d="M2345 1339c-20.667 -2 -41.332 -6.5 -61.999 -13.5s-41 -15.833 -61 -26.5c-30.667 -17.333 -52.5 -36.333 -65.5 -57s-24.833 -45.667 -35.5 -75l-169.5 -487l-238.5 -696h-201l-375 1055l-338 -1055h-201l-256 748.5l-150 440.5c-12.667 36 -27 62.167 -43 78.5
s-36.667 32.833 -62 49.5c-18 12 -37.167 20.833 -57.5 26.5s-43.833 10.167 -70.5 13.5v78h757v-76c-44.667 -5.33301 -78 -10.5 -100 -15.5s-39.333 -10.167 -52 -15.5c-12 -5.33301 -19.333 -11 -22 -17s-4 -11.333 -4 -16c0 -9.33301 1.16699 -18.333 3.5 -27
s4.83301 -18.667 7.5 -30c16 -52 48.333 -150.667 97 -296l180 -541l323 1034h212l375 -1066l132.5 420l83.5 279c13.333 47.333 24 87 32 119s12 59.667 12 83c0 14 -6.5 26 -19.5 36s-30.5 18.667 -52.5 26c-18.667 6 -42.834 10.833 -72.501 14.5s-55.5 6.5 -77.5 8.5v80
h571v-80z" />
    <glyph glyph-name="X" unicode="X" horiz-adv-x="1656" 
d="M1659 0l-865.002 -0.00683594v78c82.667 4.66699 136 11.834 160 21.501s36 22.5 36 38.5c0 8.66699 -4.33301 22.5 -13 41.5s-20.667 40.833 -36 65.5c-23.333 39.333 -54.5 88.5 -93.5 147.5l-121.5 182.5c-140 -162 -228.833 -269.667 -266.5 -323
s-56.5 -88.666 -56.5 -105.999c0 -9.33301 1.5 -17.166 4.5 -23.499s10.833 -12.5 23.5 -18.5c9.33301 -5.33301 25.333 -10.333 48 -15s49.667 -8.33398 81 -11.001v-78h-551v78c28.667 2 51.5 5 68.5 9s33.833 9.66699 50.5 17c38.667 18 73 40.833 103 68.5
s61 59.834 93 96.501l158 179l185 213l-184 270l-156 223c-21.333 30.667 -47.833 61.334 -79.5 92.001s-64.834 52.667 -99.501 66c-17.333 7.33301 -36.666 13.5 -57.999 18.5s-47 8.5 -77 10.5v78h867v-78c-67.333 -2.66699 -117.166 -8.66699 -149.499 -18
s-48.5 -23.333 -48.5 -42c0 -9.33301 3.16699 -21.166 9.5 -35.499s18.833 -36.833 37.5 -67.5c16 -26.667 40.833 -65.667 74.5 -117l114.5 -175c126 150 205.167 247.833 237.5 293.5s48.5 76.834 48.5 93.501c0 19.333 -9.33301 33.833 -28 43.5
s-62.334 17.834 -131.001 24.501v78h553v-78c-25.333 -0.666992 -46.166 -3 -62.499 -7s-35.166 -10.333 -56.499 -19c-41.333 -18.667 -76 -41.667 -104 -69s-58.667 -59.333 -92 -96l-141.5 -159.5l-165.5 -189.5l207 -305l163 -231c20 -30.667 45.833 -61.5 77.5 -92.5
s64.5 -53.167 98.5 -66.5c16 -6 34.333 -11.667 55 -17s48 -9 82 -11v-78z" />
    <glyph glyph-name="Y" unicode="Y" horiz-adv-x="1499" 
d="M1567 1341c-24 -2.66699 -46.002 -7 -66.002 -13s-39 -14.333 -57 -25c-28.667 -16 -54.167 -36.5 -76.5 -61.5s-44.166 -52.833 -65.499 -83.5l-136.5 -206.5l-155.5 -245.5c-36.667 -56.667 -59.167 -100.167 -67.5 -130.5s-12.5 -82.833 -12.5 -157.5v-201
c0 -24 4.5 -45 13.5 -63s26.167 -32.667 51.5 -44c11.333 -4.66699 35.333 -10.834 72 -18.501s63.667 -12.167 81 -13.5v-78h-791v78c18.667 1.33301 45.5 4 80.5 8s59.5 8.66699 73.5 14c24.667 10.667 41.5 24.834 50.5 42.501s13.5 39.167 13.5 64.5v250
c0 22 -0.333008 41.333 -1 58s-3 30.667 -7 42c-4.66699 12.667 -12.667 28.834 -24 48.501l-44 76.5l-149 256l-137 227c-22.667 36.667 -45.5 66.167 -68.5 88.5s-46.5 40.5 -70.5 54.5c-18 10 -39.833 17.667 -65.5 23s-48.834 8.66602 -69.501 9.99902v78h813v-78
c-74.667 -2 -125 -7.16699 -151 -15.5s-39 -19.833 -39 -34.5c0 -7.33301 4.83301 -22 14.5 -44s26.834 -56 51.501 -102c22.667 -43.333 55.834 -103 99.501 -179l157.5 -267l261 420.5c47.333 79.667 71 128.5 71 146.5c0 22.667 -13.833 40 -41.5 52
s-72.5 19.667 -134.5 23v78h526v-78z" />
    <glyph glyph-name="Z" unicode="Z" horiz-adv-x="1412" 
d="M1397 479l-47.998 -478.998h-1332v61l917 1266h-311c-63.333 0 -109 -1.83301 -137 -5.5s-54.333 -11.167 -79 -22.5c-28.667 -10.667 -60.334 -38.834 -95.001 -84.501s-81 -121.834 -139 -228.501h-81l44 433h1234v-61l-917 -1266h357c112 0 188.167 4.5 228.5 13.5
s69.833 25.167 88.5 48.5c38 46 73.167 96.5 105.5 151.5s62.166 112.833 89.499 173.5h75z" />
    <glyph glyph-name="bracketleft" unicode="[" horiz-adv-x="915" 
d="M847 -310h-662v1829h662v-99h-347v-1630h347v-100z" />
    <glyph glyph-name="backslash" unicode="\" horiz-adv-x="966" 
d="M939 -424h-180l-691 1947h182z" />
    <glyph glyph-name="bracketright" unicode="]" horiz-adv-x="915" 
d="M731 -310h-662v100h347v1630h-347v99h662v-1829z" />
    <glyph glyph-name="asciicircum" unicode="^" horiz-adv-x="1440" 
d="M1233 760h-196l-317 513l-317 -513h-194l442 696h140z" />
    <glyph glyph-name="underscore" unicode="_" horiz-adv-x="1440" 
d="M1445 -302h-1450v122h1450v-122z" />
    <glyph glyph-name="grave" unicode="`" 
d="M741 1139l-42 -38c-110.667 66.667 -194.167 114.834 -250.5 144.501s-104.5 58.167 -144.5 85.5c-31.333 21.333 -53.5 40.166 -66.5 56.499s-19.5 40.5 -19.5 72.5c0 24 12.833 44.667 38.5 62s54.5 26 86.5 26c40.667 0 73 -6.16699 97 -18.5s51.333 -40.833 82 -85.5
l89.5 -127.5z" />
    <glyph glyph-name="a" unicode="a" horiz-adv-x="1220" 
d="M1201 21c-29.333 -12.667 -63.998 -24.3369 -103.998 -35.0039s-82.333 -16 -127 -16c-82 0 -142.333 12.167 -181 36.5s-65 59.166 -79 104.499h-6c-22.667 -22.667 -44.5 -42 -65.5 -58s-43.5 -29.667 -67.5 -41c-31.333 -14.667 -61.5 -25.5 -90.5 -32.5
s-69.5 -10.5 -121.5 -10.5c-77.333 0 -143.333 22.833 -198 68.5s-82 106.167 -82 181.5c0 43.333 6 80.166 18 110.499s29 57.166 51 80.499c20 21.333 43.167 39 69.5 53s55.166 27 86.499 39c60 22 132 44.833 216 68.5s145.333 44.834 184 63.501v96
c0 16.667 -1.33301 38.667 -4 66s-8.33398 50.333 -17.001 69c-9.33301 21.333 -24 39.333 -44 54s-46.333 22 -79 22c-29.333 0 -53.833 -4.16699 -73.5 -12.5s-35.5 -16.833 -47.5 -25.5c2 -13.333 7.66699 -33.666 17 -60.999s14 -53.666 14 -78.999
c0 -11.333 -3 -25.5 -9 -42.5s-14.667 -30.5 -26 -40.5c-15.333 -13.333 -32.5 -23.666 -51.5 -30.999s-48.167 -11 -87.5 -11c-56 0 -98.333 13.5 -127 40.5s-43 62.167 -43 105.5c0 37.333 14.833 70.833 44.5 100.5s65.834 54.167 108.501 73.5
c42 20 90.333 35.5 145 46.5s105.334 16.5 152.001 16.5c64.667 0 124 -3.83301 178 -11.5s102.667 -23.5 146 -47.5c41.333 -23.333 74.166 -57.166 98.499 -101.499s36.5 -102.166 36.5 -173.499c0 -75.333 -1.5 -164.666 -4.5 -267.999s-4.5 -171.333 -4.5 -204
c0 -30 4.5 -53.667 13.5 -71s22.833 -30.333 41.5 -39c11.333 -5.33301 29.166 -8.5 53.499 -9.5s46.5 -1.5 66.5 -1.5v-73zM704.002 541.997c-37.333 -12.667 -74.335 -27.167 -111.002 -43.5s-66.667 -33.5 -90 -51.5c-24.667 -18.667 -44 -42.5 -58 -71.5
s-21 -63.167 -21 -102.5c0 -52 11.833 -89.667 35.5 -113s52.834 -35 87.501 -35c36.667 0 66.834 7.5 90.501 22.5s44.5 33.5 62.5 55.5z" />
    <glyph glyph-name="b" unicode="b" horiz-adv-x="1322" 
d="M1251 489c0 -150 -49.5 -274.333 -148.5 -373s-224.5 -148 -376.5 -148c-58.667 0 -109.167 4.16699 -151.5 12.5s-78.166 18.5 -107.499 30.5c-30.667 12.667 -55.167 25.167 -73.5 37.5s-32.833 22.5 -43.5 30.5l-143 -130l-59 23
c3.33301 48.667 6.16602 101.5 8.49902 158.5s3.5 133.833 3.5 230.5v936c0 25.333 -5.16699 48.833 -15.5 70.5s-24.166 38.167 -41.499 49.5c-12.667 8 -31.167 15 -55.5 21s-46.833 9.66699 -67.5 11v73l494 26l15 -16v-650h6c48.667 47.333 98.667 82 150 104
s102.666 33 153.999 33c140 0 250.333 -47.667 331 -143s121 -224.333 121 -387zM892 477c0 50.667 -3.83301 99.5 -11.5 146.5s-20.5 88.5 -38.5 124.5s-41.667 64.833 -71 86.5s-65.666 32.5 -108.999 32.5c-40.667 0 -74.334 -6.66699 -101.001 -20s-50.667 -33 -72 -59
v-582c4 -13.333 11.5 -30.833 22.5 -52.5s22.167 -38.5 33.5 -50.5c16 -17.333 33 -30.5 51 -39.5s43.333 -13.5 76 -13.5c68 0 121.667 37.167 161 111.5s59 179.5 59 315.5z" />
    <glyph glyph-name="c" unicode="c" horiz-adv-x="1088" 
d="M629 -32c-92.667 0 -174.5 13.502 -245.5 40.502s-129.5 63.833 -175.5 110.5c-46 47.333 -80.333 103.333 -103 168s-34 135 -34 211c0 69.333 13.833 135.333 41.5 198s65.167 117.667 112.5 165c48.667 48.667 109.167 87.5 181.5 116.5s152.166 43.5 239.499 43.5
c122.667 0 219.667 -23.167 291 -69.5s107 -108.833 107 -187.5c0 -48 -12.667 -86.667 -38 -116s-69 -44 -131 -44c-50 0 -91.833 12 -125.5 36s-50.5 55.333 -50.5 94c0 32.667 5.33301 65 16 97s17 56.333 19 73c-7.33301 12 -16.666 21.167 -27.999 27.5
s-29 9.5 -53 9.5c-30 0 -57.333 -7 -82 -21s-47.667 -38.667 -69 -74c-20.667 -33.333 -37.167 -78 -49.5 -134s-18.5 -123.333 -18.5 -202c0 -118.667 27.833 -214.334 83.5 -287.001s122.167 -109 199.5 -109c74 0 132.833 16.5 176.5 49.5s82.5 79.833 116.5 140.5
l75 -52c-20.667 -40.667 -45.334 -77.834 -74.001 -111.501s-63 -63.5 -103 -89.5c-42 -27.333 -84.667 -48 -128 -62s-93.666 -21 -150.999 -21z" />
    <glyph glyph-name="d" unicode="d" horiz-adv-x="1358" 
d="M1351 21l-492.999 -29.0049l-15 14v92l-7 2c-32.667 -35.333 -76.834 -66.166 -132.501 -92.499s-111.834 -39.5 -168.501 -39.5c-134.667 0 -245.667 50 -333 150s-131 229.333 -131 388c0 140.667 48.833 261.334 146.5 362.001s215.834 151 354.501 151
c54.667 0 106 -6.16699 154 -18.5s86.333 -26.833 115 -43.5v327c0 24.667 -5 47.834 -15 69.501s-23.333 38.5 -40 50.5c-20.667 14.667 -46.5 25.167 -77.5 31.5s-62.167 10.833 -93.5 13.5v73l540 26l15 -16v-1311c0 -25.333 4.16699 -46.666 12.5 -63.999
s21.833 -31 40.5 -41c14 -7.33301 34.5 -12.666 61.5 -15.999s49.167 -5.33301 66.5 -6v-73zM841.001 198.995l-0.000976562 564.998c-4.66699 15.333 -11.167 32.333 -19.5 51s-19.833 36.334 -34.5 53.001c-13.333 14 -31.166 26.333 -53.499 37s-47.5 16 -75.5 16
c-66.667 0 -121.334 -37.667 -164.001 -113s-64 -181.666 -64 -318.999c0 -54 3.83301 -102.5 11.5 -145.5s21.167 -82.167 40.5 -117.5s44.166 -63 74.499 -83s66.833 -30 109.5 -30c40.667 0 74.334 7.83301 101.001 23.5s51.334 36.5 74.001 62.5z" />
    <glyph glyph-name="e" unicode="e" horiz-adv-x="1171" 
d="M1133 239c-23.333 -38 -51.498 -73.8291 -84.498 -107.496s-70.5 -62.5 -112.5 -86.5c-44.667 -25.333 -89.834 -44.5 -135.501 -57.5s-98.167 -19.5 -157.5 -19.5c-98.667 0 -183.834 14 -255.501 42s-130.834 65.667 -177.501 113s-81.5 103.166 -104.5 167.499
s-34.5 134.166 -34.5 209.499c0 68 12.5 133.167 37.5 195.5s60.5 117.833 106.5 166.5c45.333 47.333 102.5 85.666 171.5 114.999s146.167 44 231.5 44c93.333 0 170 -11.333 230 -34s109.667 -54 149 -94c38 -38 65.667 -82.833 83 -134.5s26 -105.834 26 -162.501v-65
h-676c0 -136.667 26.333 -240.667 79 -312s136.334 -107 251.001 -107c62.667 0 119 17.167 169 51.5s92.667 77.833 128 130.5zM751.002 619.004c0 40 -1.99902 81 -5.99902 123s-11 76.333 -21 103c-11.333 31.333 -26.833 55 -46.5 71s-44.5 24 -74.5 24
c-51.333 0 -92.333 -26 -123 -78s-47.334 -134.333 -50.001 -247z" />
    <glyph glyph-name="f" unicode="f" horiz-adv-x="805" 
d="M1004 1379c0 -16.667 -2.66602 -35 -7.99902 -55s-14 -37 -26 -51c-14 -16.667 -29.667 -29.334 -47 -38.001s-43.333 -13 -78 -13c-52.667 0 -94 18.333 -124 55s-62 97.667 -96 183c-26.667 -11.333 -48.334 -40.666 -65.001 -87.999s-25 -149 -25 -305v-79h276v-108
h-274v-689c0 -26 6 -46.167 18 -60.5s27.667 -24.833 47 -31.5c16 -5.33301 37 -10.5 63 -15.5s49.333 -8.5 70 -10.5v-73h-675v73c17.333 1.33301 34.166 3 50.499 5s30.833 5.33301 43.5 10c21.333 8 35.833 19.5 43.5 34.5s11.5 34.833 11.5 59.5v698h-203v108h203
c0 71.333 10.333 140.5 31 207.5s52.667 126.833 96 179.5c42 52 97.333 94 166 126s149.334 48 242.001 48c82.667 0 146.667 -15.667 192 -47s68 -72.333 68 -123z" />
    <glyph glyph-name="g" unicode="g" horiz-adv-x="1181" 
d="M1178 880l-219.998 -0.000976562c26 -29.333 45.5 -60.333 58.5 -93s19.5 -66.667 19.5 -102c0 -46 -12.333 -89.167 -37 -129.5s-57 -73.166 -97 -98.499c-40.667 -26 -88.334 -46.333 -143.001 -61s-114 -22 -178 -22h-163c-8 -6 -16.833 -15.5 -26.5 -28.5
s-14.5 -25.5 -14.5 -37.5c0 -29.333 11.667 -49.666 35 -60.999s65.666 -17.666 126.999 -18.999c60.667 -1.33301 122 -3.83301 184 -7.5s106.333 -5.83398 133 -6.50098c38.667 -2 77 -9.83301 115 -23.5s71 -31.5 99 -53.5c30.667 -23.333 56 -53.166 76 -89.499
s30 -78.166 30 -125.499c0 -50.667 -12.167 -98.334 -36.5 -143.001s-61.5 -83.334 -111.5 -116.001c-52.667 -34 -115.834 -60.333 -189.501 -79s-164.834 -28 -273.501 -28c-175.333 0 -308.666 21.333 -399.999 64s-137 106.667 -137 192c0 52.667 24.667 96 74 130
s126 52.667 230 56v12c-61.333 20.667 -109.166 48.167 -143.499 82.5s-51.5 74.166 -51.5 119.499c0 28 6.83301 51.667 20.5 71s31.167 36.333 52.5 51c18.667 12.667 41.334 23.5 68.001 32.5s49 16.167 67 21.5v11c-90 33.333 -156.167 74 -198.5 122
s-63.5 106.667 -63.5 176c0 98 45.167 176.333 135.5 235s204.833 88 343.5 88c45.333 0 89.166 -3.83301 131.499 -11.5s74.5 -14.5 96.5 -20.5h388v-108zM709.002 688.999c0 78 -12.333 139.667 -37 185s-62.667 68 -114 68c-26 0 -48.667 -6.16699 -68 -18.5
s-35 -30.166 -47 -53.499c-11.333 -22.667 -19 -49.167 -23 -79.5s-6 -61.5 -6 -93.5c0 -72.667 12.667 -132.334 38 -179.001s61.333 -70 108 -70c48 0 84.833 21 110.5 63s38.5 101.333 38.5 178zM877.002 -151.001c0 22.667 -6.33301 45.167 -19 67.5s-41 40.5 -85 54.5
c-24 4 -63.5 6.66699 -118.5 8s-130.5 2 -226.5 2c-23.333 -20 -42.833 -43.667 -58.5 -71s-23.5 -60.333 -23.5 -99c0 -16.667 4.66699 -35 14 -55s24 -38.667 44 -56c23.333 -19.333 49.333 -34.5 78 -45.5s72 -16.5 130 -16.5c86 0 151.667 16.667 197 50s68 87 68 161z
" />
    <glyph glyph-name="h" unicode="h" horiz-adv-x="1392" 
d="M1358 0l-601.999 0.000976562v73c13.333 1.33301 29 3 47 5s31.333 5.33301 40 10c14 7.33301 23.833 18 29.5 32s8.5 34.667 8.5 62v468c0 68.667 -12.833 120 -38.5 154s-62.167 51 -109.5 51c-26.667 0 -51.5 -4 -74.5 -12s-45.5 -19.667 -67.5 -35
c-19.333 -13.333 -34.833 -27 -46.5 -41s-21.5 -26.333 -29.5 -37v-537c0 -24.667 3 -44.167 9 -58.5s17.333 -26.166 34 -35.499c10 -6 23.167 -11.333 39.5 -16s32.166 -8 47.499 -10v-73h-608v73c17.333 1.33301 34.166 3 50.499 5s30.833 5.33301 43.5 10
c21.333 8 35.833 19.5 43.5 34.5s11.5 34.833 11.5 59.5v1115c0 21.333 -5 44 -15 68s-24 42 -42 54c-13.333 8.66699 -32.666 15.5 -57.999 20.5s-48 8.16699 -68 9.5v73l497 26l15 -16v-688h4l68.5 61.5c20.333 18.333 45.166 36.833 74.499 55.5
c24.667 16 56.834 29.667 96.501 41s82.5 17 128.5 17c108 0 189.167 -31 243.5 -93s81.5 -143.667 81.5 -245v-490c0 -24.667 3.66699 -44.334 11 -59.001s21 -26.334 41 -35.001c12 -5.33301 25.333 -10 40 -14s32.667 -7.33301 54 -10v-73z" />
    <glyph glyph-name="i" unicode="i" horiz-adv-x="724" 
d="M690 0l-632 -0.00195312v73c17.333 1.33301 34.333 3 51 5s31 5.33301 43 10c21.333 8 36.333 19.5 45 34.5s13 34.833 13 59.5v582c0 23.333 -5.33301 43.833 -16 61.5s-24 31.834 -40 42.501c-12 8 -30.167 15.667 -54.5 23s-46.5 12 -66.5 14v73l490 26l15 -15v-794
c0 -23.333 5 -43.166 15 -59.499s24.333 -28.5 43 -36.5c13.333 -6 28 -11.333 44 -16s32.667 -8 50 -10v-73zM544 1364c0 -50.667 -19.5 -93.834 -58.5 -129.501s-85.167 -53.5 -138.5 -53.5c-54 0 -100.5 17.833 -139.5 53.5s-58.5 78.834 -58.5 129.501s19.5 94 58.5 130
s85.5 54 139.5 54s100.333 -18 139 -54s58 -79.333 58 -130z" />
    <glyph glyph-name="j" unicode="j" horiz-adv-x="709" 
d="M551 118c0 -68.667 -11.667 -138 -35 -208s-56.666 -130 -99.999 -180c-47.333 -54.667 -104.666 -97.334 -171.999 -128.001s-144.333 -46 -231 -46c-80.667 0 -142.834 15.5 -186.501 46.5s-65.5 72.833 -65.5 125.5c0 18.667 2.16699 36 6.5 52s13.5 32.667 27.5 50
c10.667 14.667 27.167 27.167 49.5 37.5s47.5 15.5 75.5 15.5c55.333 0 98 -19.833 128 -59.5s60.667 -99.167 92 -178.5c27.333 15.333 47.5 48 60.5 98s19.5 158.667 19.5 326v691c0 23.333 -5 43.833 -15 61.5s-23.667 32.5 -41 44.5
c-12.667 8.66699 -32.834 16.834 -60.501 24.501s-52.167 12.5 -73.5 14.5v73l506 26l15 -15v-871zM555 1364c0 -50.667 -19.5 -93.834 -58.5 -129.501s-85.167 -53.5 -138.5 -53.5c-54 0 -100.5 17.833 -139.5 53.5s-58.5 78.834 -58.5 129.501s19.5 94 58.5 130
s85.5 54 139.5 54s100.333 -18 139 -54s58 -79.333 58 -130z" />
    <glyph glyph-name="k" unicode="k" horiz-adv-x="1294" 
d="M1341 0h-471.003c-58 102 -111 188.5 -159 259.5l-136 197.5l-60 -51v-218c0 -24 3.5 -43.667 10.5 -59s20.5 -26.666 40.5 -33.999c12 -5.33301 26 -10 42 -14s32 -6.66699 48 -8v-73h-619v73c16.667 1.33301 33.334 3.16602 50.001 5.49902s31.334 5.5 44.001 9.5
c21.333 7.33301 35.833 18.666 43.5 33.999s11.5 35.333 11.5 60v1115c0 22 -4.83301 44.833 -14.5 68.5s-23.834 41.5 -42.501 53.5c-12.667 8 -31.667 14.667 -57 20s-48.333 8.66602 -69 9.99902v73l497 26l15 -16v-1032l166.5 153l148.5 144
c22 22.667 34.167 39.834 36.5 51.501s3.5 18.834 3.5 21.501c0 12 -10.5 22 -31.5 30s-52.5 15 -94.5 21v71h508v-69c-66.667 -18.667 -117.5 -36.167 -152.5 -52.5s-73.167 -38.166 -114.5 -65.499c-27.333 -18 -53.833 -36.833 -79.5 -56.5s-55.167 -44.167 -88.5 -73.5
l181 -263l174 -256c20.667 -31.333 46.334 -52.333 77.001 -63s61.334 -17.334 92.001 -20.001v-73z" />
    <glyph glyph-name="l" unicode="l" horiz-adv-x="705" 
d="M667 0h-627v73c17.333 1.33301 34.166 3 50.499 5s30.833 5.33301 43.5 10c21.333 8 35.833 19.5 43.5 34.5s11.5 34.833 11.5 59.5v1108c0 25.333 -5.16699 48.833 -15.5 70.5s-24.166 38.167 -41.499 49.5c-13.333 8.66699 -33.5 17 -60.5 25s-50.833 12.667 -71.5 14
v73l503 26l15 -16v-1337c0 -24.667 4.33301 -44.667 13 -60s22.667 -27.333 42 -36c13.333 -6 27.333 -11.333 42 -16s32 -8 52 -10v-73z" />
    <glyph glyph-name="m" unicode="m" horiz-adv-x="2080" 
d="M2045 0h-596.007v73c14.667 2 30 3.66699 46 5s29.333 4.66602 40 9.99902c14.667 6.66699 24 17.834 28 33.501s6 35.834 6 60.501v467c0 68.667 -12.167 120.167 -36.5 154.5s-59.166 51.5 -104.499 51.5c-28.667 0 -54.167 -4.5 -76.5 -13.5
s-42.833 -20.167 -61.5 -33.5c-19.333 -14 -34.333 -28 -45 -42l-27 -36v-537c0 -24 2.83301 -43.5 8.5 -58.5s16.167 -26.833 31.5 -35.5c10.667 -6 22.834 -11.333 36.501 -16s28.167 -8 43.5 -10v-73h-571v73l46 5c18 2 31.333 5.33301 40 10
c14 7.33301 23.167 18 27.5 32s6.5 34.667 6.5 62v467c0 68.667 -12.167 120.167 -36.5 154.5s-59.166 51.5 -104.499 51.5c-28.667 0 -54.167 -4.5 -76.5 -13.5s-42.833 -20.167 -61.5 -33.5c-19.333 -14 -34.333 -28 -45 -42l-27 -36v-537c0 -23.333 3 -42.666 9 -57.999
s16.667 -27.333 32 -36c10.667 -6 22.834 -11.333 36.501 -16s28.167 -8 43.5 -10v-73h-599v73c17.333 1.33301 34.333 3 51 5s31 5.33301 43 10c21.333 8 36 19.5 44 34.5s12 34.833 12 59.5v582c0 21.333 -5.66699 42.166 -17 62.499s-25 36.166 -41 47.499
c-12 8 -27.167 14.667 -45.5 20s-38.5 9 -60.5 11v73l477 26l15 -15v-141h4l66.5 59.5c25.667 23 49.834 41.5 72.501 55.5c24.667 16 56.334 29.333 95.001 40s81 16 127 16c76 0 139.5 -16.5 190.5 -49.5s87.167 -76.833 108.5 -131.5h9l71 63.5
c28 24.333 53.667 43.833 77 58.5c26 16.667 59.167 30.667 99.5 42s83.5 17 129.5 17c100.667 0 178.167 -29.667 232.5 -89s81.5 -143.666 81.5 -252.999v-486c0 -24.667 3.66699 -44.5 11 -59.5s20.666 -26.5 39.999 -34.5
c10.667 -4.66699 23.834 -9.33398 39.501 -14.001s33.834 -8 54.501 -10v-73z" />
    <glyph glyph-name="n" unicode="n" horiz-adv-x="1413" 
d="M1378 0l-602.002 0.00488281v73l46 5c18 2 31.667 5.33301 41 10c14 7.33301 24 18 30 32s9 34.667 9 62v468c0 68 -12.5 119.167 -37.5 153.5s-61.833 51.5 -110.5 51.5c-26.667 0 -51.5 -4 -74.5 -12s-45.5 -19.667 -67.5 -35c-19.333 -13.333 -34.833 -27 -46.5 -41
s-21.5 -26.333 -29.5 -37v-537c0 -23.333 3.33301 -42.833 10 -58.5s17.667 -27.5 33 -35.5c10.667 -6 24 -11.333 40 -16s31.667 -8 47 -10v-73h-608v73c16.667 1.33301 33.5 3.16602 50.5 5.49902s31.5 5.5 43.5 9.5c21.333 7.33301 36 18.666 44 33.999s12 35.333 12 60
v582c0 20.667 -5.33301 41 -16 61s-24.667 36.333 -42 49c-12 8 -27.167 14.667 -45.5 20s-38.5 9 -60.5 11v73l477 26l15 -15v-145h4l68 60c26.667 23.333 51.334 42.333 74.001 57c24.667 16 57 29.667 97 41s82.667 17 128 17c108.667 0 190.167 -30.833 244.5 -92.5
s81.5 -143.5 81.5 -245.5v-490c0 -24.667 3.66699 -44.334 11 -59.001s21 -26.334 41 -35.001c10.667 -4.66699 23.834 -9.33398 39.501 -14.001s33.5 -8 53.5 -10v-73z" />
    <glyph glyph-name="o" unicode="o" horiz-adv-x="1302" 
d="M1079 874c49.333 -46 87.001 -101 113.001 -165s39 -133.333 39 -208c0 -74 -12.833 -143.833 -38.5 -209.5s-63.167 -121.834 -112.5 -168.501c-52.667 -50 -115.5 -88.333 -188.5 -115s-156.5 -40 -250.5 -40c-81.333 0 -156.166 11.667 -224.499 35
s-128.833 58.333 -181.5 105c-50.667 44.667 -90.667 99.834 -120 165.501s-44 139.167 -44 220.5c0 80 12.833 151.167 38.5 213.5s64.167 117.833 115.5 166.5c49.333 46.667 110.166 82.834 182.499 108.501s153.166 38.5 242.499 38.5
c93.333 0 175.5 -12.833 246.5 -38.5s131.833 -61.834 182.5 -108.501zM823.001 181c14.667 37.333 25.4961 82.6689 32.4961 136.002s10.5 115.333 10.5 186c0 46.667 -3.33301 100 -10 160s-16.667 107.333 -30 142c-16 42 -38.167 75 -66.5 99s-64.166 36 -107.499 36
c-47.333 0 -85.166 -13 -113.499 -39s-50.166 -59.667 -65.499 -101c-14 -38 -23.667 -82.5 -29 -133.5s-8 -104.167 -8 -159.5c0 -72.667 2.33301 -132.834 7 -180.501s16 -95.5 34 -143.5c15.333 -41.333 37.333 -74 66 -98s65 -36 109 -36c40 0 74.333 11.167 103 33.5
s51.334 55.166 68.001 98.499z" />
    <glyph glyph-name="p" unicode="p" horiz-adv-x="1347" 
d="M1276 487c0 -140.667 -47.001 -261.338 -141.001 -362.005s-213 -151 -357 -151c-64 0 -116 6.5 -156 19.5s-73 28.833 -99 47.5h-8v-281c0 -23.333 5.16699 -43.666 15.5 -60.999s24.833 -30 43.5 -38c18 -7.33301 43.5 -14 76.5 -20s60.5 -9.66699 82.5 -11v-74h-722
v74c16.667 1.33301 37.667 3.83301 63 7.5s44.333 7.5 57 11.5c21.333 7.33301 35.833 19.833 43.5 37.5s11.5 37.834 11.5 60.501v1023c-2 22 -7.16699 41.333 -15.5 58s-21.5 31.334 -39.5 44.001c-13.333 8.66699 -31 15.834 -53 21.501s-43.667 9.5 -65 11.5v73l487 26
l15 -13v-111l8 -2c44 44.667 92.833 79.334 146.5 104.001s106.834 37 159.501 37c138 0 247 -48.833 327 -146.5s120 -226.167 120 -385.5zM916.999 482.996c0 50 -3.66406 97.833 -10.9971 143.5s-20.333 86.5 -39 122.5c-18 36 -41.833 64.667 -71.5 86
s-65.834 32 -108.501 32c-43.333 0 -78 -7.5 -104 -22.5s-48.667 -34.5 -68 -58.5v-567c4 -13.333 11.667 -30.5 23 -51.5s22.666 -37.833 33.999 -50.5c16.667 -18 35.667 -31.333 57 -40s44.666 -13 69.999 -13c66 0 118.833 35.5 158.5 106.5s59.5 175.167 59.5 312.5z
" />
    <glyph glyph-name="q" unicode="q" horiz-adv-x="1328" 
d="M1355 -444l-700.003 0.00488281v74c18.667 1.33301 41.167 3.5 67.5 6.5s46.833 7.16699 61.5 12.5c20.667 6.66699 35.334 18.667 44.001 36s13 38 13 62v349l-8 2c-11.333 -10.667 -26.166 -23.667 -44.499 -39s-40.5 -29 -66.5 -41
c-28.667 -14 -56.167 -24.833 -82.5 -32.5s-61.166 -11.5 -104.499 -11.5c-138.667 0 -250.667 48 -336 144s-128 225.333 -128 388c0 147.333 51 269.666 153 366.999s231 146 387 146c78.667 0 149.667 -8.83301 213 -26.5s122.333 -40.834 177 -69.501l130 128l55 -13
c-2 -42 -5.16699 -96.833 -9.5 -164.5s-6.5 -123.834 -6.5 -168.501v-941c0 -24.667 4.5 -45.834 13.5 -63.501s23.5 -30.834 43.5 -39.501c14.667 -6.66699 34.667 -13 60 -19s48 -10 68 -12v-74zM840.997 199.005l-0.000976562 564.998
c-4.66699 16.667 -11.167 34.667 -19.5 54s-20.166 38 -35.499 56c-14.667 16.667 -32.834 30.334 -54.501 41.001s-47.834 16 -78.501 16c-66.667 0 -120.5 -39 -161.5 -117s-61.5 -185.667 -61.5 -323c0 -56 4.33301 -105.5 13 -148.5s21.667 -80.5 39 -112.5
c20 -35.333 44 -62.666 72 -81.999s65.333 -29 112 -29c42.667 0 77.334 7.16699 104.001 21.5s50.334 33.833 71.001 58.5z" />
    <glyph glyph-name="r" unicode="r" horiz-adv-x="1065" 
d="M1054 809c0 -50.667 -15.666 -95.165 -46.999 -133.498s-72.666 -57.5 -123.999 -57.5c-48.667 0 -89.834 12.333 -123.501 37s-50.5 61 -50.5 109c0 23.333 1.66699 41.5 5 54.5l9 36.5c-30.667 -1.33301 -63 -12 -97 -32s-64 -46.667 -90 -80v-549
c0 -23.333 3.66699 -42.666 11 -57.999s19.666 -27.333 36.999 -36c14.667 -7.33301 38.5 -13.5 71.5 -18.5s56.833 -7.83301 71.5 -8.5v-73h-669v73c16.667 1.33301 33.5 3.16602 50.5 5.49902s31.5 5.5 43.5 9.5c21.333 7.33301 36 18.666 44 33.999s12 35.333 12 60v582
c0 24 -5.66699 45.5 -17 64.5s-25 34.167 -41 45.5c-12 8 -27.167 14.667 -45.5 20s-38.5 9 -60.5 11v73l477 26l15 -15v-145h4c46 53.333 94.833 95.166 146.5 125.499s105.5 45.5 161.5 45.5c62 0 111.833 -19.167 149.5 -57.5s56.5 -87.833 56.5 -148.5z" />
    <glyph glyph-name="s" unicode="s" horiz-adv-x="1050" 
d="M521 -34c-64.667 0 -127.835 9.50195 -189.502 28.502s-109.5 39.167 -143.5 60.5l-30 -68h-78l-13 373h73c10 -30 26.667 -63.833 50 -101.5s50 -71.5 80 -101.5c31.333 -30 67.166 -55.333 107.499 -76s83.5 -31 129.5 -31c60.667 0 105.834 11.833 135.501 35.5
s44.5 60.167 44.5 109.5c0 26.667 -6.66699 48.667 -20 66s-31.666 32.333 -54.999 45c-26 13.333 -54.5 24.666 -85.5 33.999l-114.5 34c-45.333 13.333 -84.166 26.833 -116.499 40.5s-65.833 35.167 -100.5 64.5c-30 26 -54 57.333 -72 94s-27 80.334 -27 131.001
c0 94 39.5 170 118.5 228s182.5 87 310.5 87c60.667 0 116.5 -6.16699 167.5 -18.5s93.833 -25.833 128.5 -40.5l21 59h76l16 -341h-71c-23.333 69.333 -63.333 129.166 -120 179.499s-117.667 75.5 -183 75.5c-51.333 0 -91.666 -10.667 -120.999 -32s-44 -51 -44 -89
c0 -50.667 21.5 -87.334 64.5 -110.001s103.167 -44 180.5 -64c119.333 -30.667 206.666 -72.5 261.999 -125.5s83 -120.5 83 -202.5c0 -109.333 -42.833 -194 -128.5 -254s-197.5 -90 -335.5 -90z" />
    <glyph glyph-name="t" unicode="t" horiz-adv-x="814" 
d="M802 46c-42.667 -18.667 -88.333 -35.5 -137 -50.5s-108 -22.5 -178 -22.5c-104 0 -181.167 25.333 -231.5 76s-75.5 123 -75.5 217v614h-180v108h184v303h325v-303h280v-108h-278v-548c0 -78 10.833 -133.333 32.5 -166s60.5 -49 116.5 -49c18 0 43 1.33301 75 4
s54.333 5.66699 67 9v-84z" />
    <glyph glyph-name="u" unicode="u" horiz-adv-x="1386" 
d="M1363 21l-477.001 -29.001l-15 14v131h-6l-66.5 -60.5c-21.667 -19.667 -47.5 -37.5 -77.5 -53.5c-34 -18 -66.167 -31.333 -96.5 -40s-74.5 -13 -132.5 -13c-100.667 0 -177.834 30.333 -231.501 91s-80.5 146.334 -80.5 257.001v450c0 26 -5 47.167 -15 63.5
s-23.333 30.833 -40 43.5c-13.333 10 -30.666 17.167 -51.999 21.5s-40.666 7.16602 -57.999 8.49902v73l485 26l11 -15v-665c0 -68.667 13.167 -119.334 39.5 -152.001s62.5 -49 108.5 -49c47.333 0 89.833 12.333 127.5 37s65.167 51 82.5 79v539
c0 22.667 -4.33301 43 -13 61s-21.334 32.667 -38.001 44c-12 8 -29.167 13.333 -51.5 16s-45.166 4.66699 -68.499 6v73l485 26l15 -15v-772c0 -23.333 4.66699 -43.166 14 -59.499s23 -30.166 41 -41.499c12.667 -8 29.167 -13.5 49.5 -16.5s40.5 -4.83301 60.5 -5.5v-73z
" />
    <glyph glyph-name="v" unicode="v" horiz-adv-x="1161" 
d="M1198 919c-30 -4.66699 -59.165 -15.999 -87.498 -33.999s-51.833 -46 -70.5 -84l-137.5 -294.5l-132.5 -287.5c-13.333 -28 -28.5 -64 -45.5 -108s-31.167 -84 -42.5 -120h-184l-196.5 443l-172.5 378c-14 31.333 -35.833 56 -65.5 74s-59.834 29 -90.501 33v73h616v-73
c-22.667 -0.666992 -49.334 -5.66699 -80.001 -15s-46 -21.333 -46 -36c0 -4 1.33301 -10 4 -18s6 -17 10 -27l96.5 -219l136.5 -301l95.5 213.5l112.5 266.5c6 16 9.5 29 10.5 39s1.5 16.667 1.5 20c0 12 -5.83301 22.5 -17.5 31.5s-25.5 16.833 -41.5 23.5
c-16.667 6.66699 -32.667 11.667 -48 15s-28 5.66602 -38 6.99902v73h413v-73z" />
    <glyph glyph-name="w" unicode="w" horiz-adv-x="1768" 
d="M1782 919c-30.667 -4.66699 -58.998 -14.8301 -84.998 -30.4971s-48 -44.834 -66 -87.501l-112 -276l-118 -303c-10.667 -27.333 -23.5 -65 -38.5 -113s-26.833 -87.333 -35.5 -118h-195l-252 680l-236 -680h-193l-159 423.5l-155 397.5c-12 31.333 -32.5 56 -61.5 74
s-58.833 29 -89.5 33v73h614v-73c-22.667 -2 -49.667 -7.33301 -81 -16s-47 -20.334 -47 -35.001c0 -6.66699 0.833008 -12.5 2.5 -17.5s4.5 -14.167 8.5 -27.5c18 -52 42.667 -119.167 74 -201.5l110 -287.5l222 658h198l253 -680l89.5 242.5l79.5 228.5
c4.66699 14 7.5 26.5 8.5 37.5s1.16699 18.167 0.5 21.5c0 12 -6 22.833 -18 32.5s-26.333 17.5 -43 23.5s-32.834 10.667 -48.501 14s-28.834 5.66602 -39.501 6.99902v73h413v-73z" />
    <glyph glyph-name="x" unicode="x" horiz-adv-x="1204" 
d="M1198 0h-624.996v73c32.667 2 60 4.83301 82 8.5s33 11.167 33 22.5c0 5.33301 -2.83301 13.666 -8.5 24.999s-12.834 24 -21.501 38c-12.667 20.667 -34.5 53.334 -65.5 98.001l-87.5 124l-97 -115l-82 -103c-10 -12 -17 -23 -21 -33s-6 -16 -6 -18
c0 -15.333 10.833 -27 32.5 -35s47.5 -12 77.5 -12v-73h-406v73c54 11.333 97.167 29.333 129.5 54s54.166 43.667 65.499 57l123.5 129.5l135.5 144.5l-138 193l-135 187c-18 24 -40 42.5 -66 55.5s-59.667 21.5 -101 25.5v73h611v-73c-22 0 -43.667 -1.33301 -65 -4
s-32 -7.33398 -32 -14.001c0 -5.33301 1.66699 -12 5 -20s7.66602 -16.333 12.999 -25c12.667 -21.333 32.667 -52.666 60 -93.999l88 -130l75.5 90c20.333 23.333 46.5 56.333 78.5 99c12 16 19.5 28 22.5 36s4.5 13 4.5 15c0 11.333 -7.16699 21.5 -21.5 30.5
s-42.5 14.5 -84.5 16.5v73h398v-73c-32.667 -5.33301 -64.334 -16.333 -95.001 -33s-62.667 -42.667 -96 -78l-113.5 -118.5l-117.5 -124.5l133 -189l150 -209c18 -25.333 38.167 -46 60.5 -62s57.833 -26.667 106.5 -32v-73z" />
    <glyph glyph-name="y" unicode="y" horiz-adv-x="1151" 
d="M1188 919c-30 -4.66699 -59.165 -16.002 -87.498 -34.002s-51.833 -46 -70.5 -84l-177 -387.5l-202 -444.5c-41.333 -89.333 -81.333 -160.666 -120 -213.999s-75 -94.333 -109 -123c-32 -26.667 -63.667 -46 -95 -58s-63 -18 -95 -18c-63.333 0 -114.5 17.667 -153.5 53
s-58.5 75 -58.5 119c0 18.667 2.16699 36 6.5 52s13.5 32.667 27.5 50c10.667 14.667 27.167 27.167 49.5 37.5s47.5 15.5 75.5 15.5c37.333 0 73 -13 107 -39s69.333 -62 106 -108c22 22 49.167 54.833 81.5 98.5s56.166 88.5 71.499 134.5l-211 433.5l-206 409.5
c-16.667 32 -39 56.833 -67 74.5s-57.667 28.5 -89 32.5v73h612v-73c-22.667 -0.666992 -48.834 -5.66699 -78.501 -15s-44.5 -21.333 -44.5 -36c0 -5.33301 1 -11.166 3 -17.499s5.66699 -15.5 11 -27.5l96.5 -194.5l145.5 -291.5l105.5 244.5l84.5 201.5
c6.66699 16.667 10.5 29.834 11.5 39.501s1.5 16.167 1.5 19.5c0 12 -5.83301 22.5 -17.5 31.5s-25.5 16.833 -41.5 23.5c-16.667 6.66699 -32.667 11.667 -48 15s-28 5.66602 -38 6.99902v73h413v-73z" />
    <glyph glyph-name="z" unicode="z" horiz-adv-x="1076" 
d="M1028 0l-983.999 0.00195312v69l574 832c-79.333 0 -150.666 -1 -213.999 -3s-113.333 -10 -150 -24c-12.667 -4.66699 -29.5 -28.834 -50.5 -72.501s-37.5 -89.167 -49.5 -136.5h-71v327h930v-62l-576 -839c16 0 39.333 -0.333008 70 -1s60 -1 88 -1
c32.667 0 67.667 0.833008 105 2.5s66.333 3.83398 87 6.50098c27.333 3.33301 49.166 12.666 65.499 27.999s29.166 33.666 38.499 54.999c8.66699 19.333 20 48.5 34 87.5s24.667 73.833 32 104.5h71v-373z" />
    <glyph glyph-name="braceleft" unicode="{" 
d="M956 -333c-88 0 -168.499 4.00195 -241.499 12.002s-135.5 25.333 -187.5 52s-92 65.167 -120 115.5s-42 117.166 -42 200.499c0 40 2.16699 81.5 6.5 124.5s6.5 82.833 6.5 119.5c0 48 -6.66699 86.667 -20 116s-33.666 52.666 -60.999 69.999
s-60.5 29.166 -99.5 35.499s-80.833 11.166 -125.5 14.499v150c44 3.33301 85.833 8.16602 125.5 14.499s72.834 18.166 99.501 35.499c27.333 18 47.666 40.333 60.999 67s20 66.334 20 119.001c0 38 -2.16699 78.167 -6.5 120.5s-6.5 83.5 -6.5 123.5
c0 82 13.667 148 41 198s67.666 89.333 120.999 118c49.333 26 111.833 43.167 187.5 51.5s156.167 12.5 241.5 12.5v-87c-36 -2.66699 -67.333 -6.16699 -94 -10.5s-54.334 -15.166 -83.001 -32.499c-24 -14.667 -43.5 -37 -58.5 -67s-22.5 -69.667 -22.5 -119v-190
c0 -69.333 -9.5 -127.666 -28.5 -174.999s-45.833 -85.333 -80.5 -114c-32.667 -27.333 -70.667 -48.833 -114 -64.5s-90.333 -28.167 -141 -37.5v-76c48 -9.33301 94.5 -22 139.5 -38s83.5 -37.667 115.5 -65c33.333 -28 59.833 -65.167 79.5 -111.5
s29.5 -105.166 29.5 -176.499v-190c0 -49.333 7.33301 -88.833 22 -118.5s34.334 -52.5 59.001 -68.5c24 -14.667 51.667 -25 83 -31s62.666 -9.66699 93.999 -11v-87z" />
    <glyph glyph-name="bar" unicode="|" horiz-adv-x="794" 
d="M483 -424h-171v1947h171v-1947z" />
    <glyph glyph-name="braceright" unicode="}" 
d="M953 527c-44.667 -3.33301 -86.498 -8.16504 -125.498 -14.498s-72.167 -18.166 -99.5 -35.499s-47.666 -40.666 -60.999 -69.999s-20 -68 -20 -116c0 -36.667 2.16699 -76.5 6.5 -119.5s6.5 -84.5 6.5 -124.5c0 -83.333 -14 -150.166 -42 -200.499
s-68 -88.833 -120 -115.5s-114.5 -44 -187.5 -52s-153.5 -12 -241.5 -12v87c31.333 1.33301 63 5 95 11s59.333 16.333 82 31c24.667 16 44.334 38.833 59.001 68.5s22 69.167 22 118.5v190c0 71.333 9.83301 130.166 29.5 176.499s46.167 83.5 79.5 111.5
c32 27.333 70.5 49 115.5 65s91.5 28.667 139.5 38v76c-50.667 9.33301 -97.667 22 -141 38s-81.333 37.333 -114 64c-34.667 28.667 -61.5 66.667 -80.5 114s-28.5 105.666 -28.5 174.999v190c0 49.333 -7.5 89 -22.5 119s-34.5 52.333 -58.5 67
c-28.667 17.333 -56.334 28.166 -83.001 32.499s-58 7.83301 -94 10.5v87c85.333 0 165.5 -3.83301 240.5 -11.5s137.833 -25.167 188.5 -52.5c53.333 -28.667 93.666 -68 120.999 -118s41 -116 41 -198c0 -40 -2.16699 -81.167 -6.5 -123.5s-6.5 -82.5 -6.5 -120.5
c0 -52.667 6.66699 -92.334 20 -119.001s33.666 -49 60.999 -67c25.333 -16.667 58.166 -28.334 98.499 -35.001s82.5 -11.667 126.5 -15v-150z" />
    <glyph glyph-name="asciitilde" unicode="~" horiz-adv-x="1440" 
d="M1295 735c-13.333 -36.667 -31.165 -74.335 -53.498 -113.002s-47.166 -73 -74.499 -103c-34 -37.333 -70.833 -67.166 -110.5 -89.499s-81.834 -33.5 -126.501 -33.5c-50.667 0 -96.834 8.83301 -138.501 26.5s-81.834 37.834 -120.501 60.501
c-30.667 18.667 -66 38 -106 58s-75.667 30 -107 30c-44 0 -82.333 -15.833 -115 -47.5s-64 -82.167 -94 -151.5l-104 42c10 29.333 25.833 63.666 47.5 102.999s48.5 77 80.5 113c30 34 65.5 63 106.5 87s84.5 36 130.5 36c54.667 0 103.167 -9.5 145.5 -28.5
s80.833 -38.833 115.5 -59.5c35.333 -21.333 70.166 -41.166 104.499 -59.499s69.833 -27.5 106.5 -27.5c46.667 0 86.334 17.5 119.001 52.5s62.667 83.833 90 146.5z" />
    <glyph glyph-name="exclamdown" unicode="&#xa1;" horiz-adv-x="771" 
d="M578 1262c0 -50.667 -19.167 -94.5 -57.5 -131.5s-83.166 -55.5 -134.499 -55.5c-52 0 -97.167 18.5 -135.5 55.5s-57.5 80.833 -57.5 131.5s19.167 94.167 57.5 130.5s83.5 54.5 135.5 54.5c51.333 0 96.166 -18.167 134.499 -54.5s57.5 -79.833 57.5 -130.5zM529 424
l38.499 -164c8.33301 -36 12.5 -70.333 12.5 -103c0 -51.333 -19.167 -95.166 -57.5 -131.499s-84.166 -54.5 -137.499 -54.5c-52.667 0 -98.167 18.167 -136.5 54.5s-57.5 80.166 -57.5 131.499c0 32.667 5 70.5 15 113.5l36 154.5l48 211.5c18 81 37 187.5 57 319.5h77
c15.333 -102 32.333 -197.167 51 -285.5z" />
    <glyph glyph-name="cent" unicode="&#xa2;" horiz-adv-x="1240" 
d="M1176 262c-38 -76 -89.9971 -138.5 -155.997 -187.5s-140.667 -80.167 -224 -93.5v-280h-99v278c-184 2.66699 -324.5 50 -421.5 142s-145.5 217.667 -145.5 377c0 69.333 13.667 134.333 41 195s64.333 114.334 111 161.001c48 48 107.167 87 177.5 117
s149.5 46.667 237.5 50v255h99v-256c56 -5.33301 104.5 -16.166 145.5 -32.499s73.833 -34.833 98.5 -55.5c25.333 -20.667 44.166 -42.334 56.499 -65.001s18.5 -44 18.5 -64c0 -44.667 -12.833 -81 -38.5 -109s-67.5 -42 -125.5 -42c-32 0 -62.667 9.16699 -92 27.5
s-50.333 51.166 -63 98.499v-657h1c73.333 0 133.666 16.667 180.999 50s87.666 81 120.999 143zM697.003 138v800c-28 -4 -54.667 -15.167 -80 -33.5s-47.666 -44.166 -66.999 -77.499c-18.667 -32 -33.834 -75.333 -45.501 -130s-17.5 -117 -17.5 -187
c0 -94.667 20 -174.834 60 -240.501s90 -109.5 150 -131.5z" />
    <glyph glyph-name="sterling" unicode="&#xa3;" horiz-adv-x="1413" 
d="M1295 0l-1171 0.00195312v188c62 20.667 108.667 44.5 140 71.5s53.333 58.5 66 94.5c13.333 36 20.5 75.333 21.5 118s1.5 94 1.5 154h-194v116h194c-2 27.333 -5.5 66.5 -10.5 117.5s-7.5 92.167 -7.5 123.5c0 138 48.667 252 146 342s225.333 135 384 135
c112 0 210.167 -27.167 294.5 -81.5s126.5 -121.833 126.5 -202.5c0 -48 -14.333 -87.667 -43 -119s-69 -47 -121 -47c-52.667 0 -96 13.667 -130 41s-51 64.666 -51 111.999c0 35.333 6.33301 71 19 107l29 84c-20 4.66699 -40 8.16699 -60 10.5s-39.667 3.5 -59 3.5
c-14 0 -30.167 -2.33301 -48.5 -7s-39.166 -18 -62.499 -40c-20 -18.667 -37.167 -47.334 -51.5 -86.001s-21.5 -88 -21.5 -148c0 -42 1.66699 -97.333 5 -166s5 -128.334 5 -179.001h389v-116h-389c-15.333 -94 -39.5 -164.667 -72.5 -212s-87.5 -91.666 -163.5 -132.999
v-11h835v-270z" />
    <glyph glyph-name="currency" unicode="&#xa4;" horiz-adv-x="1440" 
d="M1245 156l-106.002 -110.999l-236 231c-32 -16.667 -61.667 -29.667 -89 -39s-59 -14 -95 -14c-30.667 0 -62.167 5.16699 -94.5 15.5s-61.5 22.833 -87.5 37.5l-238 -233l-106 115l231 233c-16.667 26 -29.667 55 -39 87s-14 63 -14 93s4.5 60.667 13.5 92
s22.167 61.666 39.5 90.999l-231 237l110 109l234 -234c25.333 16 54.333 29 87 39s64.334 15 95.001 15c30 0 60.833 -4.66699 92.5 -14s60.834 -22 87.501 -38l234 232l112 -109l-231 -237c14.667 -26 27.167 -55 37.5 -87s15.5 -64 15.5 -96
c0 -29.333 -5.16699 -60.5 -15.5 -93.5s-22.833 -61.833 -37.5 -86.5zM921.998 571.001c0 56.667 -20 105.332 -60 145.999s-87.667 61 -143 61c-56.667 0 -105 -20.167 -145 -60.5s-60 -89.166 -60 -146.499c0 -55.333 20 -103.5 60 -144.5s88.333 -61.5 145 -61.5
c54.667 0 102.167 20 142.5 60s60.5 88.667 60.5 146z" />
    <glyph glyph-name="yen" unicode="&#xa5;" horiz-adv-x="1500" 
d="M1522 1341c-22 -2.66699 -41.168 -6.66602 -57.501 -11.999s-34.833 -14 -55.5 -26c-28.667 -16 -54.167 -36.5 -76.5 -61.5s-44.166 -52.833 -65.499 -83.5l-164.5 -252l-183.5 -291v-32h433v-116h-431v-250c0 -24 4.5 -45 13.5 -63s26.167 -32.667 51.5 -44
c11.333 -4.66699 35.333 -10.834 72 -18.501s63.667 -12.167 81 -13.5v-78h-779v78c18.667 1.33301 45.5 4 80.5 8s59.5 8.66699 73.5 14c24.667 10.667 41.5 24.834 50.5 42.501s13.5 39.167 13.5 64.5v260h-431v116h433v20l-170.5 292l-161.5 270
c-23.333 37.333 -46 67.166 -68 89.499s-45.667 40.166 -71 53.499c-20 10 -41.167 17.667 -63.5 23s-42.833 8.66602 -61.5 9.99902v78h783v-78c-66 -1.33301 -112.5 -6.16602 -139.5 -14.499s-40.5 -20.166 -40.5 -35.499c0 -8 2.5 -18.833 7.5 -32.5
s19.5 -43.167 43.5 -88.5c18.667 -36 49.167 -90.833 91.5 -164.5l150.5 -256.5c138.667 220 223.667 356.833 255 410.5s47 89.167 47 106.5c0 23.333 -12.667 40.833 -38 52.5s-68 19.167 -128 22.5v78h506v-78z" />
    <glyph glyph-name="brokenbar" unicode="&#xa6;" horiz-adv-x="794" 
d="M483 723h-171v800h171v-800zM483 -424h-171v810h171v-810z" />
    <glyph glyph-name="section" unicode="&#xa7;" horiz-adv-x="1154" 
d="M1033 644c0 -70.667 -23.5 -131.004 -70.5 -181.004s-109.833 -88 -188.5 -114c68 -28 119.333 -65.333 154 -112s52 -98 52 -154c0 -90 -41.833 -165 -125.5 -225s-198.167 -90 -343.5 -90c-69.333 0 -127 6.5 -173 19.5s-83 29.5 -111 49.5s-47.833 41.833 -59.5 65.5
s-17.5 45.834 -17.5 66.501c0 36.667 10.833 66.834 32.5 90.501s53.167 35.5 94.5 35.5c29.333 0 54.666 -7.66699 75.999 -23s39.333 -35.333 54 -60c14 -23.333 25.833 -48.166 35.5 -74.499l30.5 -84.5c3.33301 -0.666992 8 -1.33398 14 -2.00098s10.667 -1 14 -1
c62.667 0 114.5 12 155.5 36s61.5 62.667 61.5 116c0 32 -6.66699 59 -20 81s-33 41.667 -59 59c-25.333 18 -59 35.833 -101 53.5l-125 51.5c-100.667 40.667 -174.5 86.834 -221.5 138.501s-70.5 115.834 -70.5 192.501c0 65.333 19 122 57 170s105.333 89.667 202 125
c-74.667 30.667 -129 69.5 -163 116.5s-51 100.167 -51 159.5c0 87.333 43.333 160 130 218s199 87 337 87c66 0 122.667 -6.33301 170 -19s85.333 -29.334 114 -50.001c27.333 -19.333 47 -40.833 59 -64.5s18 -46.167 18 -67.5c0 -35.333 -10.167 -65.166 -30.5 -89.499
s-52.5 -36.5 -96.5 -36.5c-30.667 0 -56.167 7.66699 -76.5 23s-38.166 35.333 -53.499 60c-12.667 20 -24.834 46.167 -36.501 78.5l-29.5 80.5c-4.66699 1.33301 -9.66699 2.16602 -15 2.49902s-9.66602 0.5 -12.999 0.5c-62.667 0 -114.167 -12.5 -154.5 -37.5
s-60.5 -63.167 -60.5 -114.5c0 -33.333 6.83301 -60.666 20.5 -81.999s34.5 -41 62.5 -59s62.333 -35.333 103 -52l127 -52c100 -40 173.667 -85.333 221 -136s71 -115.667 71 -195zM778 576.996c0 34.667 -7.66797 64.167 -23.001 88.5s-37.333 46.166 -66 65.499
c-26 18 -62.167 37 -108.5 57l-119.5 52c-24.667 -21.333 -45 -50.833 -61 -88.5s-24 -73.167 -24 -106.5c0 -35.333 8.33301 -65.5 25 -90.5s39 -46.833 67 -65.5c30.667 -20 65.834 -38.5 105.501 -55.5l119.5 -51.5c32.667 28.667 55 59.334 67 92.001s18 67 18 103z" />
    <glyph glyph-name="dieresis" unicode="&#xa8;" 
d="M919 1349c0 -44.667 -15.833 -83.832 -47.5 -117.499s-68.834 -50.5 -111.501 -50.5c-43.333 0 -80.833 16.667 -112.5 50s-47.5 72.666 -47.5 117.999c0 44.667 15.667 83.834 47 117.501s69 50.5 113 50.5c42.667 0 79.834 -16.833 111.501 -50.5
s47.5 -72.834 47.5 -117.501zM424 1349c0 -44.667 -16.001 -83.832 -48.001 -117.499s-69.333 -50.5 -112 -50.5c-43.333 0 -80.666 16.667 -111.999 50s-47 72.666 -47 117.999c0 44.667 15.5 83.834 46.5 117.501s68.5 50.5 112.5 50.5c42.667 0 80 -16.833 112 -50.5
s48 -72.834 48 -117.501z" />
    <glyph glyph-name="copyright" unicode="&#xa9;" horiz-adv-x="1929" 
d="M1849 602c0 -244 -86.333 -452.167 -259 -624.5s-381 -258.5 -625 -258.5s-452.333 86.167 -625 258.5s-259 380.5 -259 624.5s86.333 452.167 259 624.5s381 258.5 625 258.5s452.333 -86.167 625 -258.5s259 -380.5 259 -624.5zM1751 602c0 220 -76 407.667 -228 563
s-338 233 -558 233s-406 -77.667 -558 -233s-228 -343 -228 -563s76 -407.667 228 -563s338 -233 558 -233s406 77.667 558 233s228 343 228 563zM1393 381c-16 -37.333 -36.333 -72.333 -61 -105s-55 -61 -91 -85c-37.333 -24.667 -76.333 -43.5 -117 -56.5
s-89.667 -19.5 -147 -19.5c-67.333 0 -131.833 10.833 -193.5 32.5s-115.167 52.834 -160.5 93.501c-45.333 41.333 -81 91.166 -107 149.499s-39 125.5 -39 201.5c0 148 49.5 269 148.5 363s223.5 141 373.5 141c52.667 0 99.834 -6.66699 141.501 -20
s76.5 -27.333 104.5 -42l35 51h65l4 -370h-69c-34 104 -71.333 180.333 -112 229s-94 73 -160 73c-78.667 0 -139 -35.833 -181 -107.5s-63 -169.5 -63 -293.5c0 -124.667 22.667 -221 68 -289s111.666 -102 198.999 -102c66.667 0 123.5 16 170.5 48s88.833 80 125.5 144z
" />
    <glyph glyph-name="ordfeminine" unicode="&#xaa;" horiz-adv-x="1130" 
d="M1055 649c-21.333 -9.33301 -50.3369 -18.667 -87.0039 -28s-71.334 -14 -104.001 -14c-66 0 -115.333 9.5 -148 28.5s-55 47.5 -67 85.5h-5c-15.333 -14.667 -31.666 -29.167 -48.999 -43.5s-37.333 -26.5 -60 -36.5c-26 -11.333 -50.833 -19.833 -74.5 -25.5
s-57.167 -8.5 -100.5 -8.5c-64 0 -118.333 18.5 -163 55.5s-67 85.833 -67 146.5c0 54.667 14.167 100.334 42.5 137.001s75.833 67 142.5 91c44 16 101.833 34 173.5 54s123.5 37.667 155.5 53v71c0 14.667 -1 32.5 -3 53.5s-6.66699 39.5 -14 55.5
c-7.33301 16.667 -19 31 -35 43s-38 18 -66 18s-49.167 -2.66699 -63.5 -8s-25.166 -10.666 -32.499 -15.999c2.66699 -14 7.5 -29.833 14.5 -47.5s10.5 -39.5 10.5 -65.5c0 -28 -12.167 -51.833 -36.5 -71.5s-60.833 -29.5 -109.5 -29.5c-41.333 0 -75.166 10 -101.499 30
s-39.5 49.333 -39.5 88c0 30 11.833 56.667 35.5 80s54.167 43.666 91.5 60.999c36 16.667 76.5 29.334 121.5 38.001s86.167 13 123.5 13c54 0 103.333 -3.33301 148 -10s84.334 -19.334 119.001 -38.001c34.667 -20 61.834 -47 81.501 -81s29.5 -81 29.5 -141
c0 -64 -1.33301 -135.333 -4 -214s-4 -132.334 -4 -161.001c0 -24 3.5 -42.833 10.5 -56.5s18.833 -24.5 35.5 -32.5c10.667 -4 25.667 -6.33301 45 -7s37.333 -1 54 -1v-66zM643.996 1063c-30 -10.667 -59.8311 -22.168 -89.498 -34.501s-53.834 -25.166 -72.501 -38.499
c-20 -14.667 -35.667 -33.334 -47 -56.001s-17 -50 -17 -82c0 -42 9.5 -71.167 28.5 -87.5s42.5 -24.5 70.5 -24.5c30.667 0 55.667 6.33301 75 19s35.666 27.334 48.999 44.001z" />
    <glyph glyph-name="guillemotleft" unicode="&#xab;" horiz-adv-x="1250" 
d="M1130 140l-52.001 -43.002l-240.5 171c-79 56.667 -138.167 101 -177.5 133c-24.667 19.333 -43 40.333 -55 63s-18 50.334 -18 83.001c0 32 5.83301 58.667 17.5 80s30.167 42.333 55.5 63c44.667 36.667 103.334 80.834 176.001 132.501l242 172.5l52 -43l-308 -409z
M690.999 139.998l-52.001 -43.002l-240.5 171c-79 56.667 -138.167 101 -177.5 133c-24.667 19.333 -43 40.333 -55 63s-18 50.334 -18 83.001c0 32 5.83301 58.667 17.5 80s30.167 42.333 55.5 63c44.667 36.667 103.334 80.834 176.001 132.501l242 172.5l52 -43
l-308 -409z" />
    <glyph glyph-name="logicalnot" unicode="&#xac;" horiz-adv-x="1440" 
d="M1266 50h-170v473h-932v163h1102v-636z" />
    <glyph glyph-name="registered" unicode="&#xae;" horiz-adv-x="1929" 
d="M1849 602c0 -244 -86.333 -452.167 -259 -624.5s-381 -258.5 -625 -258.5s-452.333 86.167 -625 258.5s-259 380.5 -259 624.5s86.333 452.167 259 624.5s381 258.5 625 258.5s452.333 -86.167 625 -258.5s259 -380.5 259 -624.5zM1751 602c0 220 -76 407.667 -228 563
s-338 233 -558 233s-406 -77.667 -558 -233s-228 -343 -228 -563s76 -407.667 228 -563s338 -233 558 -233s406 77.667 558 233s228 343 228 563zM1574 145l-362 -0.00195312c-64 98 -116.5 174.833 -157.5 230.5s-89.833 117.5 -146.5 185.5h-34v-269
c0 -16.667 2.5 -30.167 7.5 -40.5s16.833 -19.5 35.5 -27.5c8 -3.33301 19.833 -7.5 35.5 -12.5s29.5 -7.83301 41.5 -8.5v-58h-482v58c12.667 1.33301 27.834 3.5 45.501 6.5s31.5 6.5 41.5 10.5c17.333 7.33301 28.666 16.5 33.999 27.5s8 24.5 8 40.5v636
c0 16.667 -2 29.834 -6 39.501s-16 18.834 -36 27.501c-12.667 5.33301 -27.834 10.5 -45.501 15.5s-31.5 8.5 -41.5 10.5v58h515c116 0 204.333 -18.167 265 -54.5s91 -91.5 91 -165.5c0 -69.333 -20.167 -123.333 -60.5 -162s-95.166 -68 -164.499 -88l92 -118.5
l135 -170.5c13.333 -17.333 31.666 -36.5 54.999 -57.5s44 -34.833 62 -41.5c8 -2.66699 20.333 -5.66699 37 -9s28.334 -5 35.001 -5v-58zM1124 835.998c0 62 -17.333 105.668 -52 131.001s-84 38 -148 38h-50v-376h48c66 0 116.167 16.667 150.5 50
s51.5 85.666 51.5 156.999z" />
    <glyph glyph-name="macron" unicode="&#xaf;" horiz-adv-x="1440" 
d="M1445 1603h-1450v122h1450v-122z" />
    <glyph glyph-name="degree" unicode="&#xb0;" horiz-adv-x="860" 
d="M773 1129c0 -93.333 -31.833 -171.833 -95.5 -235.5s-146.5 -95.5 -248.5 -95.5s-184.667 32.167 -248 96.5s-95 142.5 -95 234.5c0 95.333 32.5 174.333 97.5 237s146.833 94 245.5 94c101.333 0 184 -31.833 248 -95.5s96 -142.167 96 -235.5zM593 1121
c0 81.333 -15.001 143.001 -45.001 185.001s-70 63 -120 63c-51.333 0 -91.166 -21.833 -119.499 -65.5s-42.5 -100.834 -42.5 -171.501c0 -76.667 14.333 -136.5 43 -179.5s69.667 -64.5 123 -64.5c45.333 0 83.5 20.5 114.5 61.5s46.5 98.167 46.5 171.5z" />
    <glyph glyph-name="plusminus" unicode="&#xb1;" horiz-adv-x="1440" 
d="M1275 0h-1111v163h473v395h-473v163h473v473h165v-473h473v-163h-473v-395h473v-163z" />
    <glyph glyph-name="twosuperior" unicode="&#xb2;" horiz-adv-x="1130" 
d="M1001 490l-823.999 0.000976562v141c26 27.333 70 63.833 132 109.5l156 114.5c26.667 19.333 54.667 42.833 84 70.5s50.666 52.5 63.999 74.5c18.667 29.333 32.667 56.666 42 81.999s14 60 14 104c0 59.333 -14.833 106.333 -44.5 141s-69.834 52 -120.501 52
c-15.333 0 -30.333 -1.16699 -45 -3.5s-29.334 -6.16602 -44.001 -11.499c6.66699 -18.667 13.834 -40 21.501 -64s11.5 -51 11.5 -81c0 -34.667 -12.833 -62.5 -38.5 -83.5s-58.5 -31.5 -98.5 -31.5c-37.333 0 -67.5 12.833 -90.5 38.5s-34.5 56.834 -34.5 93.501
c0 60.667 36.333 112.667 109 156s160 65 262 65c122.667 0 220 -24.5 292 -73.5s108 -116.833 108 -203.5c0 -57.333 -11 -106 -33 -146s-49.333 -73.333 -82 -100s-69.167 -49.834 -109.5 -69.501s-76.166 -35.834 -107.499 -48.501l-128 -54l-133 -57v-12h637v-203z" />
    <glyph glyph-name="threesuperior" unicode="&#xb3;" horiz-adv-x="1130" 
d="M881 932c28.667 -18.667 52 -42.832 70 -72.499s27 -66.834 27 -111.501c0 -84 -42.5 -154.333 -127.5 -211s-193.167 -85 -324.5 -85c-104.667 0 -194.334 21.5 -269.001 64.5s-112 95.167 -112 156.5c0 37.333 11 68.666 33 93.999s52.667 38 92 38
c40 0 72.667 -10.5 98 -31.5s38 -48.833 38 -83.5c0 -27.333 -3.83301 -53.5 -11.5 -78.5s-14.834 -46.167 -21.501 -63.5c14.667 -5.33301 31 -9.66602 49 -12.999s35 -5 51 -5c28 0 56.667 3.83301 86 11.5s53 19.167 71 34.5c21.333 18 37.666 40 48.999 66
s17 61.667 17 107c0 61.333 -13.5 107.166 -40.5 137.499s-72.833 45.5 -137.5 45.5h-88v93h62c60 0 103.5 16.333 130.5 49s40.5 83.667 40.5 153c0 47.333 -13.5 84.5 -40.5 111.5s-61.833 40.5 -104.5 40.5c-15.333 0 -31.5 -1.16699 -48.5 -3.5
s-32.833 -6.16602 -47.5 -11.499c6.66699 -18.667 13.834 -40 21.501 -64s11.5 -51 11.5 -81c0 -34.667 -12 -61.834 -36 -81.501s-56 -29.5 -96 -29.5c-37.333 0 -67.5 12.5 -90.5 37.5s-34.5 55.833 -34.5 92.5c0 61.333 36.833 113.166 110.5 155.499
s161.167 63.5 262.5 63.5c70 0 128.667 -7.5 176 -22.5s85.333 -35.167 114 -60.5c26.667 -22.667 45.167 -47.167 55.5 -73.5s15.5 -49.5 15.5 -69.5c0 -21.333 -3.33301 -43.833 -10 -67.5s-19 -45.5 -37 -65.5c-16.667 -19.333 -42.167 -38.5 -76.5 -57.5
s-74.5 -32.833 -120.5 -41.5v-11c30.667 -1.33301 63.834 -6.66602 99.501 -15.999s66.834 -22.666 93.501 -39.999z" />
    <glyph glyph-name="acute" unicode="&#xb4;" 
d="M804 1460c0 -30 -6.83203 -54.168 -20.499 -72.501s-35.5 -37.166 -65.5 -56.499c-32.667 -21.333 -84.334 -51.5 -155.001 -90.5s-150.667 -85.5 -240 -139.5l-42 38c58.667 78 104 140.167 136 186.5l83 118.5c28.667 40.667 56 68.167 82 82.5s58.333 21.5 97 21.5
c32 0 60.833 -8.66699 86.5 -26s38.5 -38 38.5 -62z" />
    <glyph glyph-name="mu1" unicode="&#xb5;" horiz-adv-x="1368" 
d="M1345 21c-29.333 -12.667 -64.0029 -24.335 -104.003 -35.002s-82.333 -16 -127 -16c-74.667 0 -132.834 14 -174.501 42s-68.167 69.333 -79.5 124h-6c-34 -57.333 -75.167 -99.333 -123.5 -126s-95.833 -40 -142.5 -40c-46 0 -85.333 4.66699 -118 14
s-60.667 24.666 -84 45.999h-11v-28c0 -27.333 10.5 -76.166 31.5 -146.499s31.5 -119.5 31.5 -147.5c0 -48 -17.833 -85.333 -53.5 -112s-75.5 -40 -119.5 -40c-45.333 0 -83.166 15.167 -113.499 45.5s-45.5 68.5 -45.5 114.5c0 40.667 5.83301 83 17.5 127
s20.167 81.667 25.5 113c6.66699 37.333 11.834 71.5 15.501 102.5s5.5 60.167 5.5 87.5v846h328v-661c0 -71.333 13.5 -122.666 40.5 -153.999s65.833 -47 116.5 -47c42.667 0 80.834 10.167 114.501 30.5s60.834 46.5 81.501 78.5v753h329v-777
c0 -27.333 4.33301 -49.666 13 -66.999s23 -31 43 -41c13.333 -6 31.333 -9.66699 54 -11s41 -2 55 -2v-73z" />
    <glyph glyph-name="paragraph" unicode="&#xb6;" horiz-adv-x="1124" 
d="M1075 1336l-111 -0.000976562v-1552h-123v1552h-165v-1552h-123v844c-132.667 0 -243.667 32.833 -333 98.5s-134 163.834 -134 294.501c0 110 37.5 203.833 112.5 281.5s178.167 116.5 309.5 116.5h567v-83z" />
    <glyph glyph-name="periodcentered" unicode="&#xb7;" horiz-adv-x="692" 
d="M544 546c0 -52.667 -19.5 -98.332 -58.5 -136.999s-85.167 -58 -138.5 -58c-54 0 -100.5 19.167 -139.5 57.5s-58.5 84.166 -58.5 137.499s19.5 99.5 58.5 138.5s85.5 58.5 139.5 58.5c53.333 0 99.5 -19.667 138.5 -59s58.5 -85.333 58.5 -138z" />
    <glyph glyph-name="cedilla" unicode="&#xb8;" 
d="M728 -252c0 -38 -9.66797 -70 -29.001 -96s-47 -45.667 -83 -59c-37.333 -14 -82.5 -23.667 -135.5 -29s-118.833 -8 -197.5 -8v78c33.333 0 66 0.166992 98 0.5s58 2.83301 78 7.5c23.333 4.66699 41.333 12.167 54 22.5s19 26.833 19 49.5c0 26.667 -12.667 44 -38 52
s-58.666 12 -99.999 12v239h86v-113c73.333 0 133 -12.5 179 -37.5s69 -64.5 69 -118.5z" />
    <glyph glyph-name="onesuperior" unicode="&#xb9;" horiz-adv-x="1130" 
d="M905 490l-627.001 -0.00488281v72c14.667 0.666992 38.834 2.83398 72.501 6.50098s56.5 7.83398 68.5 12.501c16 5.33301 28.167 13.5 36.5 24.5s12.5 27.167 12.5 48.5v582h-193v84h40c41.333 0 78.333 4.33301 111 13s60.667 20.334 84 35.001
c20 12.667 37.5 26.334 52.5 41.001s26.833 28 35.5 40h134c-1.33301 -27.333 -2.83301 -62.333 -4.5 -105s-2.5 -83 -2.5 -121v-561c0 -18.667 3.83301 -34 11.5 -46s19.167 -21.667 34.5 -29c12 -5.33301 33.333 -10.666 64 -15.999s54 -8.33301 70 -9v-72z" />
    <glyph glyph-name="ordmasculine" unicode="&#xba;" horiz-adv-x="1130" 
d="M1040 1037c0 -125.333 -42.1689 -228.501 -126.502 -309.501s-203.166 -121.5 -356.499 -121.5c-145.333 0 -259.666 40.5 -342.999 121.5s-125 182.5 -125 304.5c0 124.667 42 226.667 126 306s200.333 119 349 119c150 0 266.833 -39.667 350.5 -119
s125.5 -179.666 125.5 -300.999zM701.998 785.999c13.333 34.667 22.333 72.001 27 112.001s7 87 7 141c0 40 -2 81.5 -6 124.5s-12.333 80.167 -25 111.5c-12.667 32 -30.167 57.5 -52.5 76.5s-51.5 28.5 -87.5 28.5c-38 0 -68.167 -10 -90.5 -30
s-39.833 -46.333 -52.5 -79c-12 -32 -19.833 -68.667 -23.5 -110s-5.5 -81 -5.5 -119c0 -57.333 1.83301 -104.833 5.5 -142.5s12.5 -74.834 26.5 -111.501c12 -32 29.333 -57.5 52 -76.5s52 -28.5 88 -28.5c34 0 62.333 9.16699 85 27.5s40 43.5 52 75.5z" />
    <glyph glyph-name="guillemotright" unicode="&#xbb;" horiz-adv-x="1250" 
d="M1102 547c0 -31.333 -5.83398 -58.6689 -17.501 -82.002s-30.167 -44.666 -55.5 -63.999c-41.333 -33.333 -99 -76.666 -173 -129.999l-245 -174l-52 43l308 403l-308 409l52 43l243.5 -173.5c73.667 -53 131.834 -96.833 174.501 -131.5
c24 -18.667 42.167 -39.167 54.5 -61.5s18.5 -49.5 18.5 -81.5zM662.999 546.997c0 -31.333 -5.83398 -58.6689 -17.501 -82.002s-30.167 -44.666 -55.5 -63.999c-41.333 -33.333 -99 -76.666 -173 -129.999l-245 -174l-52 43l308 403l-308 409l52 43l243.5 -173.5
c73.667 -53 131.834 -96.833 174.501 -131.5c24 -18.667 42.167 -39.167 54.5 -61.5s18.5 -49.5 18.5 -81.5z" />
    <glyph glyph-name="onequarter" unicode="&#xbc;" horiz-adv-x="2194" 
d="M775 490l-627.001 -0.00488281v72c14.667 0.666992 38.834 2.83398 72.501 6.50098s56.5 7.83398 68.5 12.501c16 5.33301 28.167 13.5 36.5 24.5s12.5 27.167 12.5 48.5v582h-193v84h40c41.333 0 78.333 4.33301 111 13s60.667 20.334 84 35.001
c20 12.667 37.5 26.334 52.5 41.001s26.833 28 35.5 40h134c-1.33301 -27.333 -2.83301 -62.333 -4.5 -105s-2.5 -83 -2.5 -121v-561c0 -18.667 3.83301 -34 11.5 -46s19.167 -21.667 34.5 -29c12 -5.33301 33.333 -10.666 64 -15.999s54 -8.33301 70 -9v-72zM2068 225.995
h-155v-246h-233v246h-477v139l502 600h208v-592h155v-147zM1680 372.995v421l-354 -421h354zM1580 1429l-818 -1429h-156l816 1429h158z" />
    <glyph glyph-name="onehalf" unicode="&#xbd;" horiz-adv-x="2194" 
d="M775 490l-627.001 -0.00488281v72c14.667 0.666992 38.834 2.83398 72.501 6.50098s56.5 7.83398 68.5 12.501c16 5.33301 28.167 13.5 36.5 24.5s12.5 27.167 12.5 48.5v582h-193v84h40c41.333 0 78.333 4.33301 111 13s60.667 20.334 84 35.001
c20 12.667 37.5 26.334 52.5 41.001s26.833 28 35.5 40h134c-1.33301 -27.333 -2.83301 -62.333 -4.5 -105s-2.5 -83 -2.5 -121v-561c0 -18.667 3.83301 -34 11.5 -46s19.167 -21.667 34.5 -29c12 -5.33301 33.333 -10.666 64 -15.999s54 -8.33301 70 -9v-72z
M2116 -0.00488281l-823.999 0.000976562v141c26 27.333 70 63.833 132 109.5l156 114.5c26.667 19.333 54.667 42.833 84 70.5s50.666 52.5 63.999 74.5c18.667 29.333 32.667 56.666 42 81.999s14 60 14 104c0 59.333 -14.833 106.333 -44.5 141s-69.834 52 -120.501 52
c-15.333 0 -30.333 -1.16699 -45 -3.5s-29.334 -6.16602 -44.001 -11.499c6.66699 -18.667 13.834 -40 21.501 -64s11.5 -51 11.5 -81c0 -34.667 -12.833 -62.5 -38.5 -83.5s-58.5 -31.5 -98.5 -31.5c-37.333 0 -67.5 12.833 -90.5 38.5s-34.5 56.834 -34.5 93.501
c0 60.667 36.333 112.667 109 156s160 65 262 65c122.667 0 220 -24.5 292 -73.5s108 -116.833 108 -203.5c0 -57.333 -11 -106 -33 -146s-49.333 -73.333 -82 -100s-69.167 -49.834 -109.5 -69.501s-76.166 -35.834 -107.499 -48.501l-128 -54l-133 -57v-12h637v-203z
M1540 1429l-818 -1429h-156l816 1429h158z" />
    <glyph glyph-name="threequarters" unicode="&#xbe;" horiz-adv-x="2194" 
d="M851 932c28.667 -18.667 52 -42.832 70 -72.499s27 -66.834 27 -111.501c0 -84 -42.5 -154.333 -127.5 -211s-193.167 -85 -324.5 -85c-104.667 0 -194.334 21.5 -269.001 64.5s-112 95.167 -112 156.5c0 37.333 11 68.666 33 93.999s52.667 38 92 38
c40 0 72.667 -10.5 98 -31.5s38 -48.833 38 -83.5c0 -27.333 -3.83301 -53.5 -11.5 -78.5s-14.834 -46.167 -21.501 -63.5c14.667 -5.33301 31 -9.66602 49 -12.999s35 -5 51 -5c28 0 56.667 3.83301 86 11.5s53 19.167 71 34.5c21.333 18 37.666 40 48.999 66
s17 61.667 17 107c0 61.333 -13.5 107.166 -40.5 137.499s-72.833 45.5 -137.5 45.5h-88v93h62c60 0 103.5 16.333 130.5 49s40.5 83.667 40.5 153c0 47.333 -13.5 84.5 -40.5 111.5s-61.833 40.5 -104.5 40.5c-15.333 0 -31.5 -1.16699 -48.5 -3.5
s-32.833 -6.16602 -47.5 -11.499c6.66699 -18.667 13.834 -40 21.501 -64s11.5 -51 11.5 -81c0 -34.667 -12 -61.834 -36 -81.501s-56 -29.5 -96 -29.5c-37.333 0 -67.5 12.5 -90.5 37.5s-34.5 55.833 -34.5 92.5c0 61.333 36.833 113.166 110.5 155.499
s161.167 63.5 262.5 63.5c70 0 128.667 -7.5 176 -22.5s85.333 -35.167 114 -60.5c26.667 -22.667 45.167 -47.167 55.5 -73.5s15.5 -49.5 15.5 -69.5c0 -21.333 -3.33301 -43.833 -10 -67.5s-19 -45.5 -37 -65.5c-16.667 -19.333 -42.167 -38.5 -76.5 -57.5
s-74.5 -32.833 -120.5 -41.5v-11c30.667 -1.33301 63.834 -6.66602 99.501 -15.999s66.834 -22.666 93.501 -39.999zM2113 226.002h-155v-246h-233v246h-477v139l502 600h208v-592h155v-147zM1725 373.002v421l-354 -421h354zM1677 1429l-818 -1429h-156l816 1429h158z" />
    <glyph glyph-name="questiondown" unicode="&#xbf;" horiz-adv-x="1123" 
d="M853 1267c0 -50.667 -19.167 -94.5 -57.5 -131.5s-83.5 -55.5 -135.5 -55.5c-51.333 0 -96.166 18.5 -134.499 55.5s-57.5 80.833 -57.5 131.5s19.167 94.167 57.5 130.5s83.166 54.5 134.499 54.5c52 0 97.167 -18.167 135.5 -54.5s57.5 -79.833 57.5 -130.5zM1045 246
c0 -76.667 -43.6689 -141.669 -131.002 -195.002s-192.666 -80 -315.999 -80c-146.667 0 -265 38.333 -355 115s-135 176.667 -135 300c0 129.333 43.833 236 131.5 320s212.5 133.667 374.5 149l6 136h89v-389c-93.333 -8.66699 -168.166 -38.667 -224.499 -90
s-84.5 -124 -84.5 -218c0 -73.333 19.333 -131.666 58 -174.999s90 -65 154 -65c26 0 51 3.16699 75 9.5s44 14.833 60 25.5c-7.33301 22 -15.333 48.667 -24 80s-13 63.333 -13 96c0 46.667 15.167 82.834 45.5 108.501s72.5 38.5 126.5 38.5c50.667 0 90.5 -16 119.5 -48
s43.5 -71.333 43.5 -118z" />
    <glyph glyph-name="Agrave" unicode="&#xc0;" horiz-adv-x="1553" 
d="M1609 0l-773 0.000976562v78c36 2.66699 78.333 9.16699 127 19.5s73 23.166 73 38.499c0 5.33301 -0.5 11.333 -1.5 18s-3.83301 15.667 -8.5 27l-121 294h-490c-11.333 -27.333 -23.833 -59.333 -37.5 -96l-35.5 -98c-12.667 -37.333 -20.167 -64.333 -22.5 -81
s-3.5 -28.334 -3.5 -35.001c0 -21.333 16.167 -39.5 48.5 -54.5s86.166 -25.833 161.499 -32.5v-78h-582v78c22 1.33301 46.833 4.83301 74.5 10.5s49.5 13.5 65.5 23.5c27.333 16 50.5 35.667 69.5 59s34.833 51 47.5 83l232.5 563l257.5 622h200l307 -762l189 -464
c8.66699 -20 19.667 -38.167 33 -54.5s32.333 -31.833 57 -46.5c18.667 -10.667 40.334 -18.667 65.001 -24s47 -8.66602 67 -9.99902v-78zM864 574.001l-206 514l-203 -514h409zM990 1526l-33.001 -41c-108.667 46.667 -198.667 82.5 -270 107.5s-124 44.833 -158 59.5
s-59.333 30.5 -76 47.5s-25 39.833 -25 68.5s14 52.5 42 71.5s64 28.5 108 28.5c26.667 0 51.167 -5.66699 73.5 -17s46.833 -31 73.5 -59l102.5 -107.5c37.667 -39 91.834 -91.833 162.501 -158.5z" />
    <glyph glyph-name="Aacute" unicode="&#xc1;" horiz-adv-x="1553" 
d="M1609 0l-773 0.000976562v78c36 2.66699 78.333 9.16699 127 19.5s73 23.166 73 38.499c0 5.33301 -0.5 11.333 -1.5 18s-3.83301 15.667 -8.5 27l-121 294h-490c-11.333 -27.333 -23.833 -59.333 -37.5 -96l-35.5 -98c-12.667 -37.333 -20.167 -64.333 -22.5 -81
s-3.5 -28.334 -3.5 -35.001c0 -21.333 16.167 -39.5 48.5 -54.5s86.166 -25.833 161.499 -32.5v-78h-582v78c22 1.33301 46.833 4.83301 74.5 10.5s49.5 13.5 65.5 23.5c27.333 16 50.5 35.667 69.5 59s34.833 51 47.5 83l232.5 563l257.5 622h200l307 -762l189 -464
c8.66699 -20 19.667 -38.167 33 -54.5s32.333 -31.833 57 -46.5c18.667 -10.667 40.334 -18.667 65.001 -24s47 -8.66602 67 -9.99902v-78zM864 574.001l-206 514l-203 -514h409zM1128 1768c0 -28 -8.66406 -51.002 -25.9971 -69.002s-42.333 -33.667 -75 -47
c-37.333 -15.333 -93.333 -36.666 -168 -63.999s-161.334 -61.666 -260.001 -102.999l-33 41l155 151l110 115c25.333 26.667 49.666 46 72.999 58s48 18 74 18c43.333 0 79.166 -9.16699 107.499 -27.5s42.5 -42.5 42.5 -72.5z" />
    <glyph glyph-name="Acircumflex" unicode="&#xc2;" horiz-adv-x="1553" 
d="M1609 0l-773 0.000976562v78c36 2.66699 78.333 9.16699 127 19.5s73 23.166 73 38.499c0 5.33301 -0.5 11.333 -1.5 18s-3.83301 15.667 -8.5 27l-121 294h-490c-11.333 -27.333 -23.833 -59.333 -37.5 -96l-35.5 -98c-12.667 -37.333 -20.167 -64.333 -22.5 -81
s-3.5 -28.334 -3.5 -35.001c0 -21.333 16.167 -39.5 48.5 -54.5s86.166 -25.833 161.499 -32.5v-78h-582v78c22 1.33301 46.833 4.83301 74.5 10.5s49.5 13.5 65.5 23.5c27.333 16 50.5 35.667 69.5 59s34.833 51 47.5 83l232.5 563l257.5 622h200l307 -762l189 -464
c8.66699 -20 19.667 -38.167 33 -54.5s32.333 -31.833 57 -46.5c18.667 -10.667 40.334 -18.667 65.001 -24s47 -8.66602 67 -9.99902v-78zM864 574.001l-206 514l-203 -514h409zM1171 1513l-33.002 -29.001l-351 203l-344 -203l-33 29l155.5 189
c34.333 40.667 62.833 75.667 85.5 105c15.333 20 33.5 35.167 54.5 45.5s49.5 15.5 85.5 15.5c36.667 0 63.834 -4.66699 81.501 -14s34.834 -23.666 51.501 -42.999l82.5 -98z" />
    <glyph glyph-name="Atilde" unicode="&#xc3;" horiz-adv-x="1553" 
d="M1609 0l-773 0.000976562v78c36 2.66699 78.333 9.16699 127 19.5s73 23.166 73 38.499c0 5.33301 -0.5 11.333 -1.5 18s-3.83301 15.667 -8.5 27l-121 294h-490c-11.333 -27.333 -23.833 -59.333 -37.5 -96l-35.5 -98c-12.667 -37.333 -20.167 -64.333 -22.5 -81
s-3.5 -28.334 -3.5 -35.001c0 -21.333 16.167 -39.5 48.5 -54.5s86.166 -25.833 161.499 -32.5v-78h-582v78c22 1.33301 46.833 4.83301 74.5 10.5s49.5 13.5 65.5 23.5c27.333 16 50.5 35.667 69.5 59s34.833 51 47.5 83l232.5 563l257.5 622h200l307 -762l189 -464
c8.66699 -20 19.667 -38.167 33 -54.5s32.333 -31.833 57 -46.5c18.667 -10.667 40.334 -18.667 65.001 -24s47 -8.66602 67 -9.99902v-78zM864 574.001l-206 514l-203 -514h409zM1231 1844c-8 -28.667 -21.167 -60.833 -39.5 -96.5s-40.5 -68.167 -66.5 -97.5
c-29.333 -32.667 -59.333 -58.667 -90 -78s-66.334 -29 -107.001 -29c-48 0 -89.833 5.83301 -125.5 17.5s-66.5 24.167 -92.5 37.5c-22.667 12 -47.834 24.333 -75.501 37s-53.834 19 -78.501 19c-30 0 -55.167 -11.333 -75.5 -34s-44.166 -60.667 -71.499 -114l-72 30
c9.33301 26.667 22.666 56.667 39.999 90s39 66.333 65 99c22.667 28.667 51.334 54 86.001 76s69.334 33 104.001 33c44 0 83.333 -5.5 118 -16.5s66.667 -23.833 96 -38.5l75.5 -38.5c19.667 -10.333 43.834 -15.5 72.501 -15.5c53.333 0 89.833 13.333 109.5 40
s36.5 61 50.5 103z" />
    <glyph glyph-name="Adieresis" unicode="&#xc4;" horiz-adv-x="1553" 
d="M1609 0l-773 0.000976562v78c36 2.66699 78.333 9.16699 127 19.5s73 23.166 73 38.499c0 5.33301 -0.5 11.333 -1.5 18s-3.83301 15.667 -8.5 27l-121 294h-490c-11.333 -27.333 -23.833 -59.333 -37.5 -96l-35.5 -98c-12.667 -37.333 -20.167 -64.333 -22.5 -81
s-3.5 -28.334 -3.5 -35.001c0 -21.333 16.167 -39.5 48.5 -54.5s86.166 -25.833 161.499 -32.5v-78h-582v78c22 1.33301 46.833 4.83301 74.5 10.5s49.5 13.5 65.5 23.5c27.333 16 50.5 35.667 69.5 59s34.833 51 47.5 83l232.5 563l257.5 622h200l307 -762l189 -464
c8.66699 -20 19.667 -38.167 33 -54.5s32.333 -31.833 57 -46.5c18.667 -10.667 40.334 -18.667 65.001 -24s47 -8.66602 67 -9.99902v-78zM864 574.001l-206 514l-203 -514h409zM1219 1690c0 -44.667 -15.833 -83.832 -47.5 -117.499s-68.834 -50.5 -111.501 -50.5
c-43.333 0 -80.833 16.667 -112.5 50s-47.5 72.666 -47.5 117.999c0 44.667 15.667 83.834 47 117.501s69 50.5 113 50.5c42.667 0 79.834 -16.833 111.501 -50.5s47.5 -72.834 47.5 -117.501zM683 1690c0 -44.667 -16.001 -83.832 -48.001 -117.499
s-69.333 -50.5 -112 -50.5c-43.333 0 -80.666 16.667 -111.999 50s-47 72.666 -47 117.999c0 44.667 15.5 83.834 46.5 117.501s68.5 50.5 112.5 50.5c42.667 0 80 -16.833 112 -50.5s48 -72.834 48 -117.501z" />
    <glyph glyph-name="Aring" unicode="&#xc5;" horiz-adv-x="1553" 
d="M1609 0l-772.999 0.00195312v78c36 2.66699 78.333 9.16699 127 19.5s73 23.166 73 38.499c0 5.33301 -0.5 11.333 -1.5 18s-3.83301 15.667 -8.5 27l-121 294h-490c-11.333 -27.333 -23.833 -59.333 -37.5 -96l-35.5 -98c-12.667 -37.333 -20.167 -64.333 -22.5 -81
s-3.5 -28.334 -3.5 -35.001c0 -21.333 16.167 -39.5 48.5 -54.5s86.166 -25.833 161.499 -32.5v-78h-582v78c22 1.33301 46.833 4.83301 74.5 10.5s49.5 13.5 65.5 23.5c27.333 16 50.5 35.667 69.5 59s34.833 51 47.5 83l238.5 577.5l242.5 585.5
c-56.667 14.667 -101.334 41.167 -134.001 79.5s-49 85.166 -49 140.499c0 68 27.333 123.5 82 166.5s122 64.5 202 64.5c82 0 149.833 -21 203.5 -63s80.5 -98 80.5 -168c0 -52 -15.333 -97.167 -46 -135.5s-72 -65.5 -124 -81.5l295.5 -731l194.5 -476
c8.66699 -20 19.667 -38.167 33 -54.5s32.333 -31.833 57 -46.5c18.667 -10.667 40.334 -18.667 65.001 -24s47 -8.66602 67 -9.99902v-78zM864.001 574.002l-206 514l-203 -514h409zM915.001 1635c0 47.333 -11.1699 86.334 -33.5029 117.001s-55.166 46 -98.499 46
c-42 0 -74.5 -14.667 -97.5 -44s-34.5 -69 -34.5 -119c0 -48 11.333 -87.5 34 -118.5s55.334 -46.5 98.001 -46.5s75.334 15.167 98.001 45.5s34 70.166 34 119.499z" />
    <glyph glyph-name="AE" unicode="&#xc6;" horiz-adv-x="2191" 
d="M2041 1057l-75.999 -0.00292969c-19.333 54 -52.666 108.667 -99.999 164s-94.333 88 -141 98c-20 4 -47.833 6.66699 -83.5 8s-65.167 2 -88.5 2h-186v-548h126c36.667 0 70 4.33301 100 13s57.333 25.334 82 50.001c15.333 15.333 30.833 42.333 46.5 81
s25.834 72.334 30.501 101.001h76v-592h-76c-4 28 -14.167 63.167 -30.5 105.5s-31.833 71.5 -46.5 87.5c-22 24 -48 40.5 -78 49.5s-64.667 13.5 -104 13.5h-126v-409c0 -86.667 13 -140 39 -160s87 -30 183 -30c94 0 162 4.33301 204 13s71.667 21.334 89 38.001
c32 32.667 68 82.5 108 149.5s66.333 117.167 79 150.5h73l-27 -442h-1310v78c18.667 1.33301 44 4 76 8s54.667 8.66699 68 14c22.667 9.33301 39 22 49 38s15 37.667 15 65v388h-496l-120 -212l-55 -99c-24.667 -46 -38.667 -76.833 -42 -92.5s-5 -25.5 -5 -29.5
c0 -14 7.16699 -26 21.5 -36s31.166 -17.667 50.499 -23c21.333 -6 42.666 -10.667 63.999 -14s40.666 -5.66602 57.999 -6.99902v-78h-582v78c16.667 1.33301 39.667 5.16602 69 11.499s51.333 13.833 66 22.5c30 16 56.167 35.833 78.5 59.5s42.5 51.167 60.5 82.5
l300.5 511l321.5 551c-19.333 6 -47.833 11.167 -85.5 15.5s-70.5 7.5 -98.5 9.5v78h1423v-362zM1012 687.997v641h-77l-364 -641h441z" />
    <glyph glyph-name="Ccedilla" unicode="&#xc7;" horiz-adv-x="1465" 
d="M725 -32c-86 8 -166.67 28.3311 -242.003 60.998s-141.666 76.334 -198.999 131.001c-66 62.667 -118 140 -156 232s-57 193.333 -57 304c0 110 19.167 211.833 57.5 305.5s92.166 174.834 161.499 243.501c68 67.333 149.667 119.5 245 156.5s197.333 55.5 306 55.5
c78.667 0 150.334 -9.5 215.001 -28.5s119.334 -40.5 164.001 -64.5l62 55h87l9 -518h-88c-50 158 -110 274 -180 348s-155.333 111 -256 111c-125.333 0 -220.666 -55.167 -285.999 -165.5s-98 -265.166 -98 -464.499c0 -112.667 11.167 -208.834 33.5 -288.501
s51.5 -143.834 87.5 -192.501c38.667 -50.667 84.334 -87.5 137.001 -110.5s111 -34.5 175 -34.5c93.333 0 176.5 25 249.5 75s139.5 126.333 199.5 229l86 -52c-28.667 -58.667 -61.334 -111.167 -98.001 -157.5s-79 -86.166 -127 -119.499
c-52.667 -36.667 -110.834 -65 -174.501 -85s-139.5 -30 -227.5 -30v-60c73.333 0 133 -12.5 179 -37.5s69 -64.5 69 -118.5c0 -38 -9.66699 -70 -29 -96s-47 -45.667 -83 -59c-37.333 -14 -82.5 -23.667 -135.5 -29s-118.833 -8 -197.5 -8v78c33.333 0 66 0.166992 98 0.5
s58 2.83301 78 7.5c23.333 4.66699 41.333 12.167 54 22.5s19 26.833 19 49.5c0 26.667 -12.667 44 -38 52s-58.666 12 -99.999 12v190z" />
    <glyph glyph-name="Egrave" unicode="&#xc8;" horiz-adv-x="1477" 
d="M1327 1057l-76.0029 -0.00292969c-19.333 54 -52.666 108.667 -99.999 164s-94.333 88 -141 98c-20 4.66699 -47.833 7.5 -83.5 8.5s-65.167 1.5 -88.5 1.5h-206v-548h146c36.667 0 70 4.33301 100 13s57.333 25.334 82 50.001c15.333 15.333 30.833 42.333 46.5 81
s25.834 72.334 30.501 101.001h76v-592h-76c-4 28 -14.167 63.167 -30.5 105.5s-31.833 71.5 -46.5 87.5c-22 24 -48 40.5 -78 49.5s-64.667 13.5 -104 13.5h-146v-409c0 -42.667 3.16699 -76.5 9.5 -101.5s18.166 -44.167 35.499 -57.5c16.667 -12.667 39.5 -21 68.5 -25
s68.5 -6 118.5 -6c23.333 0 51.333 0.333008 84 1s61.334 2.66699 86.001 6c28 3.33301 54.167 8.33301 78.5 15s42.5 16.334 54.5 29.001c32 32.667 68 82.5 108 149.5s66.333 117.167 79 150.5h73l-27 -442h-1331v78c18.667 1.33301 44 4 76 8s54.667 8.66699 68 14
c25.333 10.667 42.333 24.167 51 40.5s13 37.166 13 62.499v1001c0 24 -3.66699 43.833 -11 59.5s-25 29.834 -53 42.501c-17.333 8 -41.666 15.333 -72.999 22s-55 11 -71 13v78h1258v-362zM979.997 1526l-33.001 -41c-108.667 46.667 -198.667 82.5 -270 107.5
s-124 44.833 -158 59.5s-59.333 30.5 -76 47.5s-25 39.833 -25 68.5s14 52.5 42 71.5s64 28.5 108 28.5c26.667 0 51.167 -5.66699 73.5 -17s46.833 -31 73.5 -59l102.5 -107.5c37.667 -39 91.834 -91.833 162.501 -158.5z" />
    <glyph glyph-name="Eacute" unicode="&#xc9;" horiz-adv-x="1477" 
d="M1327 1057l-76.0029 -0.00292969c-19.333 54 -52.666 108.667 -99.999 164s-94.333 88 -141 98c-20 4.66699 -47.833 7.5 -83.5 8.5s-65.167 1.5 -88.5 1.5h-206v-548h146c36.667 0 70 4.33301 100 13s57.333 25.334 82 50.001c15.333 15.333 30.833 42.333 46.5 81
s25.834 72.334 30.501 101.001h76v-592h-76c-4 28 -14.167 63.167 -30.5 105.5s-31.833 71.5 -46.5 87.5c-22 24 -48 40.5 -78 49.5s-64.667 13.5 -104 13.5h-146v-409c0 -42.667 3.16699 -76.5 9.5 -101.5s18.166 -44.167 35.499 -57.5c16.667 -12.667 39.5 -21 68.5 -25
s68.5 -6 118.5 -6c23.333 0 51.333 0.333008 84 1s61.334 2.66699 86.001 6c28 3.33301 54.167 8.33301 78.5 15s42.5 16.334 54.5 29.001c32 32.667 68 82.5 108 149.5s66.333 117.167 79 150.5h73l-27 -442h-1331v78c18.667 1.33301 44 4 76 8s54.667 8.66699 68 14
c25.333 10.667 42.333 24.167 51 40.5s13 37.166 13 62.499v1001c0 24 -3.66699 43.833 -11 59.5s-25 29.834 -53 42.501c-17.333 8 -41.666 15.333 -72.999 22s-55 11 -71 13v78h1258v-362zM1063 1768c0 -28 -8.66406 -51.002 -25.9971 -69.002s-42.333 -33.667 -75 -47
c-37.333 -15.333 -93.333 -36.666 -168 -63.999s-161.334 -61.666 -260.001 -102.999l-33 41l155 151l110 115c25.333 26.667 49.666 46 72.999 58s48 18 74 18c43.333 0 79.166 -9.16699 107.499 -27.5s42.5 -42.5 42.5 -72.5z" />
    <glyph glyph-name="Ecircumflex" unicode="&#xca;" horiz-adv-x="1477" 
d="M1327 1057l-76.0029 -0.00292969c-19.333 54 -52.666 108.667 -99.999 164s-94.333 88 -141 98c-20 4.66699 -47.833 7.5 -83.5 8.5s-65.167 1.5 -88.5 1.5h-206v-548h146c36.667 0 70 4.33301 100 13s57.333 25.334 82 50.001c15.333 15.333 30.833 42.333 46.5 81
s25.834 72.334 30.501 101.001h76v-592h-76c-4 28 -14.167 63.167 -30.5 105.5s-31.833 71.5 -46.5 87.5c-22 24 -48 40.5 -78 49.5s-64.667 13.5 -104 13.5h-146v-409c0 -42.667 3.16699 -76.5 9.5 -101.5s18.166 -44.167 35.499 -57.5c16.667 -12.667 39.5 -21 68.5 -25
s68.5 -6 118.5 -6c23.333 0 51.333 0.333008 84 1s61.334 2.66699 86.001 6c28 3.33301 54.167 8.33301 78.5 15s42.5 16.334 54.5 29.001c32 32.667 68 82.5 108 149.5s66.333 117.167 79 150.5h73l-27 -442h-1331v78c18.667 1.33301 44 4 76 8s54.667 8.66699 68 14
c25.333 10.667 42.333 24.167 51 40.5s13 37.166 13 62.499v1001c0 24 -3.66699 43.833 -11 59.5s-25 29.834 -53 42.501c-17.333 8 -41.666 15.333 -72.999 22s-55 11 -71 13v78h1258v-362zM1150 1513l-33.002 -29.001l-351 203l-344 -203l-33 29l155.5 189
c34.333 40.667 62.833 75.667 85.5 105c15.333 20 33.5 35.167 54.5 45.5s49.5 15.5 85.5 15.5c36.667 0 63.834 -4.66699 81.501 -14s34.834 -23.666 51.501 -42.999l82.5 -98z" />
    <glyph glyph-name="Edieresis" unicode="&#xcb;" horiz-adv-x="1477" 
d="M1327 1057l-76.0029 -0.00292969c-19.333 54 -52.666 108.667 -99.999 164s-94.333 88 -141 98c-20 4.66699 -47.833 7.5 -83.5 8.5s-65.167 1.5 -88.5 1.5h-206v-548h146c36.667 0 70 4.33301 100 13s57.333 25.334 82 50.001c15.333 15.333 30.833 42.333 46.5 81
s25.834 72.334 30.501 101.001h76v-592h-76c-4 28 -14.167 63.167 -30.5 105.5s-31.833 71.5 -46.5 87.5c-22 24 -48 40.5 -78 49.5s-64.667 13.5 -104 13.5h-146v-409c0 -42.667 3.16699 -76.5 9.5 -101.5s18.166 -44.167 35.499 -57.5c16.667 -12.667 39.5 -21 68.5 -25
s68.5 -6 118.5 -6c23.333 0 51.333 0.333008 84 1s61.334 2.66699 86.001 6c28 3.33301 54.167 8.33301 78.5 15s42.5 16.334 54.5 29.001c32 32.667 68 82.5 108 149.5s66.333 117.167 79 150.5h73l-27 -442h-1331v78c18.667 1.33301 44 4 76 8s54.667 8.66699 68 14
c25.333 10.667 42.333 24.167 51 40.5s13 37.166 13 62.499v1001c0 24 -3.66699 43.833 -11 59.5s-25 29.834 -53 42.501c-17.333 8 -41.666 15.333 -72.999 22s-55 11 -71 13v78h1258v-362zM1207 1700c0 -44.667 -15.833 -83.832 -47.5 -117.499
s-68.834 -50.5 -111.501 -50.5c-43.333 0 -80.833 16.667 -112.5 50s-47.5 72.666 -47.5 117.999c0 44.667 15.667 83.834 47 117.501s69 50.5 113 50.5c42.667 0 79.834 -16.833 111.501 -50.5s47.5 -72.834 47.5 -117.501zM670.997 1700
c0 -44.667 -16.001 -83.832 -48.001 -117.499s-69.333 -50.5 -112 -50.5c-43.333 0 -80.666 16.667 -111.999 50s-47 72.666 -47 117.999c0 44.667 15.5 83.834 46.5 117.501s68.5 50.5 112.5 50.5c42.667 0 80 -16.833 112 -50.5s48 -72.834 48 -117.501z" />
    <glyph glyph-name="Igrave" unicode="&#xcc;" horiz-adv-x="913" 
d="M850 0l-787 0.000976562v78l79.5 6c35 2.66699 59.167 6.66699 72.5 12c24.667 10 41.5 23.167 50.5 39.5s13.5 37.166 13.5 62.499v1006c0 22.667 -4.33301 42.667 -13 60s-25.667 31.333 -51 42c-16 6.66699 -39.667 13.5 -71 20.5s-58.333 11.833 -81 14.5v78h787v-78
c-20 -2 -45 -4.83301 -75 -8.5s-55.333 -8.83398 -76 -15.501c-26 -8.66699 -43.333 -22.167 -52 -40.5s-13 -39.166 -13 -62.499v-1005c0 -24 4.5 -44.5 13.5 -61.5s26.167 -30.833 51.5 -41.5c14 -6 37.167 -11.833 69.5 -17.5s59.5 -9.16699 81.5 -10.5v-78zM760 1526
l-33.001 -41c-108.667 46.667 -198.667 82.5 -270 107.5s-124 44.833 -158 59.5s-59.333 30.5 -76 47.5s-25 39.833 -25 68.5s14 52.5 42 71.5s64 28.5 108 28.5c26.667 0 51.167 -5.66699 73.5 -17s46.833 -31 73.5 -59l102.5 -107.5
c37.667 -39 91.834 -91.833 162.501 -158.5z" />
    <glyph glyph-name="Iacute" unicode="&#xcd;" horiz-adv-x="913" 
d="M850 0l-787 0.000976562v78l79.5 6c35 2.66699 59.167 6.66699 72.5 12c24.667 10 41.5 23.167 50.5 39.5s13.5 37.166 13.5 62.499v1006c0 22.667 -4.33301 42.667 -13 60s-25.667 31.333 -51 42c-16 6.66699 -39.667 13.5 -71 20.5s-58.333 11.833 -81 14.5v78h787v-78
c-20 -2 -45 -4.83301 -75 -8.5s-55.333 -8.83398 -76 -15.501c-26 -8.66699 -43.333 -22.167 -52 -40.5s-13 -39.166 -13 -62.499v-1005c0 -24 4.5 -44.5 13.5 -61.5s26.167 -30.833 51.5 -41.5c14 -6 37.167 -11.833 69.5 -17.5s59.5 -9.16699 81.5 -10.5v-78zM728 1768
c0 -28 -8.66406 -51.002 -25.9971 -69.002s-42.333 -33.667 -75 -47c-37.333 -15.333 -93.333 -36.666 -168 -63.999s-161.334 -61.666 -260.001 -102.999l-33 41l155 151l110 115c25.333 26.667 49.666 46 72.999 58s48 18 74 18c43.333 0 79.166 -9.16699 107.499 -27.5
s42.5 -42.5 42.5 -72.5z" />
    <glyph glyph-name="Icircumflex" unicode="&#xce;" horiz-adv-x="913" 
d="M850 0l-787 0.000976562v78l79.5 6c35 2.66699 59.167 6.66699 72.5 12c24.667 10 41.5 23.167 50.5 39.5s13.5 37.166 13.5 62.499v1006c0 22.667 -4.33301 42.667 -13 60s-25.667 31.333 -51 42c-16 6.66699 -39.667 13.5 -71 20.5s-58.333 11.833 -81 14.5v78h787v-78
c-20 -2 -45 -4.83301 -75 -8.5s-55.333 -8.83398 -76 -15.501c-26 -8.66699 -43.333 -22.167 -52 -40.5s-13 -39.166 -13 -62.499v-1005c0 -24 4.5 -44.5 13.5 -61.5s26.167 -30.833 51.5 -41.5c14 -6 37.167 -11.833 69.5 -17.5s59.5 -9.16699 81.5 -10.5v-78zM837 1513
l-33.002 -29.001l-351 203l-344 -203l-33 29l155.5 189c34.333 40.667 62.833 75.667 85.5 105c15.333 20 33.5 35.167 54.5 45.5s49.5 15.5 85.5 15.5c36.667 0 63.834 -4.66699 81.501 -14s34.834 -23.666 51.501 -42.999l82.5 -98z" />
    <glyph glyph-name="Idieresis" unicode="&#xcf;" horiz-adv-x="913" 
d="M850 0l-787 0.000976562v78l79.5 6c35 2.66699 59.167 6.66699 72.5 12c24.667 10 41.5 23.167 50.5 39.5s13.5 37.166 13.5 62.499v1006c0 22.667 -4.33301 42.667 -13 60s-25.667 31.333 -51 42c-16 6.66699 -39.667 13.5 -71 20.5s-58.333 11.833 -81 14.5v78h787v-78
c-20 -2 -45 -4.83301 -75 -8.5s-55.333 -8.83398 -76 -15.501c-26 -8.66699 -43.333 -22.167 -52 -40.5s-13 -39.166 -13 -62.499v-1005c0 -24 4.5 -44.5 13.5 -61.5s26.167 -30.833 51.5 -41.5c14 -6 37.167 -11.833 69.5 -17.5s59.5 -9.16699 81.5 -10.5v-78zM863 1700
c0 -44.667 -15.833 -83.832 -47.5 -117.499s-68.834 -50.5 -111.501 -50.5c-43.333 0 -80.833 16.667 -112.5 50s-47.5 72.666 -47.5 117.999c0 44.667 15.667 83.834 47 117.501s69 50.5 113 50.5c42.667 0 79.834 -16.833 111.501 -50.5s47.5 -72.834 47.5 -117.501z
M368 1700c0 -44.667 -16.001 -83.832 -48.001 -117.499s-69.333 -50.5 -112 -50.5c-43.333 0 -80.666 16.667 -111.999 50s-47 72.666 -47 117.999c0 44.667 15.5 83.834 46.5 117.501s68.5 50.5 112.5 50.5c42.667 0 80 -16.833 112 -50.5s48 -72.834 48 -117.501z" />
    <glyph glyph-name="Eth" unicode="&#xd0;" horiz-adv-x="1708" 
d="M1347 1273c86.667 -56.667 156.666 -132.165 209.999 -226.498s80 -209.833 80 -346.5c0 -120 -23.833 -224.5 -71.5 -313.5s-110.834 -161.833 -189.501 -218.5c-80 -56.667 -170.833 -98.834 -272.5 -126.501s-208.167 -41.5 -319.5 -41.5h-715v78
c21.333 0.666992 48 2.66699 80 6s53.333 7.33301 64 12c24 10 40.667 23.5 50 40.5s14 37.5 14 61.5v488h-195v105h195v413c0 22.667 -4.33301 43.167 -13 61.5s-25.667 33.166 -51 44.499s-52.166 19 -80.499 23s-50.166 6.66699 -65.499 8v78h755
c80.667 0 167 -10.333 259 -31s180.667 -59 266 -115zM1237 701.002c0 94 -9.99805 179.667 -29.998 257s-49.333 143.333 -88 198s-86.834 97 -144.501 127s-123.167 45 -196.5 45c-23.333 0 -50 -0.5 -80 -1.5s-52.333 -1.83301 -67 -2.5v-533h305v-105h-305v-439
c0 -24 3.16699 -45.167 9.5 -63.5s17.166 -34.166 32.499 -47.499c16 -14.667 35.167 -25.834 57.5 -33.501s51.5 -11.5 87.5 -11.5c75.333 0 140 14 194 42s97.667 69 131 123c32.667 53.333 56.5 116.833 71.5 190.5s22.5 158.5 22.5 254.5z" />
    <glyph glyph-name="Ntilde" unicode="&#xd1;" horiz-adv-x="1719" 
d="M1699 1341c-18.667 -2 -45.334 -5.66602 -80.001 -10.999s-66 -18.333 -94 -39c-24.667 -18 -42.167 -48.833 -52.5 -92.5s-15.5 -107.834 -15.5 -192.501v-1014h-178l-884 1097v-666c0 -82.667 5.5 -145.5 16.5 -188.5s28.833 -74.5 53.5 -94.5
c18 -14.667 46.667 -27.667 86 -39s70.666 -19 93.999 -23v-78h-610v78c26 2 55.833 6.83301 89.5 14.5s61.834 19.5 84.501 35.5c26 19.333 43.833 48.5 53.5 87.5s14.5 104.5 14.5 196.5v672c0 33.333 -5.16699 64.833 -15.5 94.5s-26.5 55.167 -48.5 76.5
c-23.333 22.667 -50.166 40.5 -80.499 53.5s-64.833 23.167 -103.5 30.5v80h534l776 -960v537c0 85.333 -5.66699 148.833 -17 190.5s-29.333 72.5 -54 92.5c-19.333 15.333 -48 28.5 -86 39.5s-68.667 18.5 -92 22.5v78h609v-78zM1332 1844
c-8 -28.667 -21.167 -60.833 -39.5 -96.5s-40.5 -68.167 -66.5 -97.5c-29.333 -32.667 -59.333 -58.667 -90 -78s-66.334 -29 -107.001 -29c-48 0 -89.833 5.83301 -125.5 17.5s-66.5 24.167 -92.5 37.5c-22.667 12 -47.834 24.333 -75.501 37s-53.834 19 -78.501 19
c-30 0 -55.167 -11.333 -75.5 -34s-44.166 -60.667 -71.499 -114l-72 30c9.33301 26.667 22.666 56.667 39.999 90s39 66.333 65 99c22.667 28.667 51.334 54 86.001 76s69.334 33 104.001 33c44 0 83.333 -5.5 118 -16.5s66.667 -23.833 96 -38.5l75.5 -38.5
c19.667 -10.333 43.834 -15.5 72.501 -15.5c53.333 0 89.833 13.333 109.5 40s36.5 61 50.5 103z" />
    <glyph glyph-name="Ograve" unicode="&#xd2;" horiz-adv-x="1679" 
d="M1380 1261c70 -64 125.501 -141.334 166.501 -232.001s61.5 -194 61.5 -310c0 -103.333 -17.333 -201.666 -52 -294.999s-84.667 -173.666 -150 -240.999c-68.667 -70 -149.334 -124.5 -242.001 -163.5s-203 -58.5 -331 -58.5c-103.333 0 -201 17 -293 51
s-173 83.333 -243 148c-69.333 63.333 -124.333 140.333 -165 231s-61 191.667 -61 303c0 116 19.833 221.167 59.5 315.5s94.167 175.166 163.5 242.499c68.667 66 150.167 116.833 244.5 152.5s194.833 53.5 301.5 53.5c106 0 205.5 -17.333 298.5 -52
s173.5 -83 241.5 -145zM1123 245.999c30 60.667 51.668 129.332 65.001 205.999s20 163.334 20 260.001c0 82 -5.83301 161.833 -17.5 239.5s-31.5 146.834 -59.5 207.501c-28.667 60.667 -66.667 109.334 -114 146.001s-106.333 55 -177 55
c-120.667 0 -212.334 -57.167 -275.001 -171.5s-94 -275.833 -94 -484.5c0 -88.667 6.83301 -172.334 20.5 -251.001s35.167 -147.334 64.5 -206.001c30 -59.333 68 -105.5 114 -138.5s102.667 -49.5 170 -49.5c66 0 122.667 16.667 170 50s85 79 113 137zM1107 1526
l-33.001 -41c-108.667 46.667 -198.667 82.5 -270 107.5s-124 44.833 -158 59.5s-59.333 30.5 -76 47.5s-25 39.833 -25 68.5s14 52.5 42 71.5s64 28.5 108 28.5c26.667 0 51.167 -5.66699 73.5 -17s46.833 -31 73.5 -59l102.5 -107.5
c37.667 -39 91.834 -91.833 162.501 -158.5z" />
    <glyph glyph-name="Oacute" unicode="&#xd3;" horiz-adv-x="1679" 
d="M1380 1261c70 -64 125.501 -141.334 166.501 -232.001s61.5 -194 61.5 -310c0 -103.333 -17.333 -201.666 -52 -294.999s-84.667 -173.666 -150 -240.999c-68.667 -70 -149.334 -124.5 -242.001 -163.5s-203 -58.5 -331 -58.5c-103.333 0 -201 17 -293 51
s-173 83.333 -243 148c-69.333 63.333 -124.333 140.333 -165 231s-61 191.667 -61 303c0 116 19.833 221.167 59.5 315.5s94.167 175.166 163.5 242.499c68.667 66 150.167 116.833 244.5 152.5s194.833 53.5 301.5 53.5c106 0 205.5 -17.333 298.5 -52
s173.5 -83 241.5 -145zM1123 245.999c30 60.667 51.668 129.332 65.001 205.999s20 163.334 20 260.001c0 82 -5.83301 161.833 -17.5 239.5s-31.5 146.834 -59.5 207.501c-28.667 60.667 -66.667 109.334 -114 146.001s-106.333 55 -177 55
c-120.667 0 -212.334 -57.167 -275.001 -171.5s-94 -275.833 -94 -484.5c0 -88.667 6.83301 -172.334 20.5 -251.001s35.167 -147.334 64.5 -206.001c30 -59.333 68 -105.5 114 -138.5s102.667 -49.5 170 -49.5c66 0 122.667 16.667 170 50s85 79 113 137zM1098 1768
c0 -28 -8.66406 -51.002 -25.9971 -69.002s-42.333 -33.667 -75 -47c-37.333 -15.333 -93.333 -36.666 -168 -63.999s-161.334 -61.666 -260.001 -102.999l-33 41l155 151l110 115c25.333 26.667 49.666 46 72.999 58s48 18 74 18c43.333 0 79.166 -9.16699 107.499 -27.5
s42.5 -42.5 42.5 -72.5z" />
    <glyph glyph-name="Ocircumflex" unicode="&#xd4;" horiz-adv-x="1679" 
d="M1380 1261c70 -64 125.501 -141.334 166.501 -232.001s61.5 -194 61.5 -310c0 -103.333 -17.333 -201.666 -52 -294.999s-84.667 -173.666 -150 -240.999c-68.667 -70 -149.334 -124.5 -242.001 -163.5s-203 -58.5 -331 -58.5c-103.333 0 -201 17 -293 51
s-173 83.333 -243 148c-69.333 63.333 -124.333 140.333 -165 231s-61 191.667 -61 303c0 116 19.833 221.167 59.5 315.5s94.167 175.166 163.5 242.499c68.667 66 150.167 116.833 244.5 152.5s194.833 53.5 301.5 53.5c106 0 205.5 -17.333 298.5 -52
s173.5 -83 241.5 -145zM1123 245.999c30 60.667 51.668 129.332 65.001 205.999s20 163.334 20 260.001c0 82 -5.83301 161.833 -17.5 239.5s-31.5 146.834 -59.5 207.501c-28.667 60.667 -66.667 109.334 -114 146.001s-106.333 55 -177 55
c-120.667 0 -212.334 -57.167 -275.001 -171.5s-94 -275.833 -94 -484.5c0 -88.667 6.83301 -172.334 20.5 -251.001s35.167 -147.334 64.5 -206.001c30 -59.333 68 -105.5 114 -138.5s102.667 -49.5 170 -49.5c66 0 122.667 16.667 170 50s85 79 113 137zM1220 1513
l-33.002 -29.001l-351 203l-344 -203l-33 29l155.5 189c34.333 40.667 62.833 75.667 85.5 105c15.333 20 33.5 35.167 54.5 45.5s49.5 15.5 85.5 15.5c36.667 0 63.834 -4.66699 81.501 -14s34.834 -23.666 51.501 -42.999l82.5 -98z" />
    <glyph glyph-name="Otilde" unicode="&#xd5;" horiz-adv-x="1679" 
d="M1380 1261c70 -64 125.501 -141.334 166.501 -232.001s61.5 -194 61.5 -310c0 -103.333 -17.333 -201.666 -52 -294.999s-84.667 -173.666 -150 -240.999c-68.667 -70 -149.334 -124.5 -242.001 -163.5s-203 -58.5 -331 -58.5c-103.333 0 -201 17 -293 51
s-173 83.333 -243 148c-69.333 63.333 -124.333 140.333 -165 231s-61 191.667 -61 303c0 116 19.833 221.167 59.5 315.5s94.167 175.166 163.5 242.499c68.667 66 150.167 116.833 244.5 152.5s194.833 53.5 301.5 53.5c106 0 205.5 -17.333 298.5 -52
s173.5 -83 241.5 -145zM1123 245.999c30 60.667 51.668 129.332 65.001 205.999s20 163.334 20 260.001c0 82 -5.83301 161.833 -17.5 239.5s-31.5 146.834 -59.5 207.501c-28.667 60.667 -66.667 109.334 -114 146.001s-106.333 55 -177 55
c-120.667 0 -212.334 -57.167 -275.001 -171.5s-94 -275.833 -94 -484.5c0 -88.667 6.83301 -172.334 20.5 -251.001s35.167 -147.334 64.5 -206.001c30 -59.333 68 -105.5 114 -138.5s102.667 -49.5 170 -49.5c66 0 122.667 16.667 170 50s85 79 113 137zM1286 1844
c-8 -28.667 -21.167 -60.833 -39.5 -96.5s-40.5 -68.167 -66.5 -97.5c-29.333 -32.667 -59.333 -58.667 -90 -78s-66.334 -29 -107.001 -29c-48 0 -89.833 5.83301 -125.5 17.5s-66.5 24.167 -92.5 37.5c-22.667 12 -47.834 24.333 -75.501 37s-53.834 19 -78.501 19
c-30 0 -55.167 -11.333 -75.5 -34s-44.166 -60.667 -71.499 -114l-72 30c9.33301 26.667 22.666 56.667 39.999 90s39 66.333 65 99c22.667 28.667 51.334 54 86.001 76s69.334 33 104.001 33c44 0 83.333 -5.5 118 -16.5s66.667 -23.833 96 -38.5l75.5 -38.5
c19.667 -10.333 43.834 -15.5 72.501 -15.5c53.333 0 89.833 13.333 109.5 40s36.5 61 50.5 103z" />
    <glyph glyph-name="Odieresis" unicode="&#xd6;" horiz-adv-x="1679" 
d="M1380 1261c70 -64 125.501 -141.334 166.501 -232.001s61.5 -194 61.5 -310c0 -103.333 -17.333 -201.666 -52 -294.999s-84.667 -173.666 -150 -240.999c-68.667 -70 -149.334 -124.5 -242.001 -163.5s-203 -58.5 -331 -58.5c-103.333 0 -201 17 -293 51
s-173 83.333 -243 148c-69.333 63.333 -124.333 140.333 -165 231s-61 191.667 -61 303c0 116 19.833 221.167 59.5 315.5s94.167 175.166 163.5 242.499c68.667 66 150.167 116.833 244.5 152.5s194.833 53.5 301.5 53.5c106 0 205.5 -17.333 298.5 -52
s173.5 -83 241.5 -145zM1123 245.999c30 60.667 51.668 129.332 65.001 205.999s20 163.334 20 260.001c0 82 -5.83301 161.833 -17.5 239.5s-31.5 146.834 -59.5 207.501c-28.667 60.667 -66.667 109.334 -114 146.001s-106.333 55 -177 55
c-120.667 0 -212.334 -57.167 -275.001 -171.5s-94 -275.833 -94 -484.5c0 -88.667 6.83301 -172.334 20.5 -251.001s35.167 -147.334 64.5 -206.001c30 -59.333 68 -105.5 114 -138.5s102.667 -49.5 170 -49.5c66 0 122.667 16.667 170 50s85 79 113 137zM1267 1700
c0 -44.667 -15.833 -83.832 -47.5 -117.499s-68.834 -50.5 -111.501 -50.5c-43.333 0 -80.833 16.667 -112.5 50s-47.5 72.666 -47.5 117.999c0 44.667 15.667 83.834 47 117.501s69 50.5 113 50.5c42.667 0 79.834 -16.833 111.501 -50.5s47.5 -72.834 47.5 -117.501z
M731.002 1700c0 -44.667 -16.001 -83.832 -48.001 -117.499s-69.333 -50.5 -112 -50.5c-43.333 0 -80.666 16.667 -111.999 50s-47 72.666 -47 117.999c0 44.667 15.5 83.834 46.5 117.501s68.5 50.5 112.5 50.5c42.667 0 80 -16.833 112 -50.5s48 -72.834 48 -117.501z" />
    <glyph glyph-name="multiply" unicode="&#xd7;" horiz-adv-x="1440" 
d="M1217 192l-115 -115l-383 384l-383 -384l-115 115l385 383l-385 382l115 116l383 -385l383 385l115 -116l-385 -382z" />
    <glyph glyph-name="Oslash" unicode="&#xd8;" horiz-adv-x="1679" 
d="M1608 719c0 -103.333 -17.332 -201.668 -51.999 -295.001s-84.667 -173.666 -150 -240.999c-68.667 -70 -149.334 -124.5 -242.001 -163.5s-203 -58.5 -331 -58.5c-90 0 -176.333 13.167 -259 39.5s-157.334 64.833 -224.001 115.5l-197 -211l-74 68l197 207
c-64 64 -114.167 140 -150.5 228s-54.5 183.333 -54.5 286c0 116 19.833 221.167 59.5 315.5s94.167 175.166 163.5 242.499c68.667 66 150.167 116.833 244.5 152.5s194.833 53.5 301.5 53.5c93.333 0 181.5 -13.167 264.5 -39.5s158.167 -65.5 225.5 -117.5l195 208
l74 -68l-195 -205c62.667 -62.667 112.334 -138.167 149.001 -226.5s55 -185.166 55 -290.499zM1156 1123c-28.667 72.667 -68.332 130.833 -118.999 174.5s-116.334 65.5 -197.001 65.5c-123.333 0 -217 -57.167 -281 -171.5s-96 -276.833 -96 -487.5
c0 -61.333 1.83301 -114.5 5.5 -159.5s11.167 -92.5 22.5 -142.5zM1129 242.997c31.333 61.333 53.667 130.501 67 207.501s20 164.167 20 261.5c0 50.667 -2 102.334 -6 155.001s-11 101.667 -21 147l-665 -720c30 -76.667 71 -135.334 123 -176.001s116.333 -61 193 -61
c66 0 123.5 16.667 172.5 50s87.833 78.666 116.5 135.999z" />
    <glyph glyph-name="Ugrave" unicode="&#xd9;" horiz-adv-x="1707" 
d="M1703 1341c-19.333 -2 -47.1699 -6.49805 -83.5029 -13.498s-66.833 -19.167 -91.5 -36.5c-25.333 -16.667 -43.166 -46.667 -53.499 -90s-15.5 -108.333 -15.5 -195v-528c0 -155.333 -52.667 -280.333 -158 -375s-244.666 -142 -417.999 -142
c-202 0 -358.333 45.667 -469 137s-166 218.666 -166 381.999v726c0 23.333 -4.5 43.333 -13.5 60s-26.167 31.667 -51.5 45c-17.333 8.66699 -38.666 15.667 -63.999 21s-46 9 -62 11v76h744v-76c-21.333 -1.33301 -43 -3.83301 -65 -7.5s-44.333 -9.16699 -67 -16.5
c-25.333 -8 -42.333 -21.333 -51 -40s-13 -39.667 -13 -63v-716c0 -140.667 31 -243 93 -307s152 -96 270 -96c116 0 207 35.333 273 106s99 174.667 99 312v481c0 85.333 -5.83301 149.166 -17.5 191.499s-29.5 72.833 -53.5 91.5c-17.333 14.667 -47.5 28 -90.5 40
s-73.167 19.333 -90.5 22v78h615v-78zM1120 1526l-33.001 -41c-108.667 46.667 -198.667 82.5 -270 107.5s-124 44.833 -158 59.5s-59.333 30.5 -76 47.5s-25 39.833 -25 68.5s14 52.5 42 71.5s64 28.5 108 28.5c26.667 0 51.167 -5.66699 73.5 -17s46.833 -31 73.5 -59
l102.5 -107.5c37.667 -39 91.834 -91.833 162.501 -158.5z" />
    <glyph glyph-name="Uacute" unicode="&#xda;" horiz-adv-x="1707" 
d="M1703 1341c-19.333 -2 -47.1699 -6.49805 -83.5029 -13.498s-66.833 -19.167 -91.5 -36.5c-25.333 -16.667 -43.166 -46.667 -53.499 -90s-15.5 -108.333 -15.5 -195v-528c0 -155.333 -52.667 -280.333 -158 -375s-244.666 -142 -417.999 -142
c-202 0 -358.333 45.667 -469 137s-166 218.666 -166 381.999v726c0 23.333 -4.5 43.333 -13.5 60s-26.167 31.667 -51.5 45c-17.333 8.66699 -38.666 15.667 -63.999 21s-46 9 -62 11v76h744v-76c-21.333 -1.33301 -43 -3.83301 -65 -7.5s-44.333 -9.16699 -67 -16.5
c-25.333 -8 -42.333 -21.333 -51 -40s-13 -39.667 -13 -63v-716c0 -140.667 31 -243 93 -307s152 -96 270 -96c116 0 207 35.333 273 106s99 174.667 99 312v481c0 85.333 -5.83301 149.166 -17.5 191.499s-29.5 72.833 -53.5 91.5c-17.333 14.667 -47.5 28 -90.5 40
s-73.167 19.333 -90.5 22v78h615v-78zM1198 1768c0 -28 -8.66406 -51.002 -25.9971 -69.002s-42.333 -33.667 -75 -47c-37.333 -15.333 -93.333 -36.666 -168 -63.999s-161.334 -61.666 -260.001 -102.999l-33 41l155 151l110 115c25.333 26.667 49.666 46 72.999 58
s48 18 74 18c43.333 0 79.166 -9.16699 107.499 -27.5s42.5 -42.5 42.5 -72.5z" />
    <glyph glyph-name="Ucircumflex" unicode="&#xdb;" horiz-adv-x="1707" 
d="M1703 1341c-19.333 -2 -47.1699 -6.49805 -83.5029 -13.498s-66.833 -19.167 -91.5 -36.5c-25.333 -16.667 -43.166 -46.667 -53.499 -90s-15.5 -108.333 -15.5 -195v-528c0 -155.333 -52.667 -280.333 -158 -375s-244.666 -142 -417.999 -142
c-202 0 -358.333 45.667 -469 137s-166 218.666 -166 381.999v726c0 23.333 -4.5 43.333 -13.5 60s-26.167 31.667 -51.5 45c-17.333 8.66699 -38.666 15.667 -63.999 21s-46 9 -62 11v76h744v-76c-21.333 -1.33301 -43 -3.83301 -65 -7.5s-44.333 -9.16699 -67 -16.5
c-25.333 -8 -42.333 -21.333 -51 -40s-13 -39.667 -13 -63v-716c0 -140.667 31 -243 93 -307s152 -96 270 -96c116 0 207 35.333 273 106s99 174.667 99 312v481c0 85.333 -5.83301 149.166 -17.5 191.499s-29.5 72.833 -53.5 91.5c-17.333 14.667 -47.5 28 -90.5 40
s-73.167 19.333 -90.5 22v78h615v-78zM1310 1513l-33.002 -29.001l-351 203l-344 -203l-33 29l155.5 189c34.333 40.667 62.833 75.667 85.5 105c15.333 20 33.5 35.167 54.5 45.5s49.5 15.5 85.5 15.5c36.667 0 63.834 -4.66699 81.501 -14s34.834 -23.666 51.501 -42.999
l82.5 -98z" />
    <glyph glyph-name="Udieresis" unicode="&#xdc;" horiz-adv-x="1707" 
d="M1703 1341c-19.333 -2 -47.1699 -6.49805 -83.5029 -13.498s-66.833 -19.167 -91.5 -36.5c-25.333 -16.667 -43.166 -46.667 -53.499 -90s-15.5 -108.333 -15.5 -195v-528c0 -155.333 -52.667 -280.333 -158 -375s-244.666 -142 -417.999 -142
c-202 0 -358.333 45.667 -469 137s-166 218.666 -166 381.999v726c0 23.333 -4.5 43.333 -13.5 60s-26.167 31.667 -51.5 45c-17.333 8.66699 -38.666 15.667 -63.999 21s-46 9 -62 11v76h744v-76c-21.333 -1.33301 -43 -3.83301 -65 -7.5s-44.333 -9.16699 -67 -16.5
c-25.333 -8 -42.333 -21.333 -51 -40s-13 -39.667 -13 -63v-716c0 -140.667 31 -243 93 -307s152 -96 270 -96c116 0 207 35.333 273 106s99 174.667 99 312v481c0 85.333 -5.83301 149.166 -17.5 191.499s-29.5 72.833 -53.5 91.5c-17.333 14.667 -47.5 28 -90.5 40
s-73.167 19.333 -90.5 22v78h615v-78zM1337 1700c0 -44.667 -15.833 -83.832 -47.5 -117.499s-68.834 -50.5 -111.501 -50.5c-43.333 0 -80.833 16.667 -112.5 50s-47.5 72.666 -47.5 117.999c0 44.667 15.667 83.834 47 117.501s69 50.5 113 50.5
c42.667 0 79.834 -16.833 111.501 -50.5s47.5 -72.834 47.5 -117.501zM800.996 1700c0 -44.667 -16.001 -83.832 -48.001 -117.499s-69.333 -50.5 -112 -50.5c-43.333 0 -80.666 16.667 -111.999 50s-47 72.666 -47 117.999c0 44.667 15.5 83.834 46.5 117.501
s68.5 50.5 112.5 50.5c42.667 0 80 -16.833 112 -50.5s48 -72.834 48 -117.501z" />
    <glyph glyph-name="Yacute" unicode="&#xdd;" horiz-adv-x="1499" 
d="M1567 1341c-24 -2.66699 -46.002 -7 -66.002 -13s-39 -14.333 -57 -25c-28.667 -16 -54.167 -36.5 -76.5 -61.5s-44.166 -52.833 -65.499 -83.5l-136.5 -206.5l-155.5 -245.5c-36.667 -56.667 -59.167 -100.167 -67.5 -130.5s-12.5 -82.833 -12.5 -157.5v-201
c0 -24 4.5 -45 13.5 -63s26.167 -32.667 51.5 -44c11.333 -4.66699 35.333 -10.834 72 -18.501s63.667 -12.167 81 -13.5v-78h-791v78c18.667 1.33301 45.5 4 80.5 8s59.5 8.66699 73.5 14c24.667 10.667 41.5 24.834 50.5 42.501s13.5 39.167 13.5 64.5v250
c0 22 -0.333008 41.333 -1 58s-3 30.667 -7 42c-4.66699 12.667 -12.667 28.834 -24 48.501l-44 76.5l-149 256l-137 227c-22.667 36.667 -45.5 66.167 -68.5 88.5s-46.5 40.5 -70.5 54.5c-18 10 -39.833 17.667 -65.5 23s-48.834 8.66602 -69.501 9.99902v78h813v-78
c-74.667 -2 -125 -7.16699 -151 -15.5s-39 -19.833 -39 -34.5c0 -7.33301 4.83301 -22 14.5 -44s26.834 -56 51.501 -102c22.667 -43.333 55.834 -103 99.501 -179l157.5 -267l261 420.5c47.333 79.667 71 128.5 71 146.5c0 22.667 -13.833 40 -41.5 52
s-72.5 19.667 -134.5 23v78h526v-78zM1123 1768c0 -28 -8.66406 -51.002 -25.9971 -69.002s-42.333 -33.667 -75 -47c-37.333 -15.333 -93.333 -36.666 -168 -63.999s-161.334 -61.666 -260.001 -102.999l-33 41l155 151l110 115c25.333 26.667 49.666 46 72.999 58
s48 18 74 18c43.333 0 79.166 -9.16699 107.499 -27.5s42.5 -42.5 42.5 -72.5z" />
    <glyph glyph-name="Thorn" unicode="&#xde;" horiz-adv-x="1450" 
d="M1399 752c0 -72 -17 -134.997 -51 -188.997s-79 -98.667 -135 -134c-54 -34 -115 -59.667 -183 -77s-136.333 -26 -205 -26h-193v-117c0 -24.667 4.83301 -45.334 14.5 -62.001s26.5 -30.334 50.5 -41.001c13.333 -5.33301 34.166 -11.166 62.499 -17.499
s52.5 -9.83301 72.5 -10.5v-78h-763v78c18.667 1.33301 43.834 4 75.501 8s54.5 8.66699 68.5 14c22 9.33301 38.167 21.833 48.5 37.5s15.5 37.5 15.5 65.5v1001c0 24 -3.66699 44.167 -11 60.5s-25 30.166 -53 41.499c-18.667 8 -42.5 15.5 -71.5 22.5
s-53.167 11.167 -72.5 12.5v78h763v-78c-17.333 -0.666992 -41 -4.33398 -71 -11.001s-51.333 -12.667 -64 -18c-24 -10 -40.833 -24 -50.5 -42s-14.5 -38 -14.5 -60v-66h220c184 0 321.167 -31.167 411.5 -93.5s135.5 -161.833 135.5 -298.5zM1008 735.003
c0 106.667 -21.999 186 -65.999 238s-121 78 -231 78h-79v-632h52c109.333 0 190.666 26.5 243.999 79.5s80 131.833 80 236.5z" />
    <glyph glyph-name="germandbls" unicode="&#xdf;" horiz-adv-x="1347" 
d="M1151 804c37.333 -35.333 67.4951 -77.501 90.4951 -126.501s34.5 -108.833 34.5 -179.5c0 -145.333 -43.333 -266.5 -130 -363.5s-203 -145.5 -349 -145.5c-40.667 0 -79.167 1.83301 -115.5 5.5s-64.166 7.5 -83.499 11.5v86c10.667 -2 21.834 -3.66699 33.501 -5
s21.834 -2 30.501 -2c80.667 0 143.334 37.333 188.001 112s67 177 67 307c0 116 -21 208 -63 276s-104.667 102 -188 102h-28v93h37c23.333 0 47.666 5.16699 72.999 15.5s47 25.833 65 46.5c22.667 25.333 39.334 54.833 50.001 88.5s16 71.834 16 114.501
c0 75.333 -14.333 132 -43 170s-68 57 -118 57c-77.333 0 -130.166 -31.5 -158.499 -94.5s-42.5 -154.833 -42.5 -275.5v-1097h-480v73c20 2 37 3.5 51 4.5s28.333 4.5 43 10.5c18.667 7.33301 32.5 18.333 41.5 33s13.5 35 13.5 61v835c0 111.333 14.5 198.5 43.5 261.5
s68.5 113.5 118.5 151.5c54.667 43.333 115.334 74.166 182.001 92.499s134.667 27.5 204 27.5c57.333 0 113.166 -6.16699 167.499 -18.5s103.166 -31.166 146.499 -56.499c42.667 -25.333 77.167 -57.833 103.5 -97.5s39.5 -86.5 39.5 -140.5
c0 -44 -8.66699 -83.5 -26 -118.5s-39 -64.167 -65 -87.5c-28.667 -26 -59.667 -46.667 -93 -62s-66.666 -26 -99.999 -32v-9c38 -7.33301 78.833 -20.833 122.5 -40.5s84.167 -47.5 121.5 -83.5z" />
    <glyph glyph-name="agrave" unicode="&#xe0;" horiz-adv-x="1220" 
d="M1201 21c-29.333 -12.667 -63.998 -24.3369 -103.998 -35.0039s-82.333 -16 -127 -16c-82 0 -142.333 12.167 -181 36.5s-65 59.166 -79 104.499h-6c-22.667 -22.667 -44.5 -42 -65.5 -58s-43.5 -29.667 -67.5 -41c-31.333 -14.667 -61.5 -25.5 -90.5 -32.5
s-69.5 -10.5 -121.5 -10.5c-77.333 0 -143.333 22.833 -198 68.5s-82 106.167 -82 181.5c0 43.333 6 80.166 18 110.499s29 57.166 51 80.499c20 21.333 43.167 39 69.5 53s55.166 27 86.499 39c60 22 132 44.833 216 68.5s145.333 44.834 184 63.501v96
c0 16.667 -1.33301 38.667 -4 66s-8.33398 50.333 -17.001 69c-9.33301 21.333 -24 39.333 -44 54s-46.333 22 -79 22c-29.333 0 -53.833 -4.16699 -73.5 -12.5s-35.5 -16.833 -47.5 -25.5c2 -13.333 7.66699 -33.666 17 -60.999s14 -53.666 14 -78.999
c0 -11.333 -3 -25.5 -9 -42.5s-14.667 -30.5 -26 -40.5c-15.333 -13.333 -32.5 -23.666 -51.5 -30.999s-48.167 -11 -87.5 -11c-56 0 -98.333 13.5 -127 40.5s-43 62.167 -43 105.5c0 37.333 14.833 70.833 44.5 100.5s65.834 54.167 108.501 73.5
c42 20 90.333 35.5 145 46.5s105.334 16.5 152.001 16.5c64.667 0 124 -3.83301 178 -11.5s102.667 -23.5 146 -47.5c41.333 -23.333 74.166 -57.166 98.499 -101.499s36.5 -102.166 36.5 -173.499c0 -75.333 -1.5 -164.666 -4.5 -267.999s-4.5 -171.333 -4.5 -204
c0 -30 4.5 -53.667 13.5 -71s22.833 -30.333 41.5 -39c11.333 -5.33301 29.166 -8.5 53.499 -9.5s46.5 -1.5 66.5 -1.5v-73zM704.002 541.997c-37.333 -12.667 -74.335 -27.167 -111.002 -43.5s-66.667 -33.5 -90 -51.5c-24.667 -18.667 -44 -42.5 -58 -71.5
s-21 -63.167 -21 -102.5c0 -52 11.833 -89.667 35.5 -113s52.834 -35 87.501 -35c36.667 0 66.834 7.5 90.501 22.5s44.5 33.5 62.5 55.5zM821 1139l-42 -38c-110.667 66.667 -194.167 114.834 -250.5 144.501s-104.5 58.167 -144.5 85.5
c-31.333 21.333 -53.5 40.166 -66.5 56.499s-19.5 40.5 -19.5 72.5c0 24 12.833 44.667 38.5 62s54.5 26 86.5 26c40.667 0 73 -6.16699 97 -18.5s51.333 -40.833 82 -85.5l89.5 -127.5z" />
    <glyph glyph-name="aacute" unicode="&#xe1;" horiz-adv-x="1220" 
d="M1201 21c-29.333 -12.667 -63.998 -24.3369 -103.998 -35.0039s-82.333 -16 -127 -16c-82 0 -142.333 12.167 -181 36.5s-65 59.166 -79 104.499h-6c-22.667 -22.667 -44.5 -42 -65.5 -58s-43.5 -29.667 -67.5 -41c-31.333 -14.667 -61.5 -25.5 -90.5 -32.5
s-69.5 -10.5 -121.5 -10.5c-77.333 0 -143.333 22.833 -198 68.5s-82 106.167 -82 181.5c0 43.333 6 80.166 18 110.499s29 57.166 51 80.499c20 21.333 43.167 39 69.5 53s55.166 27 86.499 39c60 22 132 44.833 216 68.5s145.333 44.834 184 63.501v96
c0 16.667 -1.33301 38.667 -4 66s-8.33398 50.333 -17.001 69c-9.33301 21.333 -24 39.333 -44 54s-46.333 22 -79 22c-29.333 0 -53.833 -4.16699 -73.5 -12.5s-35.5 -16.833 -47.5 -25.5c2 -13.333 7.66699 -33.666 17 -60.999s14 -53.666 14 -78.999
c0 -11.333 -3 -25.5 -9 -42.5s-14.667 -30.5 -26 -40.5c-15.333 -13.333 -32.5 -23.666 -51.5 -30.999s-48.167 -11 -87.5 -11c-56 0 -98.333 13.5 -127 40.5s-43 62.167 -43 105.5c0 37.333 14.833 70.833 44.5 100.5s65.834 54.167 108.501 73.5
c42 20 90.333 35.5 145 46.5s105.334 16.5 152.001 16.5c64.667 0 124 -3.83301 178 -11.5s102.667 -23.5 146 -47.5c41.333 -23.333 74.166 -57.166 98.499 -101.499s36.5 -102.166 36.5 -173.499c0 -75.333 -1.5 -164.666 -4.5 -267.999s-4.5 -171.333 -4.5 -204
c0 -30 4.5 -53.667 13.5 -71s22.833 -30.333 41.5 -39c11.333 -5.33301 29.166 -8.5 53.499 -9.5s46.5 -1.5 66.5 -1.5v-73zM704.002 541.997c-37.333 -12.667 -74.335 -27.167 -111.002 -43.5s-66.667 -33.5 -90 -51.5c-24.667 -18.667 -44 -42.5 -58 -71.5
s-21 -63.167 -21 -102.5c0 -52 11.833 -89.667 35.5 -113s52.834 -35 87.501 -35c36.667 0 66.834 7.5 90.501 22.5s44.5 33.5 62.5 55.5zM884 1460c0 -30 -6.83203 -54.168 -20.499 -72.501s-35.5 -37.166 -65.5 -56.499c-32.667 -21.333 -84.334 -51.5 -155.001 -90.5
s-150.667 -85.5 -240 -139.5l-42 38c58.667 78 104 140.167 136 186.5l83 118.5c28.667 40.667 56 68.167 82 82.5s58.333 21.5 97 21.5c32 0 60.833 -8.66699 86.5 -26s38.5 -38 38.5 -62z" />
    <glyph glyph-name="acircumflex" unicode="&#xe2;" horiz-adv-x="1220" 
d="M1201 21c-29.333 -12.667 -63.998 -24.3369 -103.998 -35.0039s-82.333 -16 -127 -16c-82 0 -142.333 12.167 -181 36.5s-65 59.166 -79 104.499h-6c-22.667 -22.667 -44.5 -42 -65.5 -58s-43.5 -29.667 -67.5 -41c-31.333 -14.667 -61.5 -25.5 -90.5 -32.5
s-69.5 -10.5 -121.5 -10.5c-77.333 0 -143.333 22.833 -198 68.5s-82 106.167 -82 181.5c0 43.333 6 80.166 18 110.499s29 57.166 51 80.499c20 21.333 43.167 39 69.5 53s55.166 27 86.499 39c60 22 132 44.833 216 68.5s145.333 44.834 184 63.501v96
c0 16.667 -1.33301 38.667 -4 66s-8.33398 50.333 -17.001 69c-9.33301 21.333 -24 39.333 -44 54s-46.333 22 -79 22c-29.333 0 -53.833 -4.16699 -73.5 -12.5s-35.5 -16.833 -47.5 -25.5c2 -13.333 7.66699 -33.666 17 -60.999s14 -53.666 14 -78.999
c0 -11.333 -3 -25.5 -9 -42.5s-14.667 -30.5 -26 -40.5c-15.333 -13.333 -32.5 -23.666 -51.5 -30.999s-48.167 -11 -87.5 -11c-56 0 -98.333 13.5 -127 40.5s-43 62.167 -43 105.5c0 37.333 14.833 70.833 44.5 100.5s65.834 54.167 108.501 73.5
c42 20 90.333 35.5 145 46.5s105.334 16.5 152.001 16.5c64.667 0 124 -3.83301 178 -11.5s102.667 -23.5 146 -47.5c41.333 -23.333 74.166 -57.166 98.499 -101.499s36.5 -102.166 36.5 -173.499c0 -75.333 -1.5 -164.666 -4.5 -267.999s-4.5 -171.333 -4.5 -204
c0 -30 4.5 -53.667 13.5 -71s22.833 -30.333 41.5 -39c11.333 -5.33301 29.166 -8.5 53.499 -9.5s46.5 -1.5 66.5 -1.5v-73zM704.002 541.997c-37.333 -12.667 -74.335 -27.167 -111.002 -43.5s-66.667 -33.5 -90 -51.5c-24.667 -18.667 -44 -42.5 -58 -71.5
s-21 -63.167 -21 -102.5c0 -52 11.833 -89.667 35.5 -113s52.834 -35 87.501 -35c36.667 0 66.834 7.5 90.501 22.5s44.5 33.5 62.5 55.5zM963 1132l-54 -29.001l-320 254l-316 -254l-51 29l139 224c26 42 56.667 85.667 92 131c15.333 20.667 33.5 36 54.5 46
s49.5 15 85.5 15c36.667 0 64 -4.66699 82 -14s35 -23.666 51 -42.999c31.333 -38 64.833 -85 100.5 -141z" />
    <glyph glyph-name="atilde" unicode="&#xe3;" horiz-adv-x="1220" 
d="M1201 21c-29.333 -12.667 -63.998 -24.3369 -103.998 -35.0039s-82.333 -16 -127 -16c-82 0 -142.333 12.167 -181 36.5s-65 59.166 -79 104.499h-6c-22.667 -22.667 -44.5 -42 -65.5 -58s-43.5 -29.667 -67.5 -41c-31.333 -14.667 -61.5 -25.5 -90.5 -32.5
s-69.5 -10.5 -121.5 -10.5c-77.333 0 -143.333 22.833 -198 68.5s-82 106.167 -82 181.5c0 43.333 6 80.166 18 110.499s29 57.166 51 80.499c20 21.333 43.167 39 69.5 53s55.166 27 86.499 39c60 22 132 44.833 216 68.5s145.333 44.834 184 63.501v96
c0 16.667 -1.33301 38.667 -4 66s-8.33398 50.333 -17.001 69c-9.33301 21.333 -24 39.333 -44 54s-46.333 22 -79 22c-29.333 0 -53.833 -4.16699 -73.5 -12.5s-35.5 -16.833 -47.5 -25.5c2 -13.333 7.66699 -33.666 17 -60.999s14 -53.666 14 -78.999
c0 -11.333 -3 -25.5 -9 -42.5s-14.667 -30.5 -26 -40.5c-15.333 -13.333 -32.5 -23.666 -51.5 -30.999s-48.167 -11 -87.5 -11c-56 0 -98.333 13.5 -127 40.5s-43 62.167 -43 105.5c0 37.333 14.833 70.833 44.5 100.5s65.834 54.167 108.501 73.5
c42 20 90.333 35.5 145 46.5s105.334 16.5 152.001 16.5c64.667 0 124 -3.83301 178 -11.5s102.667 -23.5 146 -47.5c41.333 -23.333 74.166 -57.166 98.499 -101.499s36.5 -102.166 36.5 -173.499c0 -75.333 -1.5 -164.666 -4.5 -267.999s-4.5 -171.333 -4.5 -204
c0 -30 4.5 -53.667 13.5 -71s22.833 -30.333 41.5 -39c11.333 -5.33301 29.166 -8.5 53.499 -9.5s46.5 -1.5 66.5 -1.5v-73zM704.002 541.997c-37.333 -12.667 -74.335 -27.167 -111.002 -43.5s-66.667 -33.5 -90 -51.5c-24.667 -18.667 -44 -42.5 -58 -71.5
s-21 -63.167 -21 -102.5c0 -52 11.833 -89.667 35.5 -113s52.834 -35 87.501 -35c36.667 0 66.834 7.5 90.501 22.5s44.5 33.5 62.5 55.5zM1039 1479c-8 -28.667 -21.167 -60.833 -39.5 -96.5s-40.5 -68.167 -66.5 -97.5c-29.333 -32.667 -59.333 -58.667 -90 -78
s-66.334 -29 -107.001 -29c-48 0 -89.833 5.83301 -125.5 17.5s-66.5 24.167 -92.5 37.5c-22.667 12 -47.834 24.333 -75.501 37s-53.834 19 -78.501 19c-30 0 -55.167 -11.333 -75.5 -34s-44.166 -60.667 -71.499 -114l-72 30c9.33301 26.667 22.666 56.667 39.999 90
s39 66.333 65 99c22.667 28.667 51.334 54 86.001 76s69.334 33 104.001 33c44 0 83.333 -5.5 118 -16.5s66.667 -23.833 96 -38.5l75.5 -38.5c19.667 -10.333 43.834 -15.5 72.501 -15.5c53.333 0 89.833 13.333 109.5 40s36.5 61 50.5 103z" />
    <glyph glyph-name="adieresis" unicode="&#xe4;" horiz-adv-x="1220" 
d="M1201 21c-29.333 -12.667 -63.998 -24.3369 -103.998 -35.0039s-82.333 -16 -127 -16c-82 0 -142.333 12.167 -181 36.5s-65 59.166 -79 104.499h-6c-22.667 -22.667 -44.5 -42 -65.5 -58s-43.5 -29.667 -67.5 -41c-31.333 -14.667 -61.5 -25.5 -90.5 -32.5
s-69.5 -10.5 -121.5 -10.5c-77.333 0 -143.333 22.833 -198 68.5s-82 106.167 -82 181.5c0 43.333 6 80.166 18 110.499s29 57.166 51 80.499c20 21.333 43.167 39 69.5 53s55.166 27 86.499 39c60 22 132 44.833 216 68.5s145.333 44.834 184 63.501v96
c0 16.667 -1.33301 38.667 -4 66s-8.33398 50.333 -17.001 69c-9.33301 21.333 -24 39.333 -44 54s-46.333 22 -79 22c-29.333 0 -53.833 -4.16699 -73.5 -12.5s-35.5 -16.833 -47.5 -25.5c2 -13.333 7.66699 -33.666 17 -60.999s14 -53.666 14 -78.999
c0 -11.333 -3 -25.5 -9 -42.5s-14.667 -30.5 -26 -40.5c-15.333 -13.333 -32.5 -23.666 -51.5 -30.999s-48.167 -11 -87.5 -11c-56 0 -98.333 13.5 -127 40.5s-43 62.167 -43 105.5c0 37.333 14.833 70.833 44.5 100.5s65.834 54.167 108.501 73.5
c42 20 90.333 35.5 145 46.5s105.334 16.5 152.001 16.5c64.667 0 124 -3.83301 178 -11.5s102.667 -23.5 146 -47.5c41.333 -23.333 74.166 -57.166 98.499 -101.499s36.5 -102.166 36.5 -173.499c0 -75.333 -1.5 -164.666 -4.5 -267.999s-4.5 -171.333 -4.5 -204
c0 -30 4.5 -53.667 13.5 -71s22.833 -30.333 41.5 -39c11.333 -5.33301 29.166 -8.5 53.499 -9.5s46.5 -1.5 66.5 -1.5v-73zM704.002 541.997c-37.333 -12.667 -74.335 -27.167 -111.002 -43.5s-66.667 -33.5 -90 -51.5c-24.667 -18.667 -44 -42.5 -58 -71.5
s-21 -63.167 -21 -102.5c0 -52 11.833 -89.667 35.5 -113s52.834 -35 87.501 -35c36.667 0 66.834 7.5 90.501 22.5s44.5 33.5 62.5 55.5zM999 1349c0 -44.667 -15.833 -83.832 -47.5 -117.499s-68.834 -50.5 -111.501 -50.5c-43.333 0 -80.833 16.667 -112.5 50
s-47.5 72.666 -47.5 117.999c0 44.667 15.667 83.834 47 117.501s69 50.5 113 50.5c42.667 0 79.834 -16.833 111.501 -50.5s47.5 -72.834 47.5 -117.501zM504 1349c0 -44.667 -16.001 -83.832 -48.001 -117.499s-69.333 -50.5 -112 -50.5
c-43.333 0 -80.666 16.667 -111.999 50s-47 72.666 -47 117.999c0 44.667 15.5 83.834 46.5 117.501s68.5 50.5 112.5 50.5c42.667 0 80 -16.833 112 -50.5s48 -72.834 48 -117.501z" />
    <glyph glyph-name="aring" unicode="&#xe5;" horiz-adv-x="1220" 
d="M1201 21c-29.333 -12.667 -63.998 -24.3369 -103.998 -35.0039s-82.333 -16 -127 -16c-82 0 -142.333 12.167 -181 36.5s-65 59.166 -79 104.499h-6c-22.667 -22.667 -44.5 -42 -65.5 -58s-43.5 -29.667 -67.5 -41c-31.333 -14.667 -61.5 -25.5 -90.5 -32.5
s-69.5 -10.5 -121.5 -10.5c-77.333 0 -143.333 22.833 -198 68.5s-82 106.167 -82 181.5c0 43.333 6 80.166 18 110.499s29 57.166 51 80.499c20 21.333 43.167 39 69.5 53s55.166 27 86.499 39c60 22 132 44.833 216 68.5s145.333 44.834 184 63.501v96
c0 16.667 -1.33301 38.667 -4 66s-8.33398 50.333 -17.001 69c-9.33301 21.333 -24 39.333 -44 54s-46.333 22 -79 22c-29.333 0 -53.833 -4.16699 -73.5 -12.5s-35.5 -16.833 -47.5 -25.5c2 -13.333 7.66699 -33.666 17 -60.999s14 -53.666 14 -78.999
c0 -11.333 -3 -25.5 -9 -42.5s-14.667 -30.5 -26 -40.5c-15.333 -13.333 -32.5 -23.666 -51.5 -30.999s-48.167 -11 -87.5 -11c-56 0 -98.333 13.5 -127 40.5s-43 62.167 -43 105.5c0 37.333 14.833 70.833 44.5 100.5s65.834 54.167 108.501 73.5
c42 20 90.333 35.5 145 46.5s105.334 16.5 152.001 16.5c64.667 0 124 -3.83301 178 -11.5s102.667 -23.5 146 -47.5c41.333 -23.333 74.166 -57.166 98.499 -101.499s36.5 -102.166 36.5 -173.499c0 -75.333 -1.5 -164.666 -4.5 -267.999s-4.5 -171.333 -4.5 -204
c0 -30 4.5 -53.667 13.5 -71s22.833 -30.333 41.5 -39c11.333 -5.33301 29.166 -8.5 53.499 -9.5s46.5 -1.5 66.5 -1.5v-73zM704.002 541.997c-37.333 -12.667 -74.335 -27.167 -111.002 -43.5s-66.667 -33.5 -90 -51.5c-24.667 -18.667 -44 -42.5 -58 -71.5
s-21 -63.167 -21 -102.5c0 -52 11.833 -89.667 35.5 -113s52.834 -35 87.501 -35c36.667 0 66.834 7.5 90.501 22.5s44.5 33.5 62.5 55.5zM870 1327c0 -69.333 -25.6699 -125.335 -77.0029 -168.002s-118.666 -64 -201.999 -64c-85.333 0 -153.166 20.5 -203.499 61.5
s-75.5 97.833 -75.5 170.5c0 70.667 26.833 126.834 80.5 168.501s119.834 62.5 198.501 62.5c80 0 146.5 -20.667 199.5 -62s79.5 -97.666 79.5 -168.999zM722.997 1326c0 47.333 -11.1699 86.167 -33.5029 116.5s-55.166 45.5 -98.499 45.5c-42 0 -74.5 -14.5 -97.5 -43.5
s-34.5 -68.5 -34.5 -118.5c0 -48 11.333 -86.833 34 -116.5s55.334 -44.5 98.001 -44.5s75.334 14.5 98.001 43.5s34 68.167 34 117.5z" />
    <glyph glyph-name="ae" unicode="&#xe6;" horiz-adv-x="1756" 
d="M1718 239c-46.667 -80 -111.495 -145.164 -194.495 -195.497s-177.5 -75.5 -283.5 -75.5c-108.667 0 -201.5 16.833 -278.5 50.5s-137.5 80.834 -181.5 141.501h-6c-17.333 -20 -37.833 -41.333 -61.5 -64s-51.5 -43.334 -83.5 -62.001
c-34.667 -20 -71.834 -35.833 -111.501 -47.5s-89.167 -17.5 -148.5 -17.5c-82.667 0 -151.667 22.833 -207 68.5s-83 106.167 -83 181.5c0 43.333 6 80.166 18 110.499s29 57.166 51 80.499c20 21.333 43.167 39 69.5 53s55.166 27 86.499 39
c63.333 23.333 137.666 46.5 222.999 69.5s144 39.167 176 48.5v110c0 16.667 -1.33301 38.667 -4 66s-8.33398 50.333 -17.001 69c-9.33301 21.333 -23.833 39.333 -43.5 54s-45.834 22 -78.501 22c-29.333 0 -53.833 -4.16699 -73.5 -12.5s-35.5 -16.833 -47.5 -25.5
c2 -13.333 7.66699 -33.666 17 -60.999s14 -53.666 14 -78.999c0 -11.333 -3 -25.5 -9 -42.5s-14.667 -30.5 -26 -40.5c-15.333 -13.333 -32.5 -23.666 -51.5 -30.999s-48.167 -11 -87.5 -11c-56 0 -98.333 13.333 -127 40s-43 62 -43 106c0 36 14 68.667 42 98
s65 54.666 111 75.999c42 20 90.333 35.5 145 46.5s105.334 16.5 152.001 16.5c72.667 0 137.5 -7.33301 194.5 -22s108.167 -40.334 153.5 -77.001c35.333 25.333 79.166 48.166 131.499 68.499s105.5 30.5 159.5 30.5c86.667 0 160.667 -11.5 222 -34.5
s110.666 -54.167 147.999 -93.5c37.333 -38.667 64.333 -83.667 81 -135s25 -105.333 25 -162v-65h-658c0 -136 25.667 -239.833 77 -311.5s133 -107.5 245 -107.5c61.333 0 115.833 17.667 163.5 53s88.834 78.666 123.501 129.999zM1341 619.003
c0 34.667 -1.83301 74.332 -5.5 118.999s-9.5 79.334 -17.5 104.001c-10 29.333 -24.333 53 -43 71s-43.667 27 -75 27c-52.667 0 -93 -26.5 -121 -79.5s-43.333 -134.833 -46 -245.5zM703.005 203.001l-0.00195312 329c-40 -10.667 -77 -22.5 -111 -35.5
s-63.667 -28.833 -89 -47.5c-24 -18 -43.167 -41.5 -57.5 -70.5s-21.5 -63.167 -21.5 -102.5c0 -54 11.833 -92.667 35.5 -116s52.834 -35 87.501 -35c36.667 0 68.334 8 95.001 24s47 34 61 54z" />
    <glyph glyph-name="ccedilla" unicode="&#xe7;" horiz-adv-x="1088" 
d="M545 -26c-72 6 -136.5 22.001 -193.5 48.001s-104.833 58.333 -143.5 97c-46 47.333 -80.333 103.333 -103 168s-34 135 -34 211c0 69.333 13.833 135.333 41.5 198s65.167 117.667 112.5 165c48.667 48.667 109.167 87.5 181.5 116.5s152.166 43.5 239.499 43.5
c122.667 0 219.667 -23.167 291 -69.5s107 -108.833 107 -187.5c0 -48 -12.667 -86.667 -38 -116s-69 -44 -131 -44c-50 0 -91.833 12 -125.5 36s-50.5 55.333 -50.5 94c0 32.667 5.33301 65 16 97s17 56.333 19 73c-7.33301 12 -16.666 21.167 -27.999 27.5
s-29 9.5 -53 9.5c-30 0 -57.333 -7 -82 -21s-47.667 -38.667 -69 -74c-20.667 -33.333 -37.167 -78 -49.5 -134s-18.5 -123.333 -18.5 -202c0 -118.667 27.833 -214.334 83.5 -287.001s122.167 -109 199.5 -109c74 0 132.833 16.5 176.5 49.5s82.5 79.833 116.5 140.5
l75 -52c-20.667 -40.667 -45.334 -77.834 -74.001 -111.501s-63 -63.5 -103 -89.5c-42 -27.333 -86.333 -47.666 -133 -60.999s-94.667 -20 -144 -20v-66c73.333 0 133 -12.5 179 -37.5s69 -64.5 69 -118.5c0 -38 -9.66699 -70 -29 -96s-47 -45.667 -83 -59
c-37.333 -14 -82.5 -23.667 -135.5 -29s-118.833 -8 -197.5 -8v78c33.333 0 66 0.333008 98 1s58 3 78 7c23.333 4.66699 41.333 12.167 54 22.5s19 26.833 19 49.5c0 26.667 -12.667 44 -38 52s-58.666 12 -99.999 12v196z" />
    <glyph glyph-name="egrave" unicode="&#xe8;" horiz-adv-x="1171" 
d="M1133 239c-23.333 -38 -51.498 -73.8291 -84.498 -107.496s-70.5 -62.5 -112.5 -86.5c-44.667 -25.333 -89.834 -44.5 -135.501 -57.5s-98.167 -19.5 -157.5 -19.5c-98.667 0 -183.834 14 -255.501 42s-130.834 65.667 -177.501 113s-81.5 103.166 -104.5 167.499
s-34.5 134.166 -34.5 209.499c0 68 12.5 133.167 37.5 195.5s60.5 117.833 106.5 166.5c45.333 47.333 102.5 85.666 171.5 114.999s146.167 44 231.5 44c93.333 0 170 -11.333 230 -34s109.667 -54 149 -94c38 -38 65.667 -82.833 83 -134.5s26 -105.834 26 -162.501v-65
h-676c0 -136.667 26.333 -240.667 79 -312s136.334 -107 251.001 -107c62.667 0 119 17.167 169 51.5s92.667 77.833 128 130.5zM751.002 619.004c0 40 -1.99902 81 -5.99902 123s-11 76.333 -21 103c-11.333 31.333 -26.833 55 -46.5 71s-44.5 24 -74.5 24
c-51.333 0 -92.333 -26 -123 -78s-47.334 -134.333 -50.001 -247zM825.003 1139l-42 -38c-110.667 66.667 -194.167 114.834 -250.5 144.501s-104.5 58.167 -144.5 85.5c-31.333 21.333 -53.5 40.166 -66.5 56.499s-19.5 40.5 -19.5 72.5c0 24 12.833 44.667 38.5 62
s54.5 26 86.5 26c40.667 0 73 -6.16699 97 -18.5s51.333 -40.833 82 -85.5l89.5 -127.5z" />
    <glyph glyph-name="eacute" unicode="&#xe9;" horiz-adv-x="1171" 
d="M1133 239c-23.333 -38 -51.498 -73.8291 -84.498 -107.496s-70.5 -62.5 -112.5 -86.5c-44.667 -25.333 -89.834 -44.5 -135.501 -57.5s-98.167 -19.5 -157.5 -19.5c-98.667 0 -183.834 14 -255.501 42s-130.834 65.667 -177.501 113s-81.5 103.166 -104.5 167.499
s-34.5 134.166 -34.5 209.499c0 68 12.5 133.167 37.5 195.5s60.5 117.833 106.5 166.5c45.333 47.333 102.5 85.666 171.5 114.999s146.167 44 231.5 44c93.333 0 170 -11.333 230 -34s109.667 -54 149 -94c38 -38 65.667 -82.833 83 -134.5s26 -105.834 26 -162.501v-65
h-676c0 -136.667 26.333 -240.667 79 -312s136.334 -107 251.001 -107c62.667 0 119 17.167 169 51.5s92.667 77.833 128 130.5zM751.002 619.004c0 40 -1.99902 81 -5.99902 123s-11 76.333 -21 103c-11.333 31.333 -26.833 55 -46.5 71s-44.5 24 -74.5 24
c-51.333 0 -92.333 -26 -123 -78s-47.334 -134.333 -50.001 -247zM884.003 1460c0 -30 -6.83203 -54.168 -20.499 -72.501s-35.5 -37.166 -65.5 -56.499c-32.667 -21.333 -84.334 -51.5 -155.001 -90.5s-150.667 -85.5 -240 -139.5l-42 38c58.667 78 104 140.167 136 186.5
l83 118.5c28.667 40.667 56 68.167 82 82.5s58.333 21.5 97 21.5c32 0 60.833 -8.66699 86.5 -26s38.5 -38 38.5 -62z" />
    <glyph glyph-name="ecircumflex" unicode="&#xea;" horiz-adv-x="1171" 
d="M1133 239c-23.333 -38 -51.498 -73.8291 -84.498 -107.496s-70.5 -62.5 -112.5 -86.5c-44.667 -25.333 -89.834 -44.5 -135.501 -57.5s-98.167 -19.5 -157.5 -19.5c-98.667 0 -183.834 14 -255.501 42s-130.834 65.667 -177.501 113s-81.5 103.166 -104.5 167.499
s-34.5 134.166 -34.5 209.499c0 68 12.5 133.167 37.5 195.5s60.5 117.833 106.5 166.5c45.333 47.333 102.5 85.666 171.5 114.999s146.167 44 231.5 44c93.333 0 170 -11.333 230 -34s109.667 -54 149 -94c38 -38 65.667 -82.833 83 -134.5s26 -105.834 26 -162.501v-65
h-676c0 -136.667 26.333 -240.667 79 -312s136.334 -107 251.001 -107c62.667 0 119 17.167 169 51.5s92.667 77.833 128 130.5zM751.002 619.004c0 40 -1.99902 81 -5.99902 123s-11 76.333 -21 103c-11.333 31.333 -26.833 55 -46.5 71s-44.5 24 -74.5 24
c-51.333 0 -92.333 -26 -123 -78s-47.334 -134.333 -50.001 -247zM967.003 1132l-54 -29.001l-320 254l-316 -254l-51 29l139 224c26 42 56.667 85.667 92 131c15.333 20.667 33.5 36 54.5 46s49.5 15 85.5 15c36.667 0 64 -4.66699 82 -14s35 -23.666 51 -42.999
c31.333 -38 64.833 -85 100.5 -141z" />
    <glyph glyph-name="edieresis" unicode="&#xeb;" horiz-adv-x="1171" 
d="M1133 239c-23.333 -38 -51.498 -73.8291 -84.498 -107.496s-70.5 -62.5 -112.5 -86.5c-44.667 -25.333 -89.834 -44.5 -135.501 -57.5s-98.167 -19.5 -157.5 -19.5c-98.667 0 -183.834 14 -255.501 42s-130.834 65.667 -177.501 113s-81.5 103.166 -104.5 167.499
s-34.5 134.166 -34.5 209.499c0 68 12.5 133.167 37.5 195.5s60.5 117.833 106.5 166.5c45.333 47.333 102.5 85.666 171.5 114.999s146.167 44 231.5 44c93.333 0 170 -11.333 230 -34s109.667 -54 149 -94c38 -38 65.667 -82.833 83 -134.5s26 -105.834 26 -162.501v-65
h-676c0 -136.667 26.333 -240.667 79 -312s136.334 -107 251.001 -107c62.667 0 119 17.167 169 51.5s92.667 77.833 128 130.5zM751.002 619.004c0 40 -1.99902 81 -5.99902 123s-11 76.333 -21 103c-11.333 31.333 -26.833 55 -46.5 71s-44.5 24 -74.5 24
c-51.333 0 -92.333 -26 -123 -78s-47.334 -134.333 -50.001 -247zM1003 1349c0 -44.667 -15.833 -83.832 -47.5 -117.499s-68.834 -50.5 -111.501 -50.5c-43.333 0 -80.833 16.667 -112.5 50s-47.5 72.666 -47.5 117.999c0 44.667 15.667 83.834 47 117.501
s69 50.5 113 50.5c42.667 0 79.834 -16.833 111.501 -50.5s47.5 -72.834 47.5 -117.501zM508.003 1349.01c0 -44.667 -16.001 -83.832 -48.001 -117.499s-69.333 -50.5 -112 -50.5c-43.333 0 -80.666 16.667 -111.999 50s-47 72.666 -47 117.999
c0 44.667 15.5 83.834 46.5 117.501s68.5 50.5 112.5 50.5c42.667 0 80 -16.833 112 -50.5s48 -72.834 48 -117.501z" />
    <glyph glyph-name="igrave" unicode="&#xec;" horiz-adv-x="724" 
d="M690 0l-632 -0.00195312v73c17.333 1.33301 34.333 3 51 5s31 5.33301 43 10c21.333 8 36.333 19.5 45 34.5s13 34.833 13 59.5v582c0 23.333 -5.33301 43.833 -16 61.5s-24 31.834 -40 42.501c-12 8 -30.167 15.667 -54.5 23s-46.5 12 -66.5 14v73l490 26l15 -15v-794
c0 -23.333 5 -43.166 15 -59.499s24.333 -28.5 43 -36.5c13.333 -6 28 -11.333 44 -16s32.667 -8 50 -10v-73zM581 1139l-42 -38c-110.667 66.667 -194.167 114.834 -250.5 144.501s-104.5 58.167 -144.5 85.5c-31.333 21.333 -53.5 40.166 -66.5 56.499
s-19.5 40.5 -19.5 72.5c0 24 12.833 44.667 38.5 62s54.5 26 86.5 26c40.667 0 73 -6.16699 97 -18.5s51.333 -40.833 82 -85.5l89.5 -127.5z" />
    <glyph glyph-name="iacute" unicode="&#xed;" horiz-adv-x="724" 
d="M690 0l-632 -0.00195312v73c17.333 1.33301 34.333 3 51 5s31 5.33301 43 10c21.333 8 36.333 19.5 45 34.5s13 34.833 13 59.5v582c0 23.333 -5.33301 43.833 -16 61.5s-24 31.834 -40 42.501c-12 8 -30.167 15.667 -54.5 23s-46.5 12 -66.5 14v73l490 26l15 -15v-794
c0 -23.333 5 -43.166 15 -59.499s24.333 -28.5 43 -36.5c13.333 -6 28 -11.333 44 -16s32.667 -8 50 -10v-73zM633 1460c0 -30 -6.83203 -54.168 -20.499 -72.501s-35.5 -37.166 -65.5 -56.499c-32.667 -21.333 -84.334 -51.5 -155.001 -90.5s-150.667 -85.5 -240 -139.5
l-42 38c58.667 78 104 140.167 136 186.5l83 118.5c28.667 40.667 56 68.167 82 82.5s58.333 21.5 97 21.5c32 0 60.833 -8.66699 86.5 -26s38.5 -38 38.5 -62z" />
    <glyph glyph-name="icircumflex" unicode="&#xee;" horiz-adv-x="724" 
d="M690 0l-632 -0.00195312v73c17.333 1.33301 34.333 3 51 5s31 5.33301 43 10c21.333 8 36.333 19.5 45 34.5s13 34.833 13 59.5v582c0 23.333 -5.33301 43.833 -16 61.5s-24 31.834 -40 42.501c-12 8 -30.167 15.667 -54.5 23s-46.5 12 -66.5 14v73l490 26l15 -15v-794
c0 -23.333 5 -43.166 15 -59.499s24.333 -28.5 43 -36.5c13.333 -6 28 -11.333 44 -16s32.667 -8 50 -10v-73zM683 1132l-54.001 -29l-300 254l-296 -254l-51 29l126 219c26.667 45.333 55 90.666 85 135.999c14.667 22 32.334 37.667 53.001 47s49.667 14 87 14
c38 0 66.333 -4.66699 85 -14s34.667 -23.666 48 -42.999c31.333 -43.333 62.833 -92.5 94.5 -147.5z" />
    <glyph glyph-name="idieresis" unicode="&#xef;" horiz-adv-x="724" 
d="M690 0l-632 -0.00195312v73c17.333 1.33301 34.333 3 51 5s31 5.33301 43 10c21.333 8 36.333 19.5 45 34.5s13 34.833 13 59.5v582c0 23.333 -5.33301 43.833 -16 61.5s-24 31.834 -40 42.501c-12 8 -30.167 15.667 -54.5 23s-46.5 12 -66.5 14v73l490 26l15 -15v-794
c0 -23.333 5 -43.166 15 -59.499s24.333 -28.5 43 -36.5c13.333 -6 28 -11.333 44 -16s32.667 -8 50 -10v-73zM719 1349c0 -44.667 -15.833 -83.832 -47.5 -117.499s-68.834 -50.5 -111.501 -50.5c-43.333 0 -80.833 16.667 -112.5 50s-47.5 72.666 -47.5 117.999
c0 44.667 15.667 83.834 47 117.501s69 50.5 113 50.5c42.667 0 79.834 -16.833 111.501 -50.5s47.5 -72.834 47.5 -117.501zM260 1349c0 -44.667 -16.001 -83.832 -48.001 -117.499s-69.333 -50.5 -112 -50.5c-43.333 0 -80.666 16.667 -111.999 50s-47 72.666 -47 117.999
c0 44.667 15.5 83.834 46.5 117.501s68.5 50.5 112.5 50.5c42.667 0 80 -16.833 112 -50.5s48 -72.834 48 -117.501z" />
    <glyph glyph-name="eth" unicode="&#xf0;" horiz-adv-x="1306" 
d="M1124 1082c36 -66 62.834 -135.833 80.501 -209.5s26.5 -154.5 26.5 -242.5c0 -210 -52.333 -372.833 -157 -488.5s-248 -173.5 -430 -173.5c-170 0 -308 48.5 -414 145.5s-159 225.833 -159 386.5c0 152 47.5 276.5 142.5 373.5s219.167 145.5 372.5 145.5
c64 0 118.833 -9.66699 164.5 -29s84.5 -48 116.5 -86l10 2c-8.66699 63.333 -24.334 125.833 -47.001 187.5s-54 118.5 -94 170.5l-212 -134l-60 83l205 129c-23.333 23.333 -50.166 46.5 -80.499 69.5s-59.833 43.833 -88.5 62.5l48 74l103.5 -44.5
c38.333 -17 86.166 -43.5 143.499 -79.5l196 124l60 -83l-167 -105c40.667 -31.333 83.5 -72 128.5 -122s82.167 -102 111.5 -156zM820.001 180c16.667 40.667 28.835 88.167 36.502 142.5s11.5 114.166 11.5 179.499c0 57.333 -3.33301 112.5 -10 165.5s-18 97.5 -34 133.5
c-16.667 38.667 -38.334 68.334 -65.001 89.001s-61.667 31 -105 31c-46 0 -82.833 -11.333 -110.5 -34s-49.834 -53.667 -66.501 -93c-16 -37.333 -26.833 -81.5 -32.5 -132.5s-8.5 -102.833 -8.5 -155.5c0 -67.333 3.33301 -127 10 -179s18.667 -100 36 -144
c17.333 -42.667 40 -75.667 68 -99s62.667 -35 104 -35c38 0 71 11.333 99 34s50.333 55 67 97z" />
    <glyph glyph-name="ntilde" unicode="&#xf1;" horiz-adv-x="1413" 
d="M1378 0l-602.002 0.00488281v73l46 5c18 2 31.667 5.33301 41 10c14 7.33301 24 18 30 32s9 34.667 9 62v468c0 68 -12.5 119.167 -37.5 153.5s-61.833 51.5 -110.5 51.5c-26.667 0 -51.5 -4 -74.5 -12s-45.5 -19.667 -67.5 -35c-19.333 -13.333 -34.833 -27 -46.5 -41
s-21.5 -26.333 -29.5 -37v-537c0 -23.333 3.33301 -42.833 10 -58.5s17.667 -27.5 33 -35.5c10.667 -6 24 -11.333 40 -16s31.667 -8 47 -10v-73h-608v73c16.667 1.33301 33.5 3.16602 50.5 5.49902s31.5 5.5 43.5 9.5c21.333 7.33301 36 18.666 44 33.999s12 35.333 12 60
v582c0 20.667 -5.33301 41 -16 61s-24.667 36.333 -42 49c-12 8 -27.167 14.667 -45.5 20s-38.5 9 -60.5 11v73l477 26l15 -15v-145h4l68 60c26.667 23.333 51.334 42.333 74.001 57c24.667 16 57 29.667 97 41s82.667 17 128 17c108.667 0 190.167 -30.833 244.5 -92.5
s81.5 -143.5 81.5 -245.5v-490c0 -24.667 3.66699 -44.334 11 -59.001s21 -26.334 41 -35.001c10.667 -4.66699 23.834 -9.33398 39.501 -14.001s33.5 -8 53.5 -10v-73zM1151 1479c-8 -28.667 -21.167 -60.833 -39.5 -96.5s-40.5 -68.167 -66.5 -97.5
c-29.333 -32.667 -59.333 -58.667 -90 -78s-66.334 -29 -107.001 -29c-48 0 -89.833 5.83301 -125.5 17.5s-66.5 24.167 -92.5 37.5c-22.667 12 -47.834 24.333 -75.501 37s-53.834 19 -78.501 19c-30 0 -55.167 -11.333 -75.5 -34s-44.166 -60.667 -71.499 -114l-72 30
c9.33301 26.667 22.666 56.667 39.999 90s39 66.333 65 99c22.667 28.667 51.334 54 86.001 76s69.334 33 104.001 33c44 0 83.333 -5.5 118 -16.5s66.667 -23.833 96 -38.5l75.5 -38.5c19.667 -10.333 43.834 -15.5 72.501 -15.5c53.333 0 89.833 13.333 109.5 40
s36.5 61 50.5 103z" />
    <glyph glyph-name="ograve" unicode="&#xf2;" horiz-adv-x="1302" 
d="M1079 874c49.333 -46 87.001 -101 113.001 -165s39 -133.333 39 -208c0 -74 -12.833 -143.833 -38.5 -209.5s-63.167 -121.834 -112.5 -168.501c-52.667 -50 -115.5 -88.333 -188.5 -115s-156.5 -40 -250.5 -40c-81.333 0 -156.166 11.667 -224.499 35
s-128.833 58.333 -181.5 105c-50.667 44.667 -90.667 99.834 -120 165.501s-44 139.167 -44 220.5c0 80 12.833 151.167 38.5 213.5s64.167 117.833 115.5 166.5c49.333 46.667 110.166 82.834 182.499 108.501s153.166 38.5 242.499 38.5
c93.333 0 175.5 -12.833 246.5 -38.5s131.833 -61.834 182.5 -108.501zM823.001 181c14.667 37.333 25.4961 82.6689 32.4961 136.002s10.5 115.333 10.5 186c0 46.667 -3.33301 100 -10 160s-16.667 107.333 -30 142c-16 42 -38.167 75 -66.5 99s-64.166 36 -107.499 36
c-47.333 0 -85.166 -13 -113.499 -39s-50.166 -59.667 -65.499 -101c-14 -38 -23.667 -82.5 -29 -133.5s-8 -104.167 -8 -159.5c0 -72.667 2.33301 -132.834 7 -180.501s16 -95.5 34 -143.5c15.333 -41.333 37.333 -74 66 -98s65 -36 109 -36c40 0 74.333 11.167 103 33.5
s51.334 55.166 68.001 98.499zM879.997 1139l-42 -38c-110.667 66.667 -194.167 114.834 -250.5 144.501s-104.5 58.167 -144.5 85.5c-31.333 21.333 -53.5 40.166 -66.5 56.499s-19.5 40.5 -19.5 72.5c0 24 12.833 44.667 38.5 62s54.5 26 86.5 26
c40.667 0 73 -6.16699 97 -18.5s51.333 -40.833 82 -85.5l89.5 -127.5z" />
    <glyph glyph-name="oacute" unicode="&#xf3;" horiz-adv-x="1302" 
d="M1079 874c49.333 -46 87.001 -101 113.001 -165s39 -133.333 39 -208c0 -74 -12.833 -143.833 -38.5 -209.5s-63.167 -121.834 -112.5 -168.501c-52.667 -50 -115.5 -88.333 -188.5 -115s-156.5 -40 -250.5 -40c-81.333 0 -156.166 11.667 -224.499 35
s-128.833 58.333 -181.5 105c-50.667 44.667 -90.667 99.834 -120 165.501s-44 139.167 -44 220.5c0 80 12.833 151.167 38.5 213.5s64.167 117.833 115.5 166.5c49.333 46.667 110.166 82.834 182.499 108.501s153.166 38.5 242.499 38.5
c93.333 0 175.5 -12.833 246.5 -38.5s131.833 -61.834 182.5 -108.501zM823.001 181c14.667 37.333 25.4961 82.6689 32.4961 136.002s10.5 115.333 10.5 186c0 46.667 -3.33301 100 -10 160s-16.667 107.333 -30 142c-16 42 -38.167 75 -66.5 99s-64.166 36 -107.499 36
c-47.333 0 -85.166 -13 -113.499 -39s-50.166 -59.667 -65.499 -101c-14 -38 -23.667 -82.5 -29 -133.5s-8 -104.167 -8 -159.5c0 -72.667 2.33301 -132.834 7 -180.501s16 -95.5 34 -143.5c15.333 -41.333 37.333 -74 66 -98s65 -36 109 -36c40 0 74.333 11.167 103 33.5
s51.334 55.166 68.001 98.499zM942.997 1460c0 -30 -6.83203 -54.168 -20.499 -72.501s-35.5 -37.166 -65.5 -56.499c-32.667 -21.333 -84.334 -51.5 -155.001 -90.5s-150.667 -85.5 -240 -139.5l-42 38c58.667 78 104 140.167 136 186.5l83 118.5
c28.667 40.667 56 68.167 82 82.5s58.333 21.5 97 21.5c32 0 60.833 -8.66699 86.5 -26s38.5 -38 38.5 -62z" />
    <glyph glyph-name="ocircumflex" unicode="&#xf4;" horiz-adv-x="1302" 
d="M1079 874c49.333 -46 87.001 -101 113.001 -165s39 -133.333 39 -208c0 -74 -12.833 -143.833 -38.5 -209.5s-63.167 -121.834 -112.5 -168.501c-52.667 -50 -115.5 -88.333 -188.5 -115s-156.5 -40 -250.5 -40c-81.333 0 -156.166 11.667 -224.499 35
s-128.833 58.333 -181.5 105c-50.667 44.667 -90.667 99.834 -120 165.501s-44 139.167 -44 220.5c0 80 12.833 151.167 38.5 213.5s64.167 117.833 115.5 166.5c49.333 46.667 110.166 82.834 182.499 108.501s153.166 38.5 242.499 38.5
c93.333 0 175.5 -12.833 246.5 -38.5s131.833 -61.834 182.5 -108.501zM823.001 181c14.667 37.333 25.4961 82.6689 32.4961 136.002s10.5 115.333 10.5 186c0 46.667 -3.33301 100 -10 160s-16.667 107.333 -30 142c-16 42 -38.167 75 -66.5 99s-64.166 36 -107.499 36
c-47.333 0 -85.166 -13 -113.499 -39s-50.166 -59.667 -65.499 -101c-14 -38 -23.667 -82.5 -29 -133.5s-8 -104.167 -8 -159.5c0 -72.667 2.33301 -132.834 7 -180.501s16 -95.5 34 -143.5c15.333 -41.333 37.333 -74 66 -98s65 -36 109 -36c40 0 74.333 11.167 103 33.5
s51.334 55.166 68.001 98.499zM1022 1132l-54 -29.001l-320 254l-316 -254l-51 29l139 224c26 42 56.667 85.667 92 131c15.333 20.667 33.5 36 54.5 46s49.5 15 85.5 15c36.667 0 64 -4.66699 82 -14s35 -23.666 51 -42.999c31.333 -38 64.833 -85 100.5 -141z" />
    <glyph glyph-name="otilde" unicode="&#xf5;" horiz-adv-x="1302" 
d="M1079 874c49.333 -46 87.001 -101 113.001 -165s39 -133.333 39 -208c0 -74 -12.833 -143.833 -38.5 -209.5s-63.167 -121.834 -112.5 -168.501c-52.667 -50 -115.5 -88.333 -188.5 -115s-156.5 -40 -250.5 -40c-81.333 0 -156.166 11.667 -224.499 35
s-128.833 58.333 -181.5 105c-50.667 44.667 -90.667 99.834 -120 165.501s-44 139.167 -44 220.5c0 80 12.833 151.167 38.5 213.5s64.167 117.833 115.5 166.5c49.333 46.667 110.166 82.834 182.499 108.501s153.166 38.5 242.499 38.5
c93.333 0 175.5 -12.833 246.5 -38.5s131.833 -61.834 182.5 -108.501zM823.001 181c14.667 37.333 25.4961 82.6689 32.4961 136.002s10.5 115.333 10.5 186c0 46.667 -3.33301 100 -10 160s-16.667 107.333 -30 142c-16 42 -38.167 75 -66.5 99s-64.166 36 -107.499 36
c-47.333 0 -85.166 -13 -113.499 -39s-50.166 -59.667 -65.499 -101c-14 -38 -23.667 -82.5 -29 -133.5s-8 -104.167 -8 -159.5c0 -72.667 2.33301 -132.834 7 -180.501s16 -95.5 34 -143.5c15.333 -41.333 37.333 -74 66 -98s65 -36 109 -36c40 0 74.333 11.167 103 33.5
s51.334 55.166 68.001 98.499zM1098 1479c-8 -28.667 -21.167 -60.833 -39.5 -96.5s-40.5 -68.167 -66.5 -97.5c-29.333 -32.667 -59.333 -58.667 -90 -78s-66.334 -29 -107.001 -29c-48 0 -89.833 5.83301 -125.5 17.5s-66.5 24.167 -92.5 37.5
c-22.667 12 -47.834 24.333 -75.501 37s-53.834 19 -78.501 19c-30 0 -55.167 -11.333 -75.5 -34s-44.166 -60.667 -71.499 -114l-72 30c9.33301 26.667 22.666 56.667 39.999 90s39 66.333 65 99c22.667 28.667 51.334 54 86.001 76s69.334 33 104.001 33
c44 0 83.333 -5.5 118 -16.5s66.667 -23.833 96 -38.5l75.5 -38.5c19.667 -10.333 43.834 -15.5 72.501 -15.5c53.333 0 89.833 13.333 109.5 40s36.5 61 50.5 103z" />
    <glyph glyph-name="odieresis" unicode="&#xf6;" horiz-adv-x="1302" 
d="M1079 874c49.333 -46 87.001 -101 113.001 -165s39 -133.333 39 -208c0 -74 -12.833 -143.833 -38.5 -209.5s-63.167 -121.834 -112.5 -168.501c-52.667 -50 -115.5 -88.333 -188.5 -115s-156.5 -40 -250.5 -40c-81.333 0 -156.166 11.667 -224.499 35
s-128.833 58.333 -181.5 105c-50.667 44.667 -90.667 99.834 -120 165.501s-44 139.167 -44 220.5c0 80 12.833 151.167 38.5 213.5s64.167 117.833 115.5 166.5c49.333 46.667 110.166 82.834 182.499 108.501s153.166 38.5 242.499 38.5
c93.333 0 175.5 -12.833 246.5 -38.5s131.833 -61.834 182.5 -108.501zM823.001 181c14.667 37.333 25.4961 82.6689 32.4961 136.002s10.5 115.333 10.5 186c0 46.667 -3.33301 100 -10 160s-16.667 107.333 -30 142c-16 42 -38.167 75 -66.5 99s-64.166 36 -107.499 36
c-47.333 0 -85.166 -13 -113.499 -39s-50.166 -59.667 -65.499 -101c-14 -38 -23.667 -82.5 -29 -133.5s-8 -104.167 -8 -159.5c0 -72.667 2.33301 -132.834 7 -180.501s16 -95.5 34 -143.5c15.333 -41.333 37.333 -74 66 -98s65 -36 109 -36c40 0 74.333 11.167 103 33.5
s51.334 55.166 68.001 98.499zM1058 1349c0 -44.667 -15.833 -83.832 -47.5 -117.499s-68.834 -50.5 -111.501 -50.5c-43.333 0 -80.833 16.667 -112.5 50s-47.5 72.666 -47.5 117.999c0 44.667 15.667 83.834 47 117.501s69 50.5 113 50.5
c42.667 0 79.834 -16.833 111.501 -50.5s47.5 -72.834 47.5 -117.501zM562.997 1349c0 -44.667 -16.001 -83.832 -48.001 -117.499s-69.333 -50.5 -112 -50.5c-43.333 0 -80.666 16.667 -111.999 50s-47 72.666 -47 117.999c0 44.667 15.5 83.834 46.5 117.501
s68.5 50.5 112.5 50.5c42.667 0 80 -16.833 112 -50.5s48 -72.834 48 -117.501z" />
    <glyph glyph-name="divide" unicode="&#xf7;" horiz-adv-x="1440" 
d="M882 982c0 -46 -16 -85.167 -48 -117.5s-70 -48.5 -114 -48.5c-44.667 0 -83 16.167 -115 48.5s-48 71.5 -48 117.5s16 85.333 48 118s70.333 49 115 49c44 0 82 -16.333 114 -49s48 -72 48 -118zM1275 493h-1111v163h1111v-163zM882 166c0 -46 -16 -85.167 -48 -117.5
s-70 -48.5 -114 -48.5c-44.667 0 -83 16.167 -115 48.5s-48 71.5 -48 117.5s16 85.333 48 118s70.333 49 115 49c44 0 82 -16.333 114 -49s48 -72 48 -118z" />
    <glyph glyph-name="oslash" unicode="&#xf8;" horiz-adv-x="1302" 
d="M1259 1041l-179.001 -175.999c48 -46 85.167 -99.667 111.5 -161s39.5 -129 39.5 -203s-12.833 -143.833 -38.5 -209.5s-63.167 -121.834 -112.5 -168.501c-52.667 -50 -115.5 -88.333 -188.5 -115s-156.5 -40 -250.5 -40c-66 0 -129.167 8.83301 -189.5 26.5
s-115.166 43.5 -164.499 77.5l-186 -189l-66 61l185 184c-45.333 44.667 -81.5 98.167 -108.5 160.5s-40.5 130.833 -40.5 205.5c0 156.667 51.667 283.667 155 381s244.666 146 423.999 146c74.667 0 142.334 -9 203.001 -27s114 -42.333 160 -73l180 181zM848.999 762.001
c-16.667 62 -41.332 107.999 -73.999 137.999s-73.667 45 -123 45c-47.333 0 -85.833 -13 -115.5 -39s-52.834 -60 -69.501 -102c-16 -41.333 -26.667 -88.666 -32 -141.999s-8 -105 -8 -155c0 -35.333 0.5 -65.5 1.5 -90.5s2.5 -53.167 4.5 -84.5zM828.001 176
c18 44.667 30.333 92.833 37 144.5s10 112.5 10 182.5c0 21.333 -0.333008 48.333 -1 81s-2.33398 59 -5.00098 79l-417 -432c16 -57.333 39.333 -102.833 70 -136.5s74 -50.5 130 -50.5c41.333 0 76.833 11.5 106.5 34.5s52.834 55.5 69.501 97.5z" />
    <glyph glyph-name="ugrave" unicode="&#xf9;" horiz-adv-x="1386" 
d="M1363 21l-477.001 -29.001l-15 14v131h-6l-66.5 -60.5c-21.667 -19.667 -47.5 -37.5 -77.5 -53.5c-34 -18 -66.167 -31.333 -96.5 -40s-74.5 -13 -132.5 -13c-100.667 0 -177.834 30.333 -231.501 91s-80.5 146.334 -80.5 257.001v450c0 26 -5 47.167 -15 63.5
s-23.333 30.833 -40 43.5c-13.333 10 -30.666 17.167 -51.999 21.5s-40.666 7.16602 -57.999 8.49902v73l485 26l11 -15v-665c0 -68.667 13.167 -119.334 39.5 -152.001s62.5 -49 108.5 -49c47.333 0 89.833 12.333 127.5 37s65.167 51 82.5 79v539
c0 22.667 -4.33301 43 -13 61s-21.334 32.667 -38.001 44c-12 8 -29.167 13.333 -51.5 16s-45.166 4.66699 -68.499 6v73l485 26l15 -15v-772c0 -23.333 4.66699 -43.166 14 -59.499s23 -30.166 41 -41.499c12.667 -8 29.167 -13.5 49.5 -16.5s40.5 -4.83301 60.5 -5.5v-73z
M905.999 1139l-42 -38c-110.667 66.667 -194.167 114.834 -250.5 144.501s-104.5 58.167 -144.5 85.5c-31.333 21.333 -53.5 40.166 -66.5 56.499s-19.5 40.5 -19.5 72.5c0 24 12.833 44.667 38.5 62s54.5 26 86.5 26c40.667 0 73 -6.16699 97 -18.5
s51.333 -40.833 82 -85.5l89.5 -127.5z" />
    <glyph glyph-name="uacute" unicode="&#xfa;" horiz-adv-x="1386" 
d="M1363 21l-477.001 -29.001l-15 14v131h-6l-66.5 -60.5c-21.667 -19.667 -47.5 -37.5 -77.5 -53.5c-34 -18 -66.167 -31.333 -96.5 -40s-74.5 -13 -132.5 -13c-100.667 0 -177.834 30.333 -231.501 91s-80.5 146.334 -80.5 257.001v450c0 26 -5 47.167 -15 63.5
s-23.333 30.833 -40 43.5c-13.333 10 -30.666 17.167 -51.999 21.5s-40.666 7.16602 -57.999 8.49902v73l485 26l11 -15v-665c0 -68.667 13.167 -119.334 39.5 -152.001s62.5 -49 108.5 -49c47.333 0 89.833 12.333 127.5 37s65.167 51 82.5 79v539
c0 22.667 -4.33301 43 -13 61s-21.334 32.667 -38.001 44c-12 8 -29.167 13.333 -51.5 16s-45.166 4.66699 -68.499 6v73l485 26l15 -15v-772c0 -23.333 4.66699 -43.166 14 -59.499s23 -30.166 41 -41.499c12.667 -8 29.167 -13.5 49.5 -16.5s40.5 -4.83301 60.5 -5.5v-73z
M973.999 1460c0 -30 -6.83203 -54.168 -20.499 -72.501s-35.5 -37.166 -65.5 -56.499c-32.667 -21.333 -84.334 -51.5 -155.001 -90.5s-150.667 -85.5 -240 -139.5l-42 38c58.667 78 104 140.167 136 186.5l83 118.5c28.667 40.667 56 68.167 82 82.5s58.333 21.5 97 21.5
c32 0 60.833 -8.66699 86.5 -26s38.5 -38 38.5 -62z" />
    <glyph glyph-name="ucircumflex" unicode="&#xfb;" horiz-adv-x="1386" 
d="M1363 21l-477.001 -29.001l-15 14v131h-6l-66.5 -60.5c-21.667 -19.667 -47.5 -37.5 -77.5 -53.5c-34 -18 -66.167 -31.333 -96.5 -40s-74.5 -13 -132.5 -13c-100.667 0 -177.834 30.333 -231.501 91s-80.5 146.334 -80.5 257.001v450c0 26 -5 47.167 -15 63.5
s-23.333 30.833 -40 43.5c-13.333 10 -30.666 17.167 -51.999 21.5s-40.666 7.16602 -57.999 8.49902v73l485 26l11 -15v-665c0 -68.667 13.167 -119.334 39.5 -152.001s62.5 -49 108.5 -49c47.333 0 89.833 12.333 127.5 37s65.167 51 82.5 79v539
c0 22.667 -4.33301 43 -13 61s-21.334 32.667 -38.001 44c-12 8 -29.167 13.333 -51.5 16s-45.166 4.66699 -68.499 6v73l485 26l15 -15v-772c0 -23.333 4.66699 -43.166 14 -59.499s23 -30.166 41 -41.499c12.667 -8 29.167 -13.5 49.5 -16.5s40.5 -4.83301 60.5 -5.5v-73z
M1048 1132l-54 -29.001l-320 254l-316 -254l-51 29l139 224c26 42 56.667 85.667 92 131c15.333 20.667 33.5 36 54.5 46s49.5 15 85.5 15c36.667 0 64 -4.66699 82 -14s35 -23.666 51 -42.999c31.333 -38 64.833 -85 100.5 -141z" />
    <glyph glyph-name="udieresis" unicode="&#xfc;" horiz-adv-x="1386" 
d="M1363 21l-477.001 -29.001l-15 14v131h-6l-66.5 -60.5c-21.667 -19.667 -47.5 -37.5 -77.5 -53.5c-34 -18 -66.167 -31.333 -96.5 -40s-74.5 -13 -132.5 -13c-100.667 0 -177.834 30.333 -231.501 91s-80.5 146.334 -80.5 257.001v450c0 26 -5 47.167 -15 63.5
s-23.333 30.833 -40 43.5c-13.333 10 -30.666 17.167 -51.999 21.5s-40.666 7.16602 -57.999 8.49902v73l485 26l11 -15v-665c0 -68.667 13.167 -119.334 39.5 -152.001s62.5 -49 108.5 -49c47.333 0 89.833 12.333 127.5 37s65.167 51 82.5 79v539
c0 22.667 -4.33301 43 -13 61s-21.334 32.667 -38.001 44c-12 8 -29.167 13.333 -51.5 16s-45.166 4.66699 -68.499 6v73l485 26l15 -15v-772c0 -23.333 4.66699 -43.166 14 -59.499s23 -30.166 41 -41.499c12.667 -8 29.167 -13.5 49.5 -16.5s40.5 -4.83301 60.5 -5.5v-73z
M1084 1349c0 -44.667 -15.833 -83.832 -47.5 -117.499s-68.834 -50.5 -111.501 -50.5c-43.333 0 -80.833 16.667 -112.5 50s-47.5 72.666 -47.5 117.999c0 44.667 15.667 83.834 47 117.501s69 50.5 113 50.5c42.667 0 79.834 -16.833 111.501 -50.5
s47.5 -72.834 47.5 -117.501zM588.999 1349c0 -44.667 -16.001 -83.832 -48.001 -117.499s-69.333 -50.5 -112 -50.5c-43.333 0 -80.666 16.667 -111.999 50s-47 72.666 -47 117.999c0 44.667 15.5 83.834 46.5 117.501s68.5 50.5 112.5 50.5c42.667 0 80 -16.833 112 -50.5
s48 -72.834 48 -117.501z" />
    <glyph glyph-name="yacute" unicode="&#xfd;" horiz-adv-x="1151" 
d="M1188 919c-30 -4.66699 -59.165 -16.002 -87.498 -34.002s-51.833 -46 -70.5 -84l-177 -387.5l-202 -444.5c-41.333 -89.333 -81.333 -160.666 -120 -213.999s-75 -94.333 -109 -123c-32 -26.667 -63.667 -46 -95 -58s-63 -18 -95 -18c-63.333 0 -114.5 17.667 -153.5 53
s-58.5 75 -58.5 119c0 18.667 2.16699 36 6.5 52s13.5 32.667 27.5 50c10.667 14.667 27.167 27.167 49.5 37.5s47.5 15.5 75.5 15.5c37.333 0 73 -13 107 -39s69.333 -62 106 -108c22 22 49.167 54.833 81.5 98.5s56.166 88.5 71.499 134.5l-211 433.5l-206 409.5
c-16.667 32 -39 56.833 -67 74.5s-57.667 28.5 -89 32.5v73h612v-73c-22.667 -0.666992 -48.834 -5.66699 -78.501 -15s-44.5 -21.333 -44.5 -36c0 -5.33301 1 -11.166 3 -17.499s5.66699 -15.5 11 -27.5l96.5 -194.5l145.5 -291.5l105.5 244.5l84.5 201.5
c6.66699 16.667 10.5 29.834 11.5 39.501s1.5 16.167 1.5 19.5c0 12 -5.83301 22.5 -17.5 31.5s-25.5 16.833 -41.5 23.5c-16.667 6.66699 -32.667 11.667 -48 15s-28 5.66602 -38 6.99902v73h413v-73zM924.002 1460c0 -30 -6.83203 -54.168 -20.499 -72.501
s-35.5 -37.166 -65.5 -56.499c-32.667 -21.333 -84.334 -51.5 -155.001 -90.5s-150.667 -85.5 -240 -139.5l-42 38c58.667 78 104 140.167 136 186.5l83 118.5c28.667 40.667 56 68.167 82 82.5s58.333 21.5 97 21.5c32 0 60.833 -8.66699 86.5 -26s38.5 -38 38.5 -62z" />
    <glyph glyph-name="thorn" unicode="&#xfe;" horiz-adv-x="1321" 
d="M1250 487c0 -140.667 -47.002 -261.336 -141.002 -362.003s-213 -151 -357 -151c-64 0 -116 6.5 -156 19.5s-73 28.833 -99 47.5h-8v-281c0 -23.333 5.16699 -43.666 15.5 -60.999s24.833 -30 43.5 -38c18 -8 43.5 -14.833 76.5 -20.5s60.5 -9.16699 82.5 -10.5v-74h-722
v74c16.667 1.33301 38 3.83301 64 7.5s44.667 7.5 56 11.5c21.333 7.33301 35.833 19.833 43.5 37.5s11.5 37.834 11.5 60.501v1550c0 25.333 -5.16699 48.833 -15.5 70.5s-24.166 38.167 -41.499 49.5c-12.667 8 -31.167 15 -55.5 21s-46.833 9.66699 -67.5 11v73l494 26
l15 -13v-655l8 -2c44 44.667 92.833 79.334 146.5 104.001s106.834 37 159.501 37c138 0 247 -48.833 327 -146.5s120 -226.167 120 -385.5zM890.998 482.998c0 50 -3.66504 97.833 -10.998 143.5s-20.333 86.5 -39 122.5s-42.667 64.667 -72 86s-65.333 32 -108 32
c-43.333 0 -78 -7.5 -104 -22.5s-48.667 -34.5 -68 -58.5v-567c4 -13.333 11.667 -30.5 23 -51.5s22.666 -37.833 33.999 -50.5c16.667 -18 35.667 -31.333 57 -40s44.666 -13 69.999 -13c66 0 118.833 35.5 158.5 106.5s59.5 175.167 59.5 312.5z" />
    <glyph glyph-name="ydieresis" unicode="&#xff;" horiz-adv-x="1151" 
d="M1188 919c-30 -4.66699 -59.165 -16.002 -87.498 -34.002s-51.833 -46 -70.5 -84l-177 -387.5l-202 -444.5c-41.333 -89.333 -81.333 -160.666 -120 -213.999s-75 -94.333 -109 -123c-32 -26.667 -63.667 -46 -95 -58s-63 -18 -95 -18c-63.333 0 -114.5 17.667 -153.5 53
s-58.5 75 -58.5 119c0 18.667 2.16699 36 6.5 52s13.5 32.667 27.5 50c10.667 14.667 27.167 27.167 49.5 37.5s47.5 15.5 75.5 15.5c37.333 0 73 -13 107 -39s69.333 -62 106 -108c22 22 49.167 54.833 81.5 98.5s56.166 88.5 71.499 134.5l-211 433.5l-206 409.5
c-16.667 32 -39 56.833 -67 74.5s-57.667 28.5 -89 32.5v73h612v-73c-22.667 -0.666992 -48.834 -5.66699 -78.501 -15s-44.5 -21.333 -44.5 -36c0 -5.33301 1 -11.166 3 -17.499s5.66699 -15.5 11 -27.5l96.5 -194.5l145.5 -291.5l105.5 244.5l84.5 201.5
c6.66699 16.667 10.5 29.834 11.5 39.501s1.5 16.167 1.5 19.5c0 12 -5.83301 22.5 -17.5 31.5s-25.5 16.833 -41.5 23.5c-16.667 6.66699 -32.667 11.667 -48 15s-28 5.66602 -38 6.99902v73h413v-73zM1039 1349c0 -44.667 -15.833 -83.832 -47.5 -117.499
s-68.834 -50.5 -111.501 -50.5c-43.333 0 -80.833 16.667 -112.5 50s-47.5 72.666 -47.5 117.999c0 44.667 15.667 83.834 47 117.501s69 50.5 113 50.5c42.667 0 79.834 -16.833 111.501 -50.5s47.5 -72.834 47.5 -117.501zM544.002 1349
c0 -44.667 -16.001 -83.832 -48.001 -117.499s-69.333 -50.5 -112 -50.5c-43.333 0 -80.666 16.667 -111.999 50s-47 72.666 -47 117.999c0 44.667 15.5 83.834 46.5 117.501s68.5 50.5 112.5 50.5c42.667 0 80 -16.833 112 -50.5s48 -72.834 48 -117.501z" />
    <glyph glyph-name="dotlessi" unicode="&#x131;" horiz-adv-x="724" 
d="M690 0l-632 -0.00195312v73c17.333 1.33301 34.333 3 51 5s31 5.33301 43 10c21.333 8 36.333 19.5 45 34.5s13 34.833 13 59.5v582c0 23.333 -5.33301 43.833 -16 61.5s-24 31.834 -40 42.501c-12 8 -30.167 15.667 -54.5 23s-46.5 12 -66.5 14v73l490 26l15 -15v-794
c0 -23.333 5 -43.166 15 -59.499s24.333 -28.5 43 -36.5c13.333 -6 28 -11.333 44 -16s32.667 -8 50 -10v-73z" />
    <glyph glyph-name="OE" unicode="&#x152;" horiz-adv-x="2254" 
d="M2104 1057l-76.002 -0.00390625c-19.333 54 -52.666 108.667 -99.999 164s-94.333 88 -141 98c-20 4 -47.833 6.66699 -83.5 8s-65.167 2 -88.5 2h-186v-548h126c36.667 0 70 4.33301 100 13s57.333 25.334 82 50.001c15.333 15.333 30.833 42.333 46.5 81
s25.834 72.334 30.501 101.001h76v-592h-76c-4 28 -14.167 63.167 -30.5 105.5s-31.833 71.5 -46.5 87.5c-22 24 -48 40.5 -78 49.5s-64.667 13.5 -104 13.5h-126v-409c0 -86.667 13 -140 39 -160s87 -30 183 -30c94 0 162.167 4.16699 204.5 12.5
s71.833 21.166 88.5 38.499c32 32.667 68 82.5 108 149.5s66.333 117.167 79 150.5h73l-27 -442h-1298c-77.333 0 -163.333 11.333 -258 34s-182.667 61.334 -264 116.001c-98 66 -170.167 146.5 -216.5 241.5s-69.5 200.833 -69.5 317.5
c0 122.667 24.333 230.834 73 324.501s119.667 172.167 213 235.5c65.333 44.667 144.833 80.834 238.5 108.501s188.167 41.5 283.5 41.5h1225v-362zM1075 93.9961l-0.000976562 1231c-22.667 1.33301 -49 2.16602 -79 2.49902s-52 0.5 -66 0.5
c-144.667 0 -257.334 -56 -338.001 -168s-121 -262.333 -121 -451c0 -186 40 -335.5 120 -448.5s193 -169.5 339 -169.5c16.667 0 39.334 0.166992 68.001 0.5s54.334 1.16602 77.001 2.49902z" />
    <glyph glyph-name="oe" unicode="&#x153;" horiz-adv-x="1921" 
d="M1882 239c-48.667 -81.333 -113.832 -146.832 -195.499 -196.499s-175.834 -74.5 -282.501 -74.5c-84 0 -157.5 11.833 -220.5 35.5s-117.833 56.167 -164.5 97.5c-50.667 -42 -107 -74.667 -169 -98s-135.333 -35 -220 -35c-157.333 0 -289.833 46.833 -397.5 140.5
s-161.5 222.167 -161.5 385.5c0 154 50.5 280.333 151.5 379s239.5 148 415.5 148c85.333 0 160 -12 224 -36s121 -58 171 -102c54.667 48 112 83 172 105s118 33 174 33c86.667 0 160.667 -11.5 222 -34.5s110.666 -54.167 147.999 -93.5
c37.333 -38.667 64.333 -83.667 81 -135s25 -105.333 25 -162v-65h-659c0 -136 25.833 -239.833 77.5 -311.5s133.5 -107.5 245.5 -107.5c61.333 0 115.833 17.667 163.5 53s88.834 78.666 123.501 129.999zM1505 619.001c0 34.667 -1.83301 74.332 -5.5 118.999
s-9.5 79.334 -17.5 104.001c-10 29.333 -24.333 53 -43 71s-43.667 27 -75 27c-51.333 0 -91.5 -26.333 -120.5 -79s-44.833 -134.667 -47.5 -246zM802.002 180.999c16 43.333 26.835 90.8291 32.502 142.496s8.5 111.5 8.5 179.5c0 53.333 -2.66699 107 -8 161
s-15 101 -29 141c-16 42 -36.667 75 -62 99s-60 36 -104 36c-45.333 0 -81.333 -13.167 -108 -39.5s-47.334 -59.833 -62.001 -100.5c-14.667 -41.333 -24.167 -88.666 -28.5 -141.999s-6.5 -103.666 -6.5 -150.999c0 -67.333 2.5 -127.166 7.5 -179.499
s15.5 -100.5 31.5 -144.5c14.667 -42 35.667 -74.833 63 -98.5s61.666 -35.5 102.999 -35.5c39.333 0 72.5 11.833 99.5 35.5s47.833 55.834 62.5 96.501z" />
    <glyph glyph-name="Scaron" unicode="&#x160;" horiz-adv-x="1329" 
d="M664 -38c-86.667 0 -167.5 10.668 -242.5 32.001s-138.5 46.666 -190.5 75.999l-69 -70h-85l-13 513h86c19.333 -48.667 44 -100 74 -154s64.667 -102.333 104 -145c40.667 -44.667 86.167 -81 136.5 -109s109.166 -42 176.499 -42c90.667 0 160.167 22.167 208.5 66.5
s72.5 100.166 72.5 167.499c0 55.333 -20.5 101.833 -61.5 139.5s-104.5 70.167 -190.5 97.5l-154.5 50c-47 15.333 -91.167 31 -132.5 47c-95.333 38 -166.166 92.333 -212.499 163s-69.5 149.667 -69.5 237c0 55.333 12 108.5 36 159.5s59 96.833 105 137.5
c44 38 100.333 69 169 93s143.334 36 224.001 36c78.667 0 152.334 -10.833 221.001 -32.5s122.667 -43.5 162 -65.5l61 60h87l8 -484h-86c-20 52 -43.5 105.167 -70.5 159.5s-55.5 99.5 -85.5 135.5c-32.667 38.667 -70.334 69.5 -113.001 92.5s-92.667 34.5 -150 34.5
c-72 0 -130.833 -20.333 -176.5 -61s-68.5 -91 -68.5 -151c0 -56.667 19.833 -103 59.5 -139s101.5 -67.667 185.5 -95l151 -50c51.333 -16.667 97 -32.667 137 -48c96.667 -37.333 170.167 -88.833 220.5 -154.5s75.5 -147.167 75.5 -244.5
c0 -61.333 -14.333 -120.666 -43 -177.999s-67.334 -105 -116.001 -143c-53.333 -42 -115 -74.333 -185 -97s-151.667 -34 -245 -34zM1027 1839l-150 -184.5c-28.667 -37 -57 -71.5 -85 -103.5c-18 -20 -33.667 -34.5 -47 -43.5s-42 -13.5 -86 -13.5
c-40 0 -69.5 5.33301 -88.5 16s-36.167 25.667 -51.5 45l-72 91l-157 193l33 29l332 -193l339 193z" />
    <glyph glyph-name="scaron" unicode="&#x161;" horiz-adv-x="1050" 
d="M521 -34c-64.667 0 -127.835 9.50195 -189.502 28.502s-109.5 39.167 -143.5 60.5l-30 -68h-78l-13 373h73c10 -30 26.667 -63.833 50 -101.5s50 -71.5 80 -101.5c31.333 -30 67.166 -55.333 107.499 -76s83.5 -31 129.5 -31c60.667 0 105.834 11.833 135.501 35.5
s44.5 60.167 44.5 109.5c0 26.667 -6.66699 48.667 -20 66s-31.666 32.333 -54.999 45c-26 13.333 -54.5 24.666 -85.5 33.999l-114.5 34c-45.333 13.333 -84.166 26.833 -116.499 40.5s-65.833 35.167 -100.5 64.5c-30 26 -54 57.333 -72 94s-27 80.334 -27 131.001
c0 94 39.5 170 118.5 228s182.5 87 310.5 87c60.667 0 116.5 -6.16699 167.5 -18.5s93.833 -25.833 128.5 -40.5l21 59h76l16 -341h-71c-23.333 69.333 -63.333 129.166 -120 179.499s-117.667 75.5 -183 75.5c-51.333 0 -91.666 -10.667 -120.999 -32s-44 -51 -44 -89
c0 -50.667 21.5 -87.334 64.5 -110.001s103.167 -44 180.5 -64c119.333 -30.667 206.666 -72.5 261.999 -125.5s83 -120.5 83 -202.5c0 -109.333 -42.833 -194 -128.5 -254s-197.5 -90 -335.5 -90zM902.999 1519l-136.001 -217.001
c-37.333 -59.333 -71 -106.666 -101 -141.999c-17.333 -20 -33.666 -34.5 -48.999 -43.5s-43.333 -13.5 -84 -13.5c-40 0 -69.5 5.33301 -88.5 16s-36.167 25.667 -51.5 45c-31.333 39.333 -66.833 91 -106.5 155l-124.5 200l51 29l316 -254l320 254z" />
    <glyph glyph-name="Ydieresis" unicode="&#x178;" horiz-adv-x="1499" 
d="M1567 1341c-24 -2.66699 -46.002 -7 -66.002 -13s-39 -14.333 -57 -25c-28.667 -16 -54.167 -36.5 -76.5 -61.5s-44.166 -52.833 -65.499 -83.5l-136.5 -206.5l-155.5 -245.5c-36.667 -56.667 -59.167 -100.167 -67.5 -130.5s-12.5 -82.833 -12.5 -157.5v-201
c0 -24 4.5 -45 13.5 -63s26.167 -32.667 51.5 -44c11.333 -4.66699 35.333 -10.834 72 -18.501s63.667 -12.167 81 -13.5v-78h-791v78c18.667 1.33301 45.5 4 80.5 8s59.5 8.66699 73.5 14c24.667 10.667 41.5 24.834 50.5 42.501s13.5 39.167 13.5 64.5v250
c0 22 -0.333008 41.333 -1 58s-3 30.667 -7 42c-4.66699 12.667 -12.667 28.834 -24 48.501l-44 76.5l-149 256l-137 227c-22.667 36.667 -45.5 66.167 -68.5 88.5s-46.5 40.5 -70.5 54.5c-18 10 -39.833 17.667 -65.5 23s-48.834 8.66602 -69.501 9.99902v78h813v-78
c-74.667 -2 -125 -7.16699 -151 -15.5s-39 -19.833 -39 -34.5c0 -7.33301 4.83301 -22 14.5 -44s26.834 -56 51.501 -102c22.667 -43.333 55.834 -103 99.501 -179l157.5 -267l261 420.5c47.333 79.667 71 128.5 71 146.5c0 22.667 -13.833 40 -41.5 52
s-72.5 19.667 -134.5 23v78h526v-78zM1247 1700c0 -44.667 -15.833 -83.832 -47.5 -117.499s-68.834 -50.5 -111.501 -50.5c-43.333 0 -80.833 16.667 -112.5 50s-47.5 72.666 -47.5 117.999c0 44.667 15.667 83.834 47 117.501s69 50.5 113 50.5
c42.667 0 79.834 -16.833 111.501 -50.5s47.5 -72.834 47.5 -117.501zM710.998 1700c0 -44.667 -16.001 -83.832 -48.001 -117.499s-69.333 -50.5 -112 -50.5c-43.333 0 -80.666 16.667 -111.999 50s-47 72.666 -47 117.999c0 44.667 15.5 83.834 46.5 117.501
s68.5 50.5 112.5 50.5c42.667 0 80 -16.833 112 -50.5s48 -72.834 48 -117.501z" />
    <glyph glyph-name="florin" unicode="&#x192;" horiz-adv-x="1186" 
d="M1186 1137c0 -18 -2.49805 -36.501 -7.49805 -55.501s-13.167 -35.167 -24.5 -48.5c-13.333 -16 -28.5 -28.333 -45.5 -37s-42.833 -13 -77.5 -13c-51.333 0 -92.333 17.5 -123 52.5s-64.667 95.5 -102 181.5c-24.667 -16 -45.667 -49.667 -63 -101
s-33 -147.333 -47 -288l-7 -75h277v-116h-292c-5.33301 -48 -11.5 -106.833 -18.5 -176.5s-18.833 -154.5 -35.5 -254.5c-12.667 -78 -32.834 -151.667 -60.501 -221s-65.834 -131 -114.501 -185c-52 -56.667 -110.167 -99 -174.5 -127s-140.166 -42 -227.499 -42
c-79.333 0 -141.333 16.667 -186 50s-67 76 -67 128c0 47.333 14.167 84 42.5 110s65.166 39 110.499 39c50 0 91 -17.167 123 -51.5s66 -95.166 102 -182.499c36.667 21.333 62.167 76.333 76.5 165s25.5 163.334 33.5 224.001c13.333 100 25 196.167 35 288.5l25 235.5
h-203v116h220c8 69.333 26.5 137.666 55.5 204.999s66.833 126.333 113.5 177c48 53.333 106.667 95.833 176 127.5s147 47.5 233 47.5c76.667 0 138 -16.167 184 -48.5s69 -73.833 69 -124.5z" />
    <glyph glyph-name="circumflex" unicode="&#x2c6;" 
d="M883 1132l-54 -29.001l-320 254l-316 -254l-51 29l139 224c26 42 56.667 85.667 92 131c15.333 20.667 33.5 36 54.5 46s49.5 15 85.5 15c36.667 0 64 -4.66699 82 -14s35 -23.666 51 -42.999c31.333 -38 64.833 -85 100.5 -141z" />
    <glyph glyph-name="caron" unicode="&#x2c7;" 
d="M883 1519l-136.001 -217.001c-37.333 -59.333 -71 -106.666 -101 -141.999c-17.333 -20 -33.666 -34.5 -48.999 -43.5s-43.333 -13.5 -84 -13.5c-40 0 -69.5 5.33301 -88.5 16s-36.167 25.667 -51.5 45c-31.333 39.333 -66.833 91 -106.5 155l-124.5 200l51 29l316 -254
l320 254z" />
    <glyph glyph-name="macron" unicode="&#x2c9;" 
d="M886 1246h-748v173h748v-173z" />
    <glyph glyph-name="breve" unicode="&#x2d8;" 
d="M842 1532c-16.667 -129.333 -51.166 -227.833 -103.499 -295.5s-127.833 -101.5 -226.5 -101.5c-95.333 0 -170.5 34.333 -225.5 103s-89.833 166.667 -104.5 294l71 16c9.33301 -32 20.333 -62.667 33 -92s28 -54.333 46 -75c20 -22.667 43.333 -40.167 70 -52.5
s63.334 -18.5 110.001 -18.5c39.333 0 74.166 5.66699 104.499 17s55.166 28.333 74.499 51c18.667 21.333 34.167 46.5 46.5 75.5s23.5 60.5 33.5 94.5z" />
    <glyph glyph-name="dotaccent" unicode="&#x2d9;" 
d="M705 1364c0 -50.667 -18.499 -93.834 -55.499 -129.501s-82.5 -53.5 -136.5 -53.5s-99.667 17.833 -137 53.5s-56 78.834 -56 129.501s18.667 94 56 130s83 54 137 54c53.333 0 98.666 -17.833 135.999 -53.5s56 -79.167 56 -130.5z" />
    <glyph glyph-name="ring" unicode="&#x2da;" 
d="M791 1336c0 -69.333 -25.6699 -125.335 -77.0029 -168.002s-118.666 -64 -201.999 -64c-85.333 0 -153.166 20.5 -203.499 61.5s-75.5 97.833 -75.5 170.5c0 70.667 26.833 126.834 80.5 168.501s119.834 62.5 198.501 62.5c80 0 146.5 -20.667 199.5 -62
s79.5 -97.666 79.5 -168.999zM643.997 1335c0 47.333 -11.1699 86.167 -33.5029 116.5s-55.166 45.5 -98.499 45.5c-42 0 -74.5 -14.5 -97.5 -43.5s-34.5 -68.5 -34.5 -118.5c0 -48 11.333 -86.833 34 -116.5s55.334 -44.5 98.001 -44.5s75.334 14.5 98.001 43.5
s34 68.167 34 117.5z" />
    <glyph glyph-name="ogonek" unicode="&#x2db;" 
d="M704 -444c-142 0 -246.333 15.667 -313 47s-100 79 -100 143c0 58 22 109.833 66 155.5s109.333 91.5 196 137.5h86c-46.667 -52.667 -80.667 -100 -102 -142s-32 -82.667 -32 -122c0 -43.333 15.5 -75.833 46.5 -97.5s81.833 -36.5 152.5 -44.5v-77z" />
    <glyph glyph-name="tilde" unicode="&#x2dc;" 
d="M959 1479c-8 -28.667 -21.167 -60.833 -39.5 -96.5s-40.5 -68.167 -66.5 -97.5c-29.333 -32.667 -59.333 -58.667 -90 -78s-66.334 -29 -107.001 -29c-48 0 -89.833 5.83301 -125.5 17.5s-66.5 24.167 -92.5 37.5c-22.667 12 -47.834 24.333 -75.501 37
s-53.834 19 -78.501 19c-30 0 -55.167 -11.333 -75.5 -34s-44.166 -60.667 -71.499 -114l-72 30c9.33301 26.667 22.666 56.667 39.999 90s39 66.333 65 99c22.667 28.667 51.334 54 86.001 76s69.334 33 104.001 33c44 0 83.333 -5.5 118 -16.5s66.667 -23.833 96 -38.5
l75.5 -38.5c19.667 -10.333 43.834 -15.5 72.501 -15.5c53.333 0 89.833 13.333 109.5 40s36.5 61 50.5 103z" />
    <glyph glyph-name="hungarumlaut" unicode="&#x2dd;" 
d="M600 1467c0 -26.667 -10.833 -50.501 -32.5 -71.501s-43.5 -40.167 -65.5 -57.5l-108.5 -83.5c-35.667 -26.333 -102.5 -79.833 -200.5 -160.5l-38 35c48.667 74 87 135.167 115 183.5l79 137.5c16.667 30.667 36.167 54.667 58.5 72s53.833 26 94.5 26
c24.667 0 47.167 -8.16699 67.5 -24.5s30.5 -35.166 30.5 -56.499zM1005 1467c0 -26.667 -10.833 -50.501 -32.5 -71.501s-43.5 -40.167 -65.5 -57.5l-108.5 -83.5c-35.667 -26.333 -102.5 -79.833 -200.5 -160.5l-38 35c48.667 74 87 135.167 115 183.5l79 137.5
c17.333 30.667 37 54.667 59 72s53.333 26 94 26c24.667 0 47.167 -8.16699 67.5 -24.5s30.5 -35.166 30.5 -56.499z" />
    <glyph glyph-name="endash" unicode="&#x2013;" horiz-adv-x="1440" 
d="M1335 493h-1231v163h1231v-163z" />
    <glyph glyph-name="emdash" unicode="&#x2014;" horiz-adv-x="1900" 
d="M1795 493h-1691v163h1691v-163z" />
    <glyph glyph-name="quoteleft" unicode="&#x2018;" horiz-adv-x="550" 
d="M463 984c0 -42.667 -17.166 -79.999 -51.499 -111.999s-74.833 -48 -121.5 -48c-73.333 0 -129.666 24.333 -168.999 73s-59 116 -59 202c0 80 33.833 160.667 101.5 242s149.167 143 244.5 185l44 -71c-75.333 -36.667 -134.333 -79.334 -177 -128.001
s-67.334 -107.667 -74.001 -177h56c41.333 0 75 -4.66699 101 -14s47 -22.333 63 -39c15.333 -16 26.166 -33.667 32.499 -53s9.5 -39.333 9.5 -60z" />
    <glyph glyph-name="quoteright" unicode="&#x2019;" horiz-adv-x="550" 
d="M98 899c75.333 36.667 134.332 79.332 176.999 127.999s67.334 107.667 74.001 177h-56c-41.333 0 -75 4.66699 -101 14s-47 22.333 -63 39c-15.333 15.333 -26.166 32.833 -32.499 52.5s-9.5 39.834 -9.5 60.501c0 42.667 17.167 80 51.5 112s74.833 48 121.5 48
c73.333 0 129.666 -24.333 168.999 -73s59 -116 59 -202c0 -80 -33.833 -160.667 -101.5 -242s-149.167 -143 -244.5 -185z" />
    <glyph glyph-name="quotesinglbase" unicode="&#x201a;" horiz-adv-x="550" 
d="M75 -305c75.333 36.667 134.332 79.332 176.999 127.999s67.334 107.667 74.001 177h-56c-41.333 0 -75 4.66699 -101 14s-47 22.333 -63 39c-15.333 15.333 -26.166 32.833 -32.499 52.5s-9.5 39.834 -9.5 60.501c0 42.667 17.167 80 51.5 112s74.833 48 121.5 48
c73.333 0 129.666 -24.333 168.999 -73s59 -116 59 -202c0 -80 -33.833 -160.667 -101.5 -242s-149.167 -143 -244.5 -185z" />
    <glyph glyph-name="quotedblleft" unicode="&#x201c;" horiz-adv-x="1063" 
d="M473 984c0 -42.667 -17.166 -79.999 -51.499 -111.999s-74.833 -48 -121.5 -48c-73.333 0 -129.666 24.333 -168.999 73s-59 116 -59 202c0 80 33.833 160.667 101.5 242s149.167 143 244.5 185l44 -71c-75.333 -36.667 -134.333 -79.334 -177 -128.001
s-67.334 -107.667 -74.001 -177h56c41.333 0 75 -4.66699 101 -14s47 -22.333 63 -39c15.333 -16 26.166 -33.667 32.499 -53s9.5 -39.333 9.5 -60zM966.001 984.001c0 -42.667 -17.166 -79.999 -51.499 -111.999s-74.833 -48 -121.5 -48
c-73.333 0 -129.666 24.333 -168.999 73s-59 116 -59 202c0 80 33.833 160.667 101.5 242s149.167 143 244.5 185l44 -71c-75.333 -36.667 -134.333 -79.334 -177 -128.001s-67.334 -107.667 -74.001 -177h56c41.333 0 75 -4.66699 101 -14s47 -22.333 63 -39
c15.333 -16 26.166 -33.667 32.499 -53s9.5 -39.333 9.5 -60z" />
    <glyph glyph-name="quotedblright" unicode="&#x201d;" horiz-adv-x="1063" 
d="M108 899c75.333 36.667 134.332 79.333 176.999 128s67.334 107.667 74.001 177h-56c-41.333 0 -75 4.66699 -101 14s-47 22.333 -63 39c-15.333 16 -26.166 33.667 -32.499 53s-9.5 39.333 -9.5 60c0 42.667 17.167 80 51.5 112s74.833 48 121.5 48
c73.333 0 129.666 -24.333 168.999 -73s59 -116 59 -202c0 -80 -33.833 -160.667 -101.5 -242s-149.167 -143 -244.5 -185zM600.999 898.999c75.333 36.667 134.332 79.333 176.999 128s67.334 107.667 74.001 177h-56c-41.333 0 -75 4.66699 -101 14s-47 22.333 -63 39
c-15.333 16 -26.166 33.667 -32.499 53s-9.5 39.333 -9.5 60c0 42.667 17.167 80 51.5 112s74.833 48 121.5 48c73.333 0 129.666 -24.333 168.999 -73s59 -116 59 -202c0 -80 -33.833 -160.667 -101.5 -242s-149.167 -143 -244.5 -185z" />
    <glyph glyph-name="quotedblbase" unicode="&#x201e;" horiz-adv-x="1063" 
d="M85 -305c75.333 36.667 134.332 79.333 176.999 128s67.334 107.667 74.001 177h-56c-41.333 0 -75 4.66699 -101 14s-47 22.333 -63 39c-15.333 16 -26.166 33.667 -32.499 53s-9.5 39.333 -9.5 60c0 42.667 17.167 80 51.5 112s74.833 48 121.5 48
c73.333 0 129.666 -24.333 168.999 -73s59 -116 59 -202c0 -80 -33.833 -160.667 -101.5 -242s-149.167 -143 -244.5 -185zM577.999 -305.001c75.333 36.667 134.332 79.333 176.999 128s67.334 107.667 74.001 177h-56c-41.333 0 -75 4.66699 -101 14s-47 22.333 -63 39
c-15.333 16 -26.166 33.667 -32.499 53s-9.5 39.333 -9.5 60c0 42.667 17.167 80 51.5 112s74.833 48 121.5 48c73.333 0 129.666 -24.333 168.999 -73s59 -116 59 -202c0 -80 -33.833 -160.667 -101.5 -242s-149.167 -143 -244.5 -185z" />
    <glyph glyph-name="dagger" unicode="&#x2020;" horiz-adv-x="987" 
d="M889 1053c0 -27.333 -8.49707 -49.002 -25.4971 -65.002s-38.5 -24 -64.5 -24c-18 0 -49.833 6.83301 -95.5 20.5s-103.5 24.834 -173.5 33.501c10 -161.333 21.5 -320.5 34.5 -477.5s19.5 -244.167 19.5 -261.5c0 -26 -7.33301 -47.5 -22 -64.5s-37 -25.5 -67 -25.5
c-27.333 0 -49 8.5 -65 25.5s-24 38.5 -24 64.5c0 17.333 6.5 104.5 19.5 261.5s23.167 316.167 30.5 477.5c-62 -7.33301 -118.333 -18.166 -169 -32.499s-84 -21.5 -100 -21.5c-26 0 -47.5 8 -64.5 24s-25.5 37.667 -25.5 65c0 30 8.5 52.333 25.5 67s38.5 22 64.5 22
c11.333 0 42.666 -7.33301 93.999 -22s109.333 -26.667 174 -36c-8.66699 70.667 -19.334 130.5 -32.001 179.5s-19 82.833 -19 101.5c0 26 8.33301 47.5 25 64.5s38.667 25.5 66 25.5c30 0 52.667 -8.5 68 -25.5s23 -38.5 23 -64.5c0 -18 -7 -51.833 -21 -101.5
s-25.333 -109.5 -34 -179.5c64.667 9.33301 122.667 21.333 174 36s82.666 22 93.999 22c26 0 47.5 -7.33301 64.5 -22s25.5 -37 25.5 -67z" />
    <glyph glyph-name="daggerdbl" unicode="&#x2021;" horiz-adv-x="987" 
d="M889 576c0 -30 -8.49609 -52.3369 -25.4961 -67.0039s-38.5 -22 -64.5 -22c-14.667 0 -44.334 6.83301 -89.001 20.5s-104.334 26.167 -179.001 37.5c6 -56 16.667 -112.833 32 -170.5s23 -94.5 23 -110.5c0 -26 -7.66699 -47.5 -23 -64.5s-38 -25.5 -68 -25.5
c-27.333 0 -49.333 8.5 -66 25.5s-25 38.5 -25 64.5c0 20.667 6.33301 54.167 19 100.5s23.334 106.5 32.001 180.5c-62 -7.33301 -118.167 -18.833 -168.5 -34.5s-83.5 -23.5 -99.5 -23.5c-26 0 -47.5 7.33301 -64.5 22s-25.5 37 -25.5 67c0 27.333 8.5 49 25.5 65
s38.5 24 64.5 24c14 0 46 -6.83301 96 -20.5s107.333 -24.834 172 -33.501c-3.33301 32 -8.83301 62.167 -16.5 90.5s-13.167 59.833 -16.5 94.5v38c2.66699 34.667 8.16699 65.334 16.5 92.001s13.833 57.334 16.5 92.001c-62 -9.33301 -119.333 -20.666 -172 -33.999
s-84.667 -20 -96 -20c-26 0 -47.5 8 -64.5 24s-25.5 37.667 -25.5 65c0 30 8.5 52.333 25.5 67s38.5 22 64.5 22c12.667 0 44.5 -7.5 95.5 -22.5s108.5 -26.833 172.5 -35.5c-8.66699 70.667 -19.334 130.5 -32.001 179.5s-19 82.833 -19 101.5c0 26 8.33301 47.5 25 64.5
s38.667 25.5 66 25.5c30 0 52.667 -8.5 68 -25.5s23 -38.5 23 -64.5c0 -18 -7 -51.833 -21 -101.5s-25.333 -109.5 -34 -179.5c60.667 8 117.667 19.667 171 35s85.666 23 96.999 23c26 0 47.5 -7.33301 64.5 -22s25.5 -37 25.5 -67c0 -27.333 -8.5 -49 -25.5 -65
s-38.5 -24 -64.5 -24c-18 0 -49.833 6.83301 -95.5 20.5s-103.167 24.834 -172.5 33.501c2.66699 -32 8.16699 -62 16.5 -90s13.833 -59.333 16.5 -94v-38c-3.33301 -34.667 -8.83301 -65.5 -16.5 -92.5s-13.167 -57.833 -16.5 -92.5
c69.333 8.66699 126.666 19.834 171.999 33.501s77.333 20.5 96 20.5c26 0 47.5 -8 64.5 -24s25.5 -37.667 25.5 -65z" />
    <glyph glyph-name="bullet" unicode="&#x2022;" horiz-adv-x="896" 
d="M767 609c0 -88 -31.167 -163.167 -93.5 -225.5s-137.5 -93.5 -225.5 -93.5s-163.167 31.167 -225.5 93.5s-93.5 137.5 -93.5 225.5s31.167 163.167 93.5 225.5s137.5 93.5 225.5 93.5s163.167 -31.167 225.5 -93.5s93.5 -137.5 93.5 -225.5z" />
    <glyph glyph-name="ellipsis" unicode="&#x2026;" horiz-adv-x="1929" 
d="M1814 158c0 -51.333 -18.833 -95.333 -56.5 -132s-82.5 -55 -134.5 -55c-52.667 0 -97.834 18.333 -135.501 55s-56.5 80.667 -56.5 132s18.833 95.5 56.5 132.5s82.834 55.5 135.501 55.5c52 0 96.833 -18.5 134.5 -55.5s56.5 -81.167 56.5 -132.5zM1171 158
c0 -51.333 -18.833 -95.333 -56.5 -132s-82.5 -55 -134.5 -55c-52.667 0 -97.834 18.333 -135.501 55s-56.5 80.667 -56.5 132s18.833 95.5 56.5 132.5s82.834 55.5 135.501 55.5c52 0 96.833 -18.5 134.5 -55.5s56.5 -81.167 56.5 -132.5zM528 158
c0 -51.333 -18.833 -95.333 -56.5 -132s-82.5 -55 -134.5 -55c-52.667 0 -97.834 18.333 -135.501 55s-56.5 80.667 -56.5 132s18.833 95.5 56.5 132.5s82.834 55.5 135.501 55.5c52 0 96.833 -18.5 134.5 -55.5s56.5 -81.167 56.5 -132.5z" />
    <glyph glyph-name="perthousand" unicode="&#x2030;" horiz-adv-x="2680" 
d="M870 1086c0 -111.333 -37.499 -201.5 -112.499 -270.5s-167.167 -103.5 -276.5 -103.5c-110.667 0 -203.334 34.5 -278.001 103.5s-112 159.167 -112 270.5s37.333 201.5 112 270.5s167 103.5 277 103.5s202.5 -34.5 277.5 -103.5s112.5 -159.167 112.5 -270.5z
M605.001 1084c0 92 -9.00098 165.5 -27.001 220.5s-51 82.5 -99 82.5c-43.333 0 -74.666 -25.833 -93.999 -77.5s-29 -123.5 -29 -215.5c0 -96 8.83301 -171.5 26.5 -226.5s51.167 -82.5 100.5 -82.5c42.667 0 73.667 25.833 93 77.5s29 125.5 29 221.5zM1710 339
c0 -111.333 -37.499 -201.5 -112.499 -270.5s-167.167 -103.5 -276.5 -103.5c-110.667 0 -203.334 34.5 -278.001 103.5s-112 159.167 -112 270.5s37.333 201.5 112 270.5s167 103.5 277 103.5s202.5 -34.5 277.5 -103.5s112.5 -159.167 112.5 -270.5zM1445 337
c0 92 -9.00098 165.5 -27.001 220.5s-51 82.5 -99 82.5c-43.333 0 -74.666 -25.833 -93.999 -77.5s-29 -123.5 -29 -215.5c0 -96 8.83301 -171.5 26.5 -226.5s51.167 -82.5 100.5 -82.5c42.667 0 73.667 25.833 93 77.5s29 125.5 29 221.5zM1574 1428l-1183 -1428h-163
l1180 1428h166zM2588 339c0 -111.333 -37.499 -201.5 -112.499 -270.5s-167.167 -103.5 -276.5 -103.5c-110.667 0 -203.334 34.5 -278.001 103.5s-112 159.167 -112 270.5s37.333 201.5 112 270.5s167 103.5 277 103.5s202.5 -34.5 277.5 -103.5
s112.5 -159.167 112.5 -270.5zM2323 337c0 92 -9.00098 165.5 -27.001 220.5s-51 82.5 -99 82.5c-43.333 0 -74.666 -25.833 -93.999 -77.5s-29 -123.5 -29 -215.5c0 -96 8.83301 -171.5 26.5 -226.5s51.167 -82.5 100.5 -82.5c42.667 0 73.667 25.833 93 77.5
s29 125.5 29 221.5z" />
    <glyph glyph-name="guilsinglleft" unicode="&#x2039;" horiz-adv-x="811" 
d="M700 139l-50.998 -43.002l-247 172c-84.667 60 -145.667 104.333 -183 133c-24.667 19.333 -42.834 40.333 -54.501 63s-17.5 50.334 -17.5 83.001c0 31.333 5.66699 57.833 17 79.5s29.666 42.834 54.999 63.501c52 40.667 117.833 88.5 197.5 143.5l232.5 161.5l51 -43
l-297 -409z" />
    <glyph glyph-name="guilsinglright" unicode="&#x203a;" horiz-adv-x="811" 
d="M662 547c0 -31.333 -5.66699 -58.832 -17 -82.499s-29 -44.834 -53 -63.501l-176.5 -129l-253.5 -176l-53 43l299 404l-299 409l53 43l246.5 -172c85 -60 146.167 -104.333 183.5 -133c24.667 -19.333 42.5 -40 53.5 -62s16.5 -49 16.5 -81z" />
    <glyph glyph-name="fraction" unicode="&#x2044;" horiz-adv-x="194" 
d="M584 1429l-818 -1429h-156l816 1429h158z" />
    </font>
</defs>
</svg>
